<svg width="167" height="45" viewBox="0 0 167 45" fill="none" xmlns="http://www.w3.org/2000/svg">
<path d="M47.9364 12.5055C47.9364 16.7414 46.8146 19.8555 42.6449 19.8555C38.7555 19.8555 37.6689 17.1273 37.6689 12.8914C37.6689 8.676 38.7908 5.5401 42.9604 5.5401C46.8499 5.5401 47.9364 8.26831 47.9364 12.5055ZM40.0163 12.7273C40.0163 16.2722 40.7697 17.5132 42.8027 17.5132C44.8356 17.5132 45.5879 16.3106 45.5879 12.667C45.5879 9.12215 44.8345 7.88113 42.8027 7.88113C40.7708 7.88113 40.0163 9.08369 40.0163 12.7273Z" fill="#0090D0"/>
<path d="M53.949 11.9542C53.4758 11.7914 53.0037 11.6696 52.3892 11.6696C51.6358 11.6696 51.0931 11.9952 51.0931 12.667C51.0931 13.8888 54.6318 13.5016 54.6318 16.4542C54.6318 18.267 53.4228 19.8542 51.1979 19.8542C49.936 19.8542 49.0249 19.3657 48.5527 18.9183L49.4981 17.167C50.0242 17.5145 50.4798 17.7375 51.1979 17.758C52.0219 17.758 52.4245 17.3093 52.4245 16.6375C52.4245 15.2529 48.9024 15.6811 48.9024 12.7888C48.9024 10.9555 50.0761 9.57086 52.4598 9.57086C53.2838 9.57086 54.1597 9.75548 54.58 9.97856L53.949 11.9542Z" fill="#0090D0"/>
<path d="M58.5067 7.21063C58.6644 7.43371 58.8045 8.14653 58.8045 8.84012V9.91961H61.1706L60.9246 11.8952H58.9269V16.1311C58.9269 17.0876 59.1365 17.5773 59.8204 17.5773C60.1359 17.5773 60.5209 17.4965 60.8893 17.3735L61.3625 19.2683C60.9765 19.5119 60.2231 19.776 59.4344 19.776C57.419 19.776 56.7362 18.3517 56.7362 15.9273V11.8952H55.2471V9.91961H56.7715V7.53627L58.5067 7.21063Z" fill="#0090D0"/>
<path d="M67.2869 11.9542C66.8137 11.7914 66.3415 11.6696 65.7271 11.6696C64.9737 11.6696 64.431 11.9952 64.431 12.667C64.431 13.8888 67.9697 13.5016 67.9697 16.4542C67.9697 18.267 66.7607 19.8542 64.5358 19.8542C63.2739 19.8542 62.3627 19.3657 61.8906 18.9183L62.836 17.167C63.3621 17.5145 63.8177 17.7375 64.5358 17.758C65.3598 17.758 65.7624 17.3093 65.7624 16.6375C65.7624 15.2529 62.2403 15.6811 62.2403 12.7888C62.2403 10.9555 63.414 9.57086 65.7977 9.57086C66.6217 9.57086 67.4976 9.75548 67.9178 9.97856L67.2869 11.9542Z" fill="#0090D0"/>
<path d="M76.1562 18.9388C75.6124 19.3875 74.5446 19.8555 73.3003 19.8555C70.3386 19.8555 69.2002 17.8401 69.2002 14.7452C69.2002 11.5478 70.6364 9.57214 73.1955 9.57214C75.3333 9.57214 76.2786 11.0798 76.3492 13.4221C76.3845 14.3375 76.2445 15.4375 76.2445 15.4375L71.4615 15.4991C71.5663 16.9439 72.0572 17.6375 73.5463 17.6375C74.335 17.6375 75.0002 17.3927 75.544 17.1478L76.1562 18.9388ZM74.2291 13.685C74.2291 13.685 74.2468 13.4414 74.2468 13.176C74.2291 12.1786 73.9136 11.567 72.9849 11.567C72.0561 11.567 71.6005 12.1183 71.4781 13.7055L74.2291 13.685Z" fill="#0090D0"/>
<path d="M84.5517 18.9388C84.009 19.3875 82.9401 19.8555 81.6958 19.8555C78.7341 19.8555 77.5957 17.8401 77.5957 14.7452C77.5957 11.5478 79.0319 9.57214 81.5911 9.57214C83.7288 9.57214 84.6742 11.0798 84.7448 13.4221C84.7801 14.3375 84.64 15.4375 84.64 15.4375L79.857 15.4991C79.9618 16.9439 80.4527 17.6375 81.9418 17.6375C82.7305 17.6375 83.3957 17.3927 83.9395 17.1478L84.5517 18.9388ZM82.6246 13.685C82.6246 13.685 82.6423 13.4414 82.6423 13.176C82.6246 12.1786 82.3092 11.567 81.3804 11.567C80.4516 11.567 79.996 12.1183 79.8736 13.7055L82.6246 13.685Z" fill="#0090D0"/>
<path d="M91.3874 13.5427H86.6045V15.6196H91.3874V13.5427Z" fill="#0090D0"/>
<path d="M44.5367 21.9811L44.2742 24.2824H39.9633V27.6427H43.5726V29.944H39.9633V35.7683H37.6689V21.9811H44.5367Z" fill="#F6921E"/>
<path d="M51.7579 35.1158C51.2152 35.5645 50.1452 36.0324 48.9009 36.0324C45.9403 36.0324 44.8008 34.017 44.8008 30.9222C44.8008 27.7247 46.2381 25.7491 48.7961 25.7491C50.9339 25.7491 51.8803 27.2568 51.9498 29.5991C51.984 30.5145 51.8439 31.6145 51.8439 31.6145L47.061 31.676C47.1658 33.1209 47.6566 33.8145 49.1458 33.8145C49.9345 33.8145 50.5997 33.5696 51.1435 33.3247L51.7579 35.1158ZM49.8308 29.8619C49.8308 29.8619 49.8485 29.6183 49.8485 29.3529C49.8308 28.3555 49.5153 27.744 48.5865 27.744C47.6578 27.744 47.2022 28.2952 47.0797 29.8824L49.8308 29.8619Z" fill="#F6921E"/>
<path d="M55.5285 25.8914C55.6686 26.1157 55.8782 26.7875 55.8958 27.4606C56.2643 26.9093 57.0342 25.9119 57.9983 25.9119C58.4715 25.9119 58.8741 26.0542 59.1201 26.1978L58.5421 28.4593C58.1748 28.3362 57.8935 28.2747 57.6321 28.2747C57.1236 28.2747 56.5974 28.5401 56.0194 28.9055V35.7696H53.7239V27.5632C53.7239 27.1349 53.7062 26.6465 53.6367 26.2183L55.5285 25.8914Z" fill="#F6921E"/>
<path d="M61.3648 21.717C62.2406 21.717 62.662 22.3683 62.662 23.1632C62.662 23.9568 62.1358 24.7311 61.2953 24.7311C60.3841 24.7311 59.9639 24.0799 59.9639 23.2452C59.9639 22.4901 60.4889 21.717 61.3648 21.717ZM62.1877 25.8914C62.3289 26.1158 62.5561 26.7876 62.5561 27.4799V35.7683H60.2606V27.5811C60.2606 27.1542 60.2429 26.6645 60.1735 26.2376L62.1877 25.8914Z" fill="#F6921E"/>
<path d="M71.1788 35.1158C70.6361 35.5645 69.5661 36.0324 68.3218 36.0324C65.3612 36.0324 64.2217 34.017 64.2217 30.9222C64.2217 27.7247 65.659 25.7491 68.217 25.7491C70.3548 25.7491 71.3012 27.2568 71.3707 29.5991C71.4049 30.5145 71.2648 31.6145 71.2648 31.6145L66.4819 31.676C66.5867 33.1209 67.0775 33.8145 68.5667 33.8145C69.3554 33.8145 70.0206 33.5696 70.5644 33.3247L71.1788 35.1158ZM69.2517 29.8619C69.2517 29.8619 69.2694 29.6183 69.2694 29.3529C69.2517 28.3555 68.9362 27.744 68.0074 27.744C67.0787 27.744 66.6231 28.2952 66.5006 29.8824L69.2517 29.8619Z" fill="#F6921E"/>
<path d="M74.9495 25.8914C75.0709 26.1157 75.2992 26.726 75.3168 27.3991C75.8949 26.6247 76.7012 25.9119 78.0856 25.9119C79.9079 25.9119 80.5741 27.2157 80.5741 29.0696V35.7696H78.2786V29.9042C78.2786 28.7849 78.0161 28.317 77.2439 28.317C76.5964 28.317 76.1221 28.5196 75.4393 28.8247V35.7696H73.1438V27.5632C73.1438 27.1349 73.1261 26.6465 73.0566 26.2183L74.9495 25.8914Z" fill="#F6921E"/>
<path d="M83.5011 26.0952L84.5357 31.2888C84.6935 32.1029 84.8512 33.7734 84.8512 33.7734C84.8512 33.7734 85.0608 32.1234 85.2715 31.3093L86.5853 26.0965H88.4781L89.8449 31.3093C90.0191 32.0632 90.2475 33.5093 90.2475 33.5093C90.2475 33.5093 90.4052 32.0016 90.5453 31.3093L91.6318 26.0965H93.6461L91.4917 35.7696H89.0374L87.9156 31.3709C87.653 30.3119 87.4787 28.7837 87.4787 28.7837C87.4787 28.7837 87.2692 30.3926 87.0574 31.3285L85.9543 35.7683H83.4657L81.3633 26.0952H83.5011Z" fill="#F6921E"/>
<path d="M102.115 30.7991C102.115 33.7927 101.028 36.0324 97.9451 36.0324C95.001 36.0324 94.0898 33.8734 94.0898 30.9837C94.0898 27.9901 95.1764 25.7491 98.2606 25.7491C101.202 25.7491 102.115 27.9068 102.115 30.7991ZM96.3842 30.9222C96.3842 32.7952 96.6302 33.8337 98.1017 33.8337C99.5732 33.8337 99.8192 32.8363 99.8192 30.8606C99.8192 28.9875 99.5732 27.9491 98.1017 27.9491C96.6302 27.9491 96.3842 28.9465 96.3842 30.9222Z" fill="#F6921E"/>
<path d="M105.779 21.8593C105.919 22.0824 106.147 22.7542 106.147 23.4465V27.235C106.708 26.5209 107.514 25.9106 108.793 25.9106C110.615 25.9106 111.281 27.2144 111.281 29.0683V35.7683H108.986V29.9029C108.986 28.7837 108.723 28.3157 107.951 28.3157C107.302 28.3157 106.829 28.5183 106.146 28.8234V35.7683H103.868V23.5503C103.868 23.1221 103.851 22.6337 103.781 22.2055L105.779 21.8593Z" fill="#F6921E"/>
<path d="M115.192 25.8914C115.313 26.1157 115.541 26.726 115.559 27.3991C116.137 26.6247 116.943 25.9119 118.328 25.9119C120.15 25.9119 120.816 27.2157 120.816 29.0696V35.7696H118.521V29.9042C118.521 28.7849 118.258 28.317 117.486 28.317C116.839 28.317 116.364 28.5196 115.681 28.8247V35.7696H113.386V27.5632C113.386 27.1349 113.368 26.6465 113.299 26.2183L115.192 25.8914Z" fill="#F6921E"/>
<path d="M124.603 25.8914C124.743 26.1157 124.971 26.808 124.971 27.5003V31.7978C124.971 32.9798 125.286 33.6311 126.057 33.6311C126.355 33.6311 126.775 33.5696 127.635 33.1426V27.5619C127.635 27.1337 127.616 26.6657 127.546 26.2388L129.562 25.8914C129.702 26.1157 129.93 26.808 129.93 27.5003V34.4849C129.93 34.9132 129.948 35.3619 130 35.7683H128.107C128.001 35.5644 127.808 35.0555 127.774 34.5465C127.336 35.2388 126.423 36.0324 125.356 36.0324C123.691 36.0324 122.675 34.6888 122.675 32.6324V27.5619C122.675 27.1337 122.656 26.6657 122.587 26.2388L124.603 25.8914Z" fill="#F6921E"/>
<path d="M134.017 25.8914C134.138 26.1157 134.367 26.726 134.384 27.3991C134.962 26.6247 135.769 25.9119 137.153 25.9119C138.975 25.9119 139.642 27.2157 139.642 29.0696V35.7696H137.346V29.9042C137.346 28.7849 137.083 28.317 136.311 28.317C135.664 28.317 135.189 28.5196 134.507 28.8247V35.7696H132.211V27.5632C132.211 27.1349 132.194 26.6465 132.124 26.2183L134.017 25.8914Z" fill="#F6921E"/>
<path d="M150.209 27.7247C149.893 27.8875 149.438 28.0299 148.842 27.9683C148.562 27.9478 148.281 27.8465 148.037 27.7247C148.335 28.1529 148.544 28.7029 148.544 29.2324C148.544 31.2286 147.282 32.8978 144.813 32.8978C144.584 32.8978 144.357 32.876 144.164 32.8568C143.726 33.8145 144.042 34.1401 144.742 34.1401H146.249C148.456 34.1401 149.507 35.2811 149.507 37.0106C149.507 39.2722 148 41.0234 144.952 41.0234C142.446 41.0234 141.219 40.026 141.219 38.1927C141.219 37.0927 142.007 36.217 142.709 35.7888C142.218 35.4632 141.938 34.9952 141.938 34.2414C141.938 33.4478 142.551 32.7952 143.024 32.5927C141.763 32.0632 141.255 30.9222 141.255 29.4145C141.255 27.4183 142.517 25.7491 144.987 25.7491C145.513 25.7491 145.986 25.8299 146.389 25.9337C147.791 26.0965 149.332 25.9952 149.928 25.8927L150.209 27.7247ZM144.9 30.9414C146.213 30.9414 146.459 30.4529 146.459 29.2927C146.459 28.3555 146.144 27.7042 144.9 27.7042C143.586 27.7042 143.34 28.1927 143.34 29.3529C143.34 30.2901 143.655 30.9414 144.9 30.9414ZM143.411 37.6017C143.411 38.5581 143.987 38.885 145.198 38.885C146.774 38.885 147.299 38.2529 147.299 37.3773C147.299 36.6645 146.966 36.2568 145.758 36.2568C144.146 36.2568 143.813 36.217 143.813 36.217C143.585 36.6645 143.411 37.1132 143.411 37.6017Z" fill="#F6921E"/>
<path d="M157.605 35.1158C157.062 35.5645 155.992 36.0324 154.748 36.0324C151.787 36.0324 150.647 34.017 150.647 30.9222C150.647 27.7247 152.085 25.7491 154.643 25.7491C156.781 25.7491 157.727 27.2568 157.797 29.5991C157.831 30.5145 157.691 31.6145 157.691 31.6145L152.908 31.676C153.012 33.1209 153.503 33.8145 154.992 33.8145C155.781 33.8145 156.446 33.5696 156.99 33.3247L157.605 35.1158ZM155.677 29.8619C155.677 29.8619 155.695 29.6183 155.695 29.3529C155.678 28.3555 155.362 27.744 154.433 27.744C153.504 27.744 153.049 28.2952 152.926 29.8824L155.677 29.8619Z" fill="#F6921E"/>
<path d="M161.375 25.8914C161.497 26.1157 161.725 26.726 161.743 27.3991C162.321 26.6247 163.127 25.9119 164.511 25.9119C166.334 25.9119 167 27.2157 167 29.0696V35.7696H164.704V29.9042C164.704 28.7849 164.442 28.317 163.67 28.317C163.022 28.317 162.548 28.5196 161.865 28.8247V35.7696H159.57V27.5632C159.57 27.1349 159.552 26.6465 159.482 26.2183L161.375 25.8914Z" fill="#F6921E"/>
<path d="M22.3721 38.3363L20.9734 41.7542L17.1589 42.5747L17.053 42.3157L16.2257 42.5747L16.4011 40.7311L10.6441 41.7119C10.6441 41.7119 10.4467 41.7119 10.0992 41.6529C8.78103 41.4362 7.34593 40.5221 6.10938 39.976C4.36872 39.2093 2.15594 38.7542 2.18793 36.0709C2.21551 33.776 2.32582 31.4516 2.41186 29.1542C2.43613 28.5106 2.45708 27.8632 2.46039 27.2183L2.51003 22.6055C2.35339 22.2209 1.22495 19.2798 1.16538 19.1388C1.00543 18.7645 0.767169 18.1465 0.643624 17.7516C0.37337 16.8914 0.0887753 15.976 0.0303122 15.0542C-0.0689648 13.4991 0.0788477 12.1145 0.426317 10.6734C0.773787 9.23368 3.58774 1.73496 3.58774 1.4465C3.58774 1.15804 20.3953 2.12086 20.3953 2.12086C20.3953 2.12086 21.5811 3.54394 22.1349 4.40291C22.4735 4.92855 23.4365 6.12086 23.4365 6.12086L24.0818 8.13753L22.2463 8.77214L22.7923 17.0721L25.7684 20.185L28.2967 20.7042L28.5449 21.3375V32.2311C28.5449 32.2311 30.1322 33.2119 30.3804 33.326C30.6286 33.4414 31.1007 34.0632 31.1007 34.0632L29.5873 38.8593L29.0909 39.2619C28.6287 39.6375 27.3028 39.6645 26.7259 39.8247C25.6339 40.1311 24.5286 40.3632 23.4365 40.5965C23.4476 40.4786 23.5777 39.4939 23.6825 38.9298C23.8105 38.2324 23.784 38.0888 23.8204 37.8927" fill="white"/>
<path d="M22.7151 36.7581L22.4062 40.5658L17.984 41.6132L18.755 41.1619L18.3502 40.6145L18.1483 38.2658L11.4692 41.167C11.4692 41.167 11.2706 41.167 10.9243 41.1094C10.5768 41.0529 5.66591 38.7465 5.66591 38.7465L3.68368 37.9978L3.03838 37.1901C3.03838 37.1901 3.43549 34.0773 3.28768 32.4081C3.13876 30.7363 3.28768 27.2196 3.28768 27.2196L3.33621 22.6068C3.17957 22.2222 2.05112 19.2811 1.99156 19.1401C1.83161 18.7658 1.59335 18.1478 1.4698 17.7529C1.19955 16.8927 0.914954 15.9773 0.855388 15.0555C0.756111 13.5004 0.905027 12.1158 1.2525 10.6747C1.59886 9.23499 4.41502 1.73627 4.41502 1.44781C4.41502 1.15935 21.0064 1.97345 21.5557 2.05422C22.1051 2.13371 24.9334 5.88371 24.9334 5.88371C25.0922 6.79397 25.1694 7.14012 25.3294 8.05038C25.3779 8.33627 25.5368 8.8055 25.2588 9.17089C25.1077 9.37089 24.8451 9.48115 24.6157 9.48756C24.0818 9.50166 23.8038 9.51832 23.2699 9.53243C23.2699 9.53243 23.7939 16.1081 24.0322 16.5952C24.2693 17.0799 26.5659 20.0799 26.5659 20.0799C26.5659 20.0799 28.6066 20.5542 28.7092 20.5952C28.814 20.635 29.3479 20.9683 29.3722 21.5619C29.3898 21.9901 29.3722 32.2324 29.3722 32.2324C29.3722 32.2324 30.9595 33.2132 31.2077 33.3273C31.4559 33.4414 31.928 34.0645 31.928 34.0645L30.5536 38.2132C30.5536 38.2132 29.7957 37.2478 29.7946 37.2491C29.3324 37.626 27.3877 39.3632 26.2946 39.5965C26.3056 39.4747 26.1898 38.9863 26.2946 38.4222C26.4236 37.7247 26.2582 36.7401 26.2946 36.544L22.7151 36.7581Z" fill="#0090D0" stroke="white" stroke-width="1.28205" stroke-miterlimit="10" stroke-linecap="round" stroke-linejoin="round"/>
<path d="M5.43359 10.858L6.26973 9.36829L20.9109 9.40034C20.9109 9.40034 21.2175 16.2939 21.5827 17.0478C21.95 17.8003 24.583 21.1567 24.989 21.6696C25.1952 21.9298 26.5145 22.0734 26.5145 22.0734C26.5145 22.0734 26.9701 22.1324 27.0583 22.3888C27.1477 22.6452 27.1036 23.2593 27.1036 23.2593V31.7747L24.5455 30.5209L10.5464 33.026L10.1415 23.1683L7.77653 21.9196L5.88144 16.8362L5.43359 10.858Z" fill="#00529B" stroke="#00529B" stroke-width="1.28205" stroke-miterlimit="10" stroke-linecap="round" stroke-linejoin="round"/>
<path d="M10.7114 33.1157L11.9645 40.5862L27.8511 36.9208L27.5984 29.9131L10.7114 33.1157Z" fill="#0066B2"/>
<path d="M16.7002 38.4235L10.9014 33.9145L16.5193 32.9709L23.3507 37.2209C23.3507 37.2209 23.1102 41.0465 23.1058 41.0619C23.0838 41.135 17.7316 42.4235 16.6627 42.6414L16.7002 38.4235Z" fill="#0090D0" stroke="white" stroke-width="3.21795" stroke-miterlimit="10" stroke-linecap="round" stroke-linejoin="round"/>
<path d="M25.3872 36.3863L19.5508 32.4145L25.2316 31.6645L30.6897 34.7824C30.6897 34.7824 29.9462 38.8376 29.9418 38.8529C29.9197 38.926 26.0281 40.2581 24.9592 40.4773L25.3872 36.3863Z" fill="#0090D0" stroke="white" stroke-width="3.21795" stroke-miterlimit="10" stroke-linecap="round" stroke-linejoin="round"/>
<path d="M17.525 37.944L11.0444 33.094L17.3441 32.0145L24.1744 36.7427C24.1744 36.7427 23.935 40.567 23.9306 40.5824C23.9085 40.6555 18.5553 41.9452 17.4875 42.1632L17.525 37.944Z" fill="#0090D0" stroke="#0090D0" stroke-width="1.28205" stroke-miterlimit="10" stroke-linecap="round" stroke-linejoin="round"/>
<path d="M26.2115 35.9068L19.7695 31.5106L25.8828 30.4722L31.514 34.3042C31.514 34.3042 30.7705 38.3568 30.7661 38.3722C30.7441 38.4452 26.8524 39.7773 25.7835 39.9965L26.2115 35.9068Z" fill="#0090D0" stroke="#0090D0" stroke-width="1.28205" stroke-miterlimit="10" stroke-linecap="round" stroke-linejoin="round"/>
<path d="M11.9059 40.6939C12.2291 39.9542 12.0162 38.6555 11.9688 38.0004C11.8563 36.4465 11.7084 34.8965 11.6467 33.3388C11.5463 30.8324 11.4371 28.3273 11.3312 25.8209C11.3091 25.3055 11.3069 24.7811 11.265 24.2683L11.1867 23.3222C11.1867 23.3222 10.9164 22.5568 10.9153 22.5555C10.6848 21.9016 9.66113 21.9542 9.21218 21.6786C8.59225 21.2991 8.46209 20.7068 8.21831 19.9927C6.7468 15.6952 6.1732 11.6273 5.91398 7.04395L5.46833 3.41318L5.12197 2.26061L4.87377 1.85805C4.87377 1.85805 4.416 1.13754 4.416 1.42728C4.416 1.71574 1.60094 9.21318 1.25347 10.6542C0.906003 12.0952 0.757087 13.4786 0.856364 15.035C0.915931 15.9555 1.20052 16.8709 1.47078 17.7324C1.59432 18.1273 1.83259 18.7439 1.99253 19.1183C2.0521 19.258 3.18055 22.2004 3.33719 22.585L3.28865 27.1978C3.2335 29.4888 3.16952 31.7811 3.12098 34.0734C3.10003 35.0837 2.81543 36.3529 3.27211 37.2888C3.7354 38.2375 10.815 41.7914 11.6632 41.0439C11.7658 40.9529 11.8463 40.835 11.9059 40.6939Z" fill="#0090D0" stroke="white" stroke-width="1.28205" stroke-miterlimit="10" stroke-linecap="round" stroke-linejoin="round"/>
<path d="M12.7998 41.3875C12.7998 41.3875 11.9107 22.5209 11.9085 22.4657C11.8577 21.5298 9.84793 21.1542 9.33169 20.667C8.80111 20.1696 8.56174 19.3362 8.32127 18.6247C8.05543 17.835 7.68038 16.9773 7.51712 16.1529L6.60929 11.5991C6.60929 11.5991 6.41405 7.13367 6.21218 5.25803C6.01032 3.38496 5.51063 2.1888 5.51063 2.1888L4.87305 1.85803L5.12124 2.2606L5.46761 3.41316L5.91325 7.04393L6.16144 11.4247L6.90602 16.2657L8.66102 21.2721L9.47068 21.8106L9.4795 21.8337L9.59091 21.8888C9.59091 21.8888 9.63173 21.9157 9.62842 21.908L10.9146 22.5542L11.186 23.3209L11.2643 24.267L11.957 40.726L11.9074 41.3593L12.7998 41.3875Z" fill="white"/>
<path d="M8.05305 37.3965C7.82582 37.3965 7.6416 37.1017 7.6416 36.4401V24.4722C7.6416 24.2081 7.82582 24.2658 8.05305 24.2658C8.28139 24.2658 8.4656 24.7145 8.4656 25.2235V37.0799C8.4656 37.344 8.28139 37.3965 8.05305 37.3965Z" fill="white"/>
<path d="M6.70607 8.86443L6.65092 6.36443L4.86504 4.05033C4.86504 4.05033 4.32563 2.77725 4.62125 2.26828C4.91798 1.76058 5.73316 1.8593 5.73316 1.8593L6.19424 4.40033L6.70607 8.86443Z" fill="#0090D0"/>
<path d="M13.2266 32.9593L14.2524 32.7593L19.0486 36.1799L18.2389 36.4093L13.2266 32.9593Z" fill="white" stroke="white" stroke-width="0.320513" stroke-miterlimit="10" stroke-linecap="round" stroke-linejoin="round"/>
<path d="M15.7725 32.5452L16.7983 32.3465L21.5945 35.7683L20.786 35.9939L15.7725 32.5452Z" fill="white" stroke="white" stroke-width="0.320513" stroke-miterlimit="10" stroke-linecap="round" stroke-linejoin="round"/>
<path d="M21.6152 31.476L22.6389 31.2593L27.4825 34.5875L26.6773 34.8324L21.6152 31.476Z" fill="white" stroke="white" stroke-width="0.320513" stroke-miterlimit="10" stroke-linecap="round" stroke-linejoin="round"/>
<path d="M24.1572 31.0183L25.1798 30.8004L30.0245 34.1273L29.2181 34.3709L24.1572 31.0183Z" fill="white" stroke="white" stroke-width="0.320513" stroke-miterlimit="10" stroke-linecap="round" stroke-linejoin="round"/>
<path d="M18.2686 10.8593L18.4208 14.6862L22.9875 25.9824L22.1051 26.0016L17.6376 14.7439L17.417 10.8555L18.2686 10.8593Z" fill="white" stroke="white" stroke-width="0.320513" stroke-miterlimit="10" stroke-linecap="round" stroke-linejoin="round"/>
<path d="M16.0014 10.8004L16.2319 14.8068L20.9023 26.1619L20.021 26.1811L15.3704 14.6824L15.1509 10.7952L16.0014 10.8004Z" fill="white" stroke="white" stroke-width="0.320513" stroke-miterlimit="10" stroke-linecap="round" stroke-linejoin="round"/>
<path d="M13.7865 10.9196L14.0171 14.926L18.9445 26.4952L17.9528 26.6426L13.1555 14.8042L12.936 10.9144L13.7865 10.9196Z" fill="white" stroke="white" stroke-width="0.320513" stroke-miterlimit="10" stroke-linecap="round" stroke-linejoin="round"/>
<path d="M11.4693 10.9799L11.6998 14.9863L16.6515 27.0029L15.7139 27.0863L10.8372 14.8632L10.6177 10.976L11.4693 10.9799Z" fill="white" stroke="white" stroke-width="0.320513" stroke-miterlimit="10" stroke-linecap="round" stroke-linejoin="round"/>
<path d="M9.09962 11.0401L9.32906 15.0465L14.3569 27.3837L13.4755 27.467L8.46866 14.9222L8.24805 11.035L9.09962 11.0401Z" fill="white" stroke="white" stroke-width="0.320513" stroke-miterlimit="10" stroke-linecap="round" stroke-linejoin="round"/>
<path d="M23.2236 27.5209H24.3223L25.2434 28.294L24.8154 29.4734L24.3047 29.1516L24.1899 28.3555L23.2236 27.5209Z" fill="white" stroke="white" stroke-width="0.384615" stroke-miterlimit="10" stroke-linecap="round" stroke-linejoin="round"/>
<path d="M21.1553 27.7004H22.1425L22.9709 28.4735L22.586 29.6529L22.1271 29.3299L22.0234 28.5363L21.1553 27.7004Z" fill="white" stroke="white" stroke-width="0.384615" stroke-miterlimit="10" stroke-linecap="round" stroke-linejoin="round"/>
<path d="M18.9561 27.8901H19.9444L20.9747 28.758L20.5886 29.9375L20.1297 29.6132L20.0271 28.8208L18.9561 27.8901Z" fill="white" stroke="white" stroke-width="0.384615" stroke-miterlimit="10" stroke-linecap="round" stroke-linejoin="round"/>
<path d="M16.6406 28.1452H17.629L18.6284 29.0657L18.2434 30.2452L17.7845 29.9208L17.6808 29.1285L16.6406 28.1452Z" fill="white" stroke="white" stroke-width="0.384615" stroke-miterlimit="10" stroke-linecap="round" stroke-linejoin="round"/>
<path d="M14.2271 28.526H15.2154L16.3052 29.6234L15.9203 30.8029L15.4614 30.4798L15.3577 29.6863L14.2271 28.526Z" fill="white" stroke="white" stroke-width="0.384615" stroke-miterlimit="10" stroke-linecap="round" stroke-linejoin="round"/>
<path d="M11.769 28.5888H12.7585L13.8472 29.6862L13.4623 30.8657L13.0034 30.5427L12.9008 29.7478L11.769 28.5888Z" fill="white" stroke="white" stroke-width="0.384615" stroke-miterlimit="10" stroke-linecap="round" stroke-linejoin="round"/>
<path d="M7.15485 5.43242L7.77478 7.79267L8.85029 7.77344L8.39361 5.5478L6.51727 2.82216L5.25977 2.75037L6.95961 5.1619L7.15485 5.43242Z" fill="white" stroke="white" stroke-width="0.384615" stroke-miterlimit="10" stroke-linecap="round" stroke-linejoin="round"/>
<path d="M9.93033 5.25805L8.01318 2.78241L9.22657 2.8619L11.0731 5.19138L11.3654 7.77344H10.3274L9.93033 5.25805Z" fill="white" stroke="white" stroke-width="0.384615" stroke-miterlimit="10" stroke-linecap="round" stroke-linejoin="round"/>
<path d="M10.7114 2.84778L12.8426 5.39778L12.9882 7.81188L13.9776 7.83111L13.9137 5.51188L11.8068 2.9388L10.7114 2.84778Z" fill="white" stroke="white" stroke-width="0.384615" stroke-miterlimit="10" stroke-linecap="round" stroke-linejoin="round"/>
<path d="M13.2944 2.94781L15.4366 5.58756L15.6341 7.67987L16.6754 7.73756L16.6257 5.83499L14.4516 2.98884L13.2944 2.94781Z" fill="white" stroke="white" stroke-width="0.384615" stroke-miterlimit="10" stroke-linecap="round" stroke-linejoin="round"/>
<path d="M15.9346 2.88239L18.0172 5.60546L18.261 7.69905H19.1368L18.9261 5.71956L16.795 2.9388L15.9346 2.88239Z" fill="white" stroke="white" stroke-width="0.384615" stroke-miterlimit="10" stroke-linecap="round" stroke-linejoin="round"/>
<path d="M18.0918 3.01318L20.5153 6.00165L20.6134 7.79267H21.4242L21.3106 6.00806L18.8706 3.03241L18.0918 3.01318Z" fill="white" stroke="white" stroke-width="0.384615" stroke-miterlimit="10" stroke-linecap="round" stroke-linejoin="round"/>
<path d="M20.3486 3.13879L22.7059 6.03879L22.9012 7.79264L23.8586 7.81187L23.5012 6.13367L20.9167 3.21572L20.3486 3.13879Z" fill="white" stroke="white" stroke-width="0.384615" stroke-miterlimit="10" stroke-linecap="round" stroke-linejoin="round"/>
</svg>
