<svg width="163" height="54" viewBox="0 0 163 54" fill="none" xmlns="http://www.w3.org/2000/svg">
<path d="M53.3384 19.86C51.4795 19.86 49.917 20.6343 48.6508 22.182C47.3842 23.7297 46.7513 25.6974 46.7513 28.0841C46.7513 30.7441 47.5482 32.8482 49.1428 34.3954C50.3816 35.6051 51.8033 36.2102 53.4065 36.2102C55.2195 36.2102 56.764 35.4256 58.0396 33.8559C59.3153 32.2866 59.9529 30.3518 59.9529 28.0518C59.9529 25.7625 59.3106 23.8256 58.0259 22.2395C56.7413 20.6533 55.1784 19.86 53.3384 19.86ZM53.3795 15.3805C56.2202 15.3805 58.664 16.6123 60.7082 19.0754C62.7529 21.5389 63.7759 24.542 63.7759 28.0841C63.7759 31.5943 62.767 34.5646 60.7493 36.9948C58.7321 39.4261 56.2844 40.6415 53.4065 40.6415C50.3919 40.6415 47.8873 39.3933 45.8927 36.8974C43.8986 34.4015 42.9009 31.4364 42.9009 28.0025C42.9009 25.703 43.3655 23.5882 44.2947 21.6589C45.2235 19.7292 46.5008 18.201 48.1267 17.0728C49.7522 15.9446 51.5031 15.3805 53.3795 15.3805Z" fill="#1174B0"/>
<path d="M77.4914 19.2553L74.6601 22.2477C73.6663 20.5907 72.654 19.7625 71.6237 19.7625C71.1223 19.7625 70.7121 19.923 70.3931 20.2446C70.074 20.5661 69.9143 20.9287 69.9143 21.3318C69.9143 21.7353 70.0282 22.1169 70.256 22.4764C70.5661 22.9559 71.5008 23.9861 73.0595 25.5666C74.5184 27.0271 75.4031 27.9482 75.7131 28.3297C76.4877 29.2671 77.0371 30.1636 77.3608 31.0195C77.6845 31.8754 77.8464 32.8097 77.8464 33.8236C77.8464 35.7964 77.2769 37.4261 76.1379 38.7123C74.9993 39.9984 73.5138 40.6415 71.6824 40.6415C70.2522 40.6415 69.0061 40.2215 67.9446 39.3825C66.8831 38.543 65.974 37.2246 65.2178 35.4256L68.431 33.1041C69.3975 35.2297 70.5095 36.2923 71.7676 36.2923C72.4236 36.2923 72.9751 36.0636 73.4218 35.6051C73.8684 35.1477 74.0919 34.6195 74.0919 34.02C74.0919 33.4743 73.9232 32.9297 73.5858 32.3846C73.2483 31.84 72.5054 31.0061 71.357 29.883C69.1684 27.7466 67.7553 26.0979 67.1169 24.9374C66.4788 23.7764 66.1598 22.6179 66.1598 21.4625C66.1598 19.7948 66.6908 18.3641 67.7523 17.1707C68.8138 15.9774 70.1237 15.3805 71.682 15.3805C72.6844 15.3805 73.6389 15.6584 74.5458 16.2143C75.4523 16.7702 76.4342 17.7841 77.4914 19.2553Z" fill="#1174B0"/>
<path d="M79.5117 15.9856H90.6112V20.4979H86.9522V40.0364H83.0748V20.4979H79.5117V15.9856Z" fill="#1174B0"/>
<path d="M103.772 19.2553L100.941 22.2477C99.9474 20.5907 98.9347 19.7625 97.9049 19.7625C97.4031 19.7625 96.9924 19.923 96.6738 20.2446C96.3544 20.5661 96.1947 20.9287 96.1947 21.3318C96.1947 21.7353 96.3094 22.1169 96.5368 22.4764C96.8472 22.9559 97.7812 23.9861 99.3403 25.5666C100.799 27.0271 101.683 27.9482 101.994 28.3297C102.768 29.2671 103.318 30.1636 103.642 31.0195C103.965 31.8754 104.127 32.8097 104.127 33.8236C104.127 35.7964 103.558 37.4261 102.419 38.7123C101.28 39.9984 99.7942 40.6415 97.9636 40.6415C96.5325 40.6415 95.2864 40.2215 94.2249 39.3825C93.1638 38.543 92.2547 37.2246 91.4985 35.4256L94.7118 33.1041C95.6778 35.2297 96.7903 36.2923 98.0479 36.2923C98.7044 36.2923 99.2559 36.0636 99.7021 35.6051C100.15 35.1477 100.373 34.6195 100.373 34.02C100.373 33.4743 100.204 32.9297 99.8669 32.3846C99.5291 31.84 98.7866 31.0061 97.6373 29.883C95.4496 27.7466 94.0361 26.0979 93.398 24.9374C92.76 23.7764 92.4406 22.6179 92.4406 21.4625C92.4406 19.7948 92.9716 18.3641 94.0327 17.1707C95.095 15.9774 96.4045 15.3805 97.9627 15.3805C98.9656 15.3805 99.9196 15.6584 100.826 16.2143C101.733 16.7702 102.715 17.7841 103.772 19.2553Z" fill="#1174B0"/>
<path d="M106.93 15.9856H117.893V20.4651H110.725V24.8144H117.893V29.2128H110.725V35.5405H117.893V40.0364H106.93V15.9856Z" fill="#1174B0"/>
<path d="M121.469 15.9856H132.432V20.4651H125.265V24.8144H132.432V29.2128H125.265V35.5405H132.432V40.0364H121.469V15.9856Z" fill="#1174B0"/>
<path d="M139.453 23.7353H136.081C136.171 21.141 136.786 19.1 137.927 17.6123C139.068 16.1241 140.531 15.3805 142.318 15.3805C143.421 15.3805 144.395 15.6887 145.238 16.3046C146.082 16.92 146.758 17.8082 147.264 18.9692C147.771 20.1302 148.023 21.3097 148.023 22.5087C148.023 23.9374 147.716 25.4743 147.103 27.12C146.489 28.7661 145.367 30.7112 143.736 32.9564L141.697 35.8015H148.171V40.0364H135.587V37.8456L141.206 30.2595C142.565 28.4389 143.468 26.9754 143.917 25.8692C144.366 24.763 144.59 23.763 144.59 22.8692C144.59 21.9425 144.358 21.1769 143.893 20.5718C143.427 19.9666 142.828 19.6646 142.095 19.6646C141.354 19.6646 140.737 20.0292 140.243 20.7595C139.749 21.4902 139.485 22.482 139.453 23.7353Z" fill="#F37548"/>
<path d="M157.656 30.8641V22.8036L153.507 30.8641H157.656ZM157.594 15.3805H161.04V30.8641H162.659V35.0984H161.04V40.0364H157.656V35.0984H149.728V30.8641L157.594 15.3805Z" fill="#F37548"/>
<path d="M25.0062 12.3051C24.0089 11.919 22.7277 12.0641 21.1686 12.381C24.8323 10.6754 26.1662 12.5231 27.4774 12.5061C28.5132 12.4702 30.8962 11.4605 33.1528 13.1169C32.045 12.6579 31.607 12.5918 30.3973 12.5892C29.9896 12.5892 28.6151 12.7805 27.7998 13.341C27.4911 13.5554 27.0611 13.9184 27.0586 14.2882C26.4167 14.3113 26.5019 13.7672 26.4745 13.5359C26.4086 13.0077 25.5325 12.5061 25.0062 12.3051ZM24.2487 7.12511C25.2237 6.77896 26.9044 5.55793 29.0202 5.14562C25.9786 2.27485 22.1381 0.562546 17.9644 0.562546C9.79849 0.562546 2.90866 7.12152 0.768066 16.0759C2.94164 16.0631 4.44035 12.4964 6.90339 11.6318C15.3887 8.65947 22.9427 20.9133 35.5906 18.3133C34.8605 13.2456 32.6428 8.78511 29.4912 5.60716C29.1962 5.68665 28.8712 5.78562 28.4939 5.90408C27.9073 6.08921 25.9812 6.99639 24.9839 8.1846C24.6067 8.63639 24.1027 9.35537 24.2153 9.89332C23.2955 10.22 23.2458 9.39485 23.1298 9.07485C22.8656 8.33947 21.4358 8.01896 20.6119 7.96973C19.0473 7.87383 17.2428 8.6728 15.0911 9.84716C19.8378 5.69639 22.3612 7.75537 24.2487 7.12511Z" fill="#FEBE41"/>
<path d="M0.712891 27.36C1.98851 32.9298 5.03262 38.2877 8.50109 42.3821C12.5648 47.1826 17.9644 53.4374 17.9644 53.4374C17.9644 53.4374 22.5158 47.7964 26.6262 42.7251L26.6176 42.7154C15.8846 37.7169 16.8185 33.3416 12.6114 30.2005C10.9753 29.2144 9.69706 33.3682 9.03035 33.1867C6.88119 33.2626 8.34393 27.2974 4.90074 26.258C3.90901 25.8651 2.08486 26.4 0.712891 27.36Z" fill="#1174B0"/>
<path d="M0.341309 25.341C4.45722 23.2554 7.68331 23.9682 11.7851 27.0036C18.3311 31.8538 17.2511 35.8364 28.7583 40.0097L28.7724 40.0266C30.3675 37.819 31.993 35.0508 33.2823 32.1374C17.926 29.5836 19.3917 20.6723 13.0551 20.0025C11.0691 20.2661 12.4107 25.6179 10.4821 24.222C8.79322 21.6749 2.57269 19.3456 0.341309 25.341Z" fill="#1174B0"/>
<path d="M3.20898 18.6395C7.10736 20.3092 8.7354 18.4251 11.8073 18.201C17.9234 17.7492 19.2457 23.1267 23.8134 25.9282C26.1137 27.3369 29.4584 28.7523 34.5052 29.0262C35.3372 26.5944 35.8523 24.1697 35.8523 21.979C35.8523 21.7349 35.8498 21.4872 35.8416 21.2462C29.4969 22.5297 25.1108 19.9728 20.6643 17.561C15.9644 15.0241 8.35515 9.92308 8.13506 14.3277C9.67788 19.2569 5.48746 15.9113 3.20898 18.6395Z" fill="#F37548"/>
</svg>
