<svg width="165" height="34" viewBox="0 0 165 34" fill="none" xmlns="http://www.w3.org/2000/svg">
<path d="M1.74244 0.597954V18.3325C2.42538 16.5837 3.42694 15.1862 4.74613 14.1422C6.06531 13.0983 7.52555 12.5757 9.12887 12.5757C11.4141 12.5757 13.3635 13.5917 14.9779 15.6237C16.5914 17.6556 17.3991 20.1105 17.3991 22.9883C17.3991 25.866 16.5508 28.3209 14.8541 30.3528C13.1108 32.3848 11.06 33.4008 8.7047 33.4008C6.30175 33.4008 4.25194 32.3848 2.55527 30.3528C0.858592 28.378 0.0102539 25.9232 0.0102539 22.9883V0.597954H1.74244ZM8.7047 31.3263C10.6135 31.3263 12.2503 30.5157 13.6171 28.8921C14.983 27.2697 15.667 25.3022 15.667 22.9883C15.667 20.6756 14.9891 18.7068 13.6344 17.0844C12.2787 15.462 10.6358 14.6502 8.7047 14.6502C6.7726 14.6502 5.12869 15.462 3.77501 17.0844C2.4203 18.7068 1.74244 20.6756 1.74244 22.9883C1.74244 25.3022 2.41929 27.2709 3.77501 28.8921C5.12869 30.5157 6.7726 31.3263 8.7047 31.3263Z" fill="#56575B"/>
<path d="M33.0364 32.194C31.705 32.9985 30.2742 33.4008 28.743 33.4008C26.1979 33.4008 24.0426 32.3848 22.2759 30.3528C20.4849 28.3501 19.5898 25.8952 19.5898 22.9883C19.5898 20.1384 20.3793 17.6981 21.9573 15.6662C23.5596 13.6063 25.4917 12.577 27.7536 12.577C30.0388 12.577 31.9821 13.6075 33.5844 15.6662C35.1623 17.6981 35.9528 20.1384 35.9528 22.9883C35.9528 23.4403 35.9406 23.7782 35.9173 24.0042H21.3565C21.592 26.0921 22.4109 27.8348 23.8123 29.2311C25.2136 30.6275 26.8575 31.3263 28.7419 31.3263C29.9901 31.3263 31.1632 30.9945 32.2581 30.3322M27.7526 14.6502C26.1269 14.6502 24.7012 15.349 23.4764 16.7454C22.2505 18.1417 21.5443 19.8844 21.3555 21.9723H34.1841C33.9953 19.8844 33.2881 18.1417 32.0633 16.7454C30.8395 15.349 29.4015 14.6502 27.7526 14.6502Z" fill="#56575B"/>
<path d="M44.1156 33.3995C42.9841 33.3995 41.9247 33.1455 40.9353 32.6376C39.9693 32.1575 39.0499 31.3968 38.1782 30.3516L39.4152 28.8702C40.7344 30.5072 42.3012 31.3251 44.1156 31.3251C45.4114 31.3251 46.4952 30.8742 47.3669 29.97C48.1442 29.123 48.5328 28.1362 48.5328 27.0072C48.5328 25.7092 48.1442 24.7929 47.3669 24.2558C46.7773 23.8329 45.729 23.4804 44.2211 23.1973C42.5011 22.8582 41.3108 22.4499 40.6522 21.9698C39.3797 21.1228 38.7434 19.741 38.7434 17.8221C38.7434 16.2422 39.2731 14.9443 40.3336 13.9283C41.2996 13.0254 42.5599 12.5733 44.1146 12.5733C45.9289 12.5733 47.5657 13.2368 49.027 14.5627L48.0021 16.2131C46.8006 15.1691 45.5048 14.6466 44.1146 14.6466C42.9598 14.6466 42.0526 14.9577 41.393 15.5775C40.7801 16.1426 40.4736 16.89 40.4736 17.8209C40.4736 18.9778 40.8146 19.7677 41.4985 20.1907C42.3235 20.6987 43.3474 21.0657 44.5732 21.2905C46.482 21.6575 47.7068 22.0391 48.2487 22.4329C49.5912 23.3929 50.263 24.9157 50.263 27.0035C50.263 28.7815 49.6734 30.2909 48.4963 31.5317C47.3202 32.7797 45.8589 33.3995 44.1156 33.3995Z" fill="#56575B"/>
<path d="M56.7685 25.6121C56.7685 27.1931 57.2333 28.5397 58.1649 29.6541C59.0954 30.7697 60.2197 31.3263 61.5399 31.3263V33.4008C59.7489 33.4008 58.2176 32.6388 56.9451 31.1149C55.6726 29.5909 55.0364 27.757 55.0364 25.6121V15.2846H51.502V13.2114H55.0364V7.58219L56.7675 6.52367V13.2114H61.7155V15.2846H56.7675V25.6121H56.7685Z" fill="#56575B"/>
<path d="M66.269 13.2113H71.0343V15.2846H66.269V32.7652H64.5399V15.2846H61.7158V13.2113H64.5399V8.38668C64.5399 6.24293 65.1751 4.40785 66.4456 2.88389C67.7161 1.35993 69.2453 0.597954 71.0343 0.597954V2.67122C69.7162 2.67122 68.5928 3.22903 67.6633 4.34345C66.7338 5.45786 66.269 6.8056 66.269 8.38546V13.2113Z" fill="#56575B"/>
<path d="M84.1569 32.194C82.8275 32.9985 81.3978 33.4008 79.8685 33.4008C77.3276 33.4008 75.1742 32.3848 73.4096 30.3528C71.6206 28.3501 70.7266 25.8952 70.7266 22.9883C70.7266 20.1384 71.515 17.6981 73.092 15.6662C74.6922 13.6063 76.6213 12.577 78.8812 12.577C81.1633 12.577 83.1046 13.6075 84.7049 15.6662C86.2808 17.6981 87.0703 20.1384 87.0703 22.9883C87.0703 23.4403 87.0581 23.7782 87.0347 24.0042H72.4912C72.7267 26.0921 73.5435 27.8348 74.9449 29.2311C76.3443 30.6275 77.9861 31.3263 79.8685 31.3263C81.1157 31.3263 82.2867 30.9945 83.3806 30.3322M78.8801 14.6502C77.2565 14.6502 75.8328 15.349 74.609 16.7454C73.3852 18.1417 72.679 19.8844 72.4912 21.9723H85.3046C85.1158 19.8844 84.4096 18.1417 83.1868 16.7454C81.962 15.349 80.5271 14.6502 78.8801 14.6502Z" fill="#56575B"/>
<path d="M109.824 13.2113H111.625L107.141 32.6388C107.024 33.1468 106.765 33.4008 106.365 33.4008H106.295C105.894 33.4008 105.624 33.1747 105.483 32.7238L100.295 16.4707L95.1053 32.7226C94.9643 33.1735 94.6822 33.3995 94.258 33.3995C93.8572 33.3995 93.5994 33.1455 93.4817 32.6376L88.9985 13.2101H90.7987L94.4346 29.0391L99.5175 13.2101C99.6352 12.7592 99.894 12.5332 100.294 12.5332C100.717 12.5332 100.988 12.7592 101.106 13.2101L106.189 29.0391L109.824 13.2113Z" fill="#56575B"/>
<path d="M121.961 33.3995C119.561 33.3995 117.513 32.3836 115.818 30.3516C114.124 28.3197 113.277 25.8648 113.277 22.987C113.277 20.0533 114.125 17.5985 115.818 15.6224C117.513 13.5905 119.56 12.5745 121.961 12.5745C124.314 12.5745 126.361 13.5905 128.102 15.6224C129.797 17.6544 130.644 20.1093 130.644 22.987C130.644 25.8369 129.784 28.2917 128.067 30.3516C126.373 32.3848 124.337 33.3995 121.961 33.3995ZM121.961 14.6502C120.031 14.6502 118.39 15.462 117.037 17.0844C115.683 18.7068 115.008 20.6756 115.008 22.9882C115.008 25.3021 115.683 27.2709 117.037 28.8921C118.39 30.5145 120.032 31.3263 121.961 31.3263C123.866 31.3263 125.502 30.5157 126.867 28.8921C128.232 27.2697 128.915 25.3021 128.915 22.9882C128.915 20.6756 128.232 18.7068 126.867 17.0844C125.502 15.462 123.866 14.6502 121.961 14.6502Z" fill="#56575B"/>
<path fill-rule="evenodd" clip-rule="evenodd" d="M160.65 2.87535C156.194 0.497047 150.029 5.24514 146.882 13.4774C143.736 21.7134 144.785 30.3625 149.259 32.6947C153.715 35.0171 159.88 30.2811 163.029 22.0913C166.192 13.8663 165.11 5.25365 160.65 2.87535Z" fill="#AAC89B"/>
<path fill-rule="evenodd" clip-rule="evenodd" d="M138.915 1.86669C143.422 -1.60779 150.766 2.32971 155.32 10.6605C159.873 18.9936 159.925 28.5907 155.404 32.0396C150.899 35.4777 143.556 31.5645 139.002 23.2459C134.444 14.9176 134.412 5.34118 138.915 1.86669Z" fill="#9DE9E5"/>
<path fill-rule="evenodd" clip-rule="evenodd" d="M151.737 5.57207C153.358 7.22242 154.86 9.30541 156.104 11.7396C160.329 20.0205 159.947 29.2202 155.249 32.2876C154.793 32.5865 154.312 32.8126 153.811 32.9766C153.108 33.1735 152.413 33.278 151.738 33.2853C151.065 33.2792 150.369 33.1735 149.667 32.9766C149.166 32.8126 148.684 32.5865 148.226 32.2876C143.531 29.2202 143.149 20.0205 147.374 11.7396C148.613 9.30663 150.116 7.22242 151.737 5.57207Z" fill="#214E3C"/>
<path fill-rule="evenodd" clip-rule="evenodd" d="M160.774 2.86084C156.295 0.471598 150.1 5.24278 146.938 13.5164C143.777 21.7925 144.829 30.4853 149.327 32.8284C153.805 35.1617 160.001 30.4027 163.165 22.1728C166.344 13.9053 165.257 5.25008 160.774 2.86084Z" fill="#B1A89C"/>
<path fill-rule="evenodd" clip-rule="evenodd" d="M138.933 1.84727C143.462 -1.64422 150.842 2.31273 155.418 10.6848C159.994 19.0593 160.047 28.7037 155.504 32.1697C150.976 35.6247 143.597 31.6921 139.021 23.3322C134.439 14.9613 134.406 5.33877 138.933 1.84727Z" fill="#00B875"/>
<path fill-rule="evenodd" clip-rule="evenodd" d="M151.817 5.57085C153.446 7.22971 154.956 9.32242 156.206 11.7688C160.452 20.091 160.067 29.3356 155.346 32.4176C154.889 32.7178 154.405 32.945 153.901 33.1103C153.196 33.3084 152.497 33.4141 151.818 33.4202C151.142 33.4141 150.442 33.3084 149.737 33.1103C149.232 32.945 148.748 32.7178 148.289 32.4176C143.57 29.3344 143.186 20.0898 147.432 11.7688C148.678 9.32242 150.188 7.22971 151.817 5.57085Z" fill="#214E3C"/>
</svg>
