<svg width="167" height="48" viewBox="0 0 167 48" fill="none" xmlns="http://www.w3.org/2000/svg">
<path d="M22.978 11.432C22.1251 11.1018 21.0293 11.2259 19.6959 11.4969C22.8293 10.0382 23.9701 11.6184 25.0915 11.6039C25.9774 11.5732 28.0155 10.7097 29.9455 12.1263C28.9981 11.7338 28.6234 11.6772 27.5888 11.675C27.2402 11.675 26.0646 11.8386 25.3673 12.318C25.1032 12.5013 24.7355 12.8118 24.7334 13.1281C24.1844 13.1478 24.2573 12.6825 24.2338 12.4847C24.1774 12.0329 23.4281 11.6039 22.978 11.432ZM22.3302 7.00176C23.1641 6.7057 24.6015 5.66141 26.411 5.30877C23.8097 2.85351 20.525 1.38904 16.9554 1.38904C9.97143 1.38904 4.07882 6.99869 2.24805 14.657C4.10702 14.6461 5.38882 11.5956 7.49536 10.8561C14.7525 8.31404 21.2132 18.7943 32.0304 16.5706C31.406 12.2364 29.5093 8.42149 26.8139 5.70351C26.5616 5.77149 26.2836 5.85614 25.9609 5.95746C25.4592 6.11579 23.8119 6.89167 22.959 7.9079C22.6363 8.2943 22.2053 8.90921 22.3016 9.3693C21.5149 9.64869 21.4725 8.94299 21.3732 8.6693C21.1472 8.04035 19.9244 7.76623 19.2198 7.72413C17.8816 7.64211 16.3383 8.32544 14.498 9.32983C18.5576 5.77983 20.7158 7.54079 22.3302 7.00176Z" fill="#FEBE41"/>
<path d="M2.20068 24.3079C3.29168 29.0715 5.89519 33.654 8.86164 37.1557C12.3371 41.2614 16.9553 46.611 16.9553 46.611C16.9553 46.611 20.8479 41.7864 24.3633 37.4492L24.356 37.4408C15.1765 33.1658 15.9753 29.4237 12.3771 26.7373C10.9777 25.8939 9.88451 29.4465 9.3143 29.2913C7.4762 29.3562 8.72723 24.2544 5.78239 23.3654C4.93421 23.0294 3.37408 23.4869 2.20068 24.3079Z" fill="#1174B0"/>
<path d="M1.88281 22.5812C5.403 20.7974 8.16216 21.407 11.6703 24.0031C17.2688 28.1513 16.3452 31.5575 26.1868 35.1268L26.1989 35.1413C27.5631 33.2531 28.9533 30.8856 30.056 28.3939C16.9223 26.2097 18.1759 18.5882 12.7565 18.0154C11.0579 18.2408 12.2053 22.818 10.5558 21.6242C9.11142 19.4456 3.79123 17.4535 1.88281 22.5812Z" fill="#1174B0"/>
<path d="M4.33545 16.8496C7.66959 18.2776 9.06199 16.6662 11.6893 16.4746C16.9201 16.0882 18.0511 20.6873 21.9576 23.0833C23.925 24.2882 26.7856 25.4987 31.102 25.7329C31.8135 23.6531 32.2541 21.5794 32.2541 19.7057C32.2541 19.4969 32.2519 19.2851 32.245 19.0789C26.8186 20.1768 23.0673 17.9899 19.2644 15.9272C15.2447 13.7575 8.73678 9.39474 8.54854 13.1618C9.86806 17.3776 6.28415 14.5162 4.33545 16.8496Z" fill="#F37548"/>
<path d="M39.2803 14.2412H42.2559L49.2296 27.0851V14.2412H52.3319V33.7592H49.3471L42.3826 20.9552V33.7592H39.2803V14.2412Z" fill="#1174B0"/>
<path d="M63.7157 17.386C62.2072 17.386 60.9394 18.014 59.9117 19.2702C58.8837 20.5259 58.3699 22.1228 58.3699 24.0601C58.3699 26.2184 59.017 27.9254 60.3109 29.1816C61.3166 30.1636 62.4698 30.6544 63.771 30.6544C65.2425 30.6544 66.4958 30.0175 67.5307 28.7439C68.5664 27.4702 69.0839 25.9 69.0839 24.0333C69.0839 22.1759 68.5624 20.6035 67.5197 19.3162C66.4775 18.0294 65.2092 17.386 63.7157 17.386ZM63.7491 13.75C66.0548 13.75 68.0376 14.75 69.697 16.7491C71.3563 18.7482 72.1859 21.1851 72.1859 24.0601C72.1859 26.9083 71.3673 29.3189 69.7299 31.2912C68.0929 33.264 66.1065 34.2504 63.771 34.2504C61.3246 34.2504 59.2921 33.2377 57.6737 31.2118C56.055 29.186 55.2456 26.7803 55.2456 23.9939C55.2456 22.1272 55.6225 20.411 56.3765 18.8452C57.1302 17.2798 58.167 16.039 59.4862 15.1237C60.8053 14.2079 62.2263 13.75 63.7491 13.75Z" fill="#1174B0"/>
<path d="M78.4241 21.8706H79.3961C80.3827 21.8706 81.0617 21.7153 81.4338 21.4044C81.8055 21.0943 81.9915 20.5794 81.9915 19.8605C81.9915 19.4346 81.8992 19.0645 81.7154 18.7491C81.5312 18.4342 81.2843 18.2074 80.9752 18.0702C80.6661 17.932 80.0992 17.8636 79.2741 17.8636H78.4241V21.8706ZM75.3218 14.2412H78.6087C80.4087 14.2412 81.6905 14.4333 82.4541 14.8184C83.2177 15.2031 83.8322 15.8421 84.2969 16.7355C84.7613 17.6289 84.9939 18.6859 84.9939 19.907C84.9939 21.1895 84.7375 22.2623 84.224 23.1245C83.7106 23.9868 82.9368 24.6395 81.9033 25.0816L85.764 33.7592H82.3728L78.7079 25.493H78.4241V33.7592H75.3218V14.2412Z" fill="#1174B0"/>
<path d="M91.365 17.8237V30.1368H92.805C94.2234 30.1368 95.2518 29.9425 95.8905 29.5526C96.5296 29.1627 97.0522 28.5079 97.4583 27.5868C97.8648 26.6658 98.0681 25.5324 98.0681 24.1859C98.0681 22.1145 97.5839 20.5066 96.6164 19.3645C95.7451 18.3373 94.3454 17.8237 92.4176 17.8237H91.365ZM88.2847 14.2412H91.9598C94.3293 14.2412 96.089 14.593 97.24 15.296C98.3915 15.9991 99.3396 17.1425 100.085 18.7259C100.831 20.3092 101.203 22.1583 101.203 24.2724C101.203 25.7759 100.995 27.1583 100.578 28.4188C100.161 29.6794 99.5854 30.7254 98.8507 31.557C98.1164 32.3881 97.321 32.9631 96.4651 33.2816C95.6092 33.6 94.126 33.7592 92.0154 33.7592H88.2847V14.2412Z" fill="#1174B0"/>
<path d="M112.714 16.8947L110.417 19.3232C109.61 17.9785 108.789 17.3061 107.953 17.3061C107.546 17.3061 107.213 17.4368 106.954 17.6978C106.695 17.9588 106.565 18.2526 106.565 18.5798C106.565 18.9075 106.658 19.2171 106.843 19.5088C107.094 19.8982 107.853 20.7338 109.118 22.0167C110.302 23.2018 111.019 23.9496 111.271 24.2592C111.9 25.0197 112.345 25.7474 112.608 26.4417C112.871 27.136 113.002 27.8947 113.002 28.7171C113.002 30.3184 112.54 31.6408 111.616 32.6847C110.692 33.7285 109.487 34.2504 108 34.2504C106.84 34.2504 105.828 33.9097 104.967 33.2285C104.105 32.5474 103.368 31.4772 102.754 30.0175L105.362 28.1333C106.146 29.8583 107.048 30.7211 108.069 30.7211C108.601 30.7211 109.049 30.5351 109.412 30.1636C109.774 29.7921 109.956 29.3632 109.956 28.8763C109.956 28.4342 109.818 27.9921 109.545 27.5496C109.271 27.1075 108.668 26.4307 107.736 25.5197C105.96 23.786 104.814 22.4478 104.295 21.5057C103.778 20.5636 103.519 19.6237 103.519 18.686C103.519 17.3329 103.949 16.1719 104.811 15.2031C105.672 14.2346 106.735 13.75 108 13.75C108.814 13.75 109.588 13.9759 110.324 14.4268C111.06 14.8781 111.857 15.7009 112.714 16.8947Z" fill="#1174B0"/>
<path d="M115.972 14.2412H124.869V17.8767H119.052V21.4061H124.869V24.9754H119.052V30.1105H124.869V33.7592H115.972V14.2412Z" fill="#1174B0"/>
<path d="M127.771 14.2412H136.668V17.8767H130.851V21.4061H136.668V24.9754H130.851V30.1105H136.668V33.7592H127.771V14.2412Z" fill="#1174B0"/>
<path d="M144.299 20.5307H141.274C141.355 18.425 141.908 16.7689 142.931 15.5614C143.954 14.3539 145.266 13.75 146.869 13.75C147.859 13.75 148.732 14 149.49 14.5C150.247 14.9996 150.853 15.7206 151.307 16.6627C151.761 17.6048 151.988 18.5623 151.988 19.5355C151.988 20.6943 151.712 21.9412 151.162 23.2772C150.612 24.6127 149.604 26.1917 148.142 28.014L146.313 30.3228H152.121V33.7592H140.831V31.9816L145.872 25.8246C147.091 24.3474 147.901 23.1601 148.304 22.2623C148.707 21.364 148.908 20.5526 148.908 19.8272C148.908 19.0754 148.699 18.4539 148.282 17.9632C147.865 17.4719 147.327 17.2268 146.67 17.2268C146.005 17.2268 145.451 17.5228 145.008 18.1158C144.565 18.7083 144.329 19.5132 144.299 20.5307Z" fill="#F37548"/>
<path d="M160.63 26.3158V19.7741L156.908 26.3158H160.63ZM160.574 13.75H163.666V26.3158H165.117V29.7522H163.666V33.7592H160.63V29.7522H153.517V26.3158L160.574 13.75Z" fill="#F37548"/>
</svg>
