<svg width="167" height="56" viewBox="0 0 167 56" fill="none" xmlns="http://www.w3.org/2000/svg">
<path d="M64.3766 44.2143H65.222C64.7631 44.288 64.3177 44.2516 63.8647 44.3427C63.8274 44.3427 63.8096 44.3079 63.7363 44.2872L64.158 44.2317C63.8012 44.2422 63.4452 44.2787 63.0939 44.3423C62.068 44.4901 61.9074 44.1232 62.1028 43.6821C62.5799 42.6557 62.1401 42.8214 63.716 42.6379C63.8927 42.6155 64.0698 42.6032 64.2478 42.6006C64.2677 42.6006 64.3033 42.6176 64.3406 42.6006C64.616 42.5633 64.908 42.5634 65.2008 42.3998H64.9622C65.1656 42.2515 65.4029 42.2896 65.6224 42.2515C65.7881 42.2349 65.9534 42.2349 66.0992 42.1782C66.3479 42.0998 66.6102 42.0752 66.8691 42.1053C66.8806 42.1142 66.8861 42.1282 66.889 42.1409C66.8517 42.1409 66.7962 42.1604 66.7589 42.1604C66.7589 42.251 66.742 42.3438 66.8517 42.3438C66.8144 42.2888 66.8144 42.2337 66.9072 42.2155L67.2556 42.1604L66.8517 42.3438C67.0526 42.3811 67.2179 42.2879 67.3827 42.1604C67.4632 42.0896 67.57 42.0561 67.6764 42.0676C67.8598 42.1049 67.8954 42.0676 67.9323 41.8663H67.7658L68.1319 41.6404C68.0967 41.5302 68.0789 41.512 68.1518 41.4018C68.2251 41.2735 68.2421 41.1459 68.1688 41.0362C68.1132 40.9624 68.095 40.8353 67.9679 40.8103C67.9306 40.8103 67.9124 40.7751 67.8929 40.7366L67.7793 40.6082C67.742 40.5709 67.5039 40.6438 67.4857 40.6984C67.517 40.7323 67.5412 40.7696 67.5594 40.809C67.4869 40.9196 67.3602 40.9832 67.2285 40.9747L66.3132 41.012L65.5979 41.0289C65.5224 41.02 65.4495 41.001 65.3716 40.9734C65.2432 40.9904 65.0983 41.0472 65.0059 41.0472C64.6953 41.0671 64.3631 41.1226 64.0724 41.0472C63.9423 41.012 63.7787 41.0472 63.6317 41.0472L61.7977 41.14C61.7527 41.1383 61.7087 41.1256 61.6693 41.1027C61.6523 41.0675 61.6892 41.012 61.707 40.9332C61.5786 41.0069 61.5409 40.9332 61.4807 40.8959C61.4057 40.8251 61.2913 40.8162 61.2074 40.8789V41.0069C61.2074 41.1904 61.1697 41.226 60.9688 41.226C60.7302 41.226 60.5103 41.209 60.2891 41.1908C60.1709 41.1777 60.0539 41.1531 59.9408 41.1179C60.0332 41.0806 60.0709 41.0425 60.1065 41.0425L60.6561 41.0078C60.7544 41.0103 60.8527 41.0035 60.9497 40.9878C60.9625 40.9539 60.9697 40.9175 60.9697 40.8806L59.7954 40.8056C59.612 40.8056 59.4848 40.77 59.3912 40.6361C59.3912 40.6162 59.3742 40.6162 59.3564 40.6162C59.2636 40.6361 59.1708 40.6717 59.1708 40.7819C59.1357 41.0573 59.0013 41.3514 59.0971 41.6069C59.117 41.6336 59.117 41.6705 59.0971 41.6997C59.0624 41.8455 59.1348 41.9557 59.1899 42.0455L59.2806 42.2311C59.3369 42.3443 59.3937 42.446 59.4662 42.5417C59.5192 42.615 59.5946 42.7252 59.6848 42.7426C60.7107 43.0909 60.2158 43.4948 59.6848 44.7597C59.662 44.8228 59.6242 44.8796 59.5747 44.9253C59.4615 45.091 59.3556 45.091 59.2458 44.9609C59.0429 44.9982 58.8594 45.0164 58.6581 45.0364C58.3644 45.072 58.3475 45.072 58.2543 44.833C58.2259 44.7618 58.189 44.6948 58.1441 44.6325L58.0534 44.7058C58.0292 44.7652 57.9983 44.8207 57.9606 44.8715C57.8148 45.1821 57.7775 45.1821 57.5568 44.9817H57.522C57.4868 45.0275 57.4559 45.0766 57.4292 45.1279C57.3555 45.4033 57.3385 45.6775 57.4292 45.9356C57.4487 46.0093 57.4843 46.064 57.4292 46.1542C57.4123 46.2097 57.4123 46.2843 57.4843 46.2843C57.5771 46.3013 57.5949 46.358 57.6326 46.4127C57.6496 46.4682 57.7458 46.4682 57.7784 46.503C57.8051 46.5186 57.8182 46.547 57.8161 46.5767C57.8725 46.7462 57.9085 46.9051 57.9441 47.0742C57.9996 47.5259 57.6881 49.0539 57.6131 49.5307C57.5936 49.6671 57.5568 49.8023 57.5229 49.9345C57.5029 50.0248 57.4474 50.1002 57.4301 50.1904L57.2606 50.979C57.2339 51.0977 57.1974 51.2146 57.1504 51.3274C57.022 51.5833 57.0576 51.8041 57.2606 51.9499C57.3457 52.0045 57.4377 52.0473 57.5343 52.0782L57.8831 52.2266L58.214 52.355C58.3721 52.3855 58.5352 52.38 58.6907 52.3376C58.8767 52.2838 59.0666 52.2405 59.2581 52.2092C59.2797 52.1562 59.2924 52.1003 59.2954 52.0435L59.534 50.9968C59.5781 50.8028 59.6395 50.6133 59.7171 50.4294C59.9556 49.8985 60.5052 48.3018 60.7434 47.7704C61.368 46.2674 61.0743 46.4504 62.5515 45.9059L63.1939 45.68L63.3422 45.6427C63.5808 45.5898 63.8368 45.569 64.0575 45.4732C64.3914 45.3499 64.7347 45.252 65.0834 45.1796C65.1572 45.1423 65.2292 45.1423 65.2843 45.0512C65.35 44.9808 65.4233 44.9186 65.5101 44.8656C65.6932 44.7529 65.9314 44.6825 65.9869 44.4444C65.9869 44.4274 66.0038 44.4096 66.0242 44.3889C66.1148 44.3541 66.0979 44.2757 66.0979 44.2058C65.7491 44.0922 64.7779 44.06 64.3542 44.1884L64.3766 44.2143ZM64.9466 42.4066C64.9334 42.4371 64.9067 42.4595 64.8728 42.4655C64.8389 42.4722 64.8067 42.4633 64.78 42.4413C64.8364 42.4354 64.8919 42.4239 64.9457 42.4066H64.9466ZM64.4694 42.4794L64.5622 42.4422C64.5622 42.4621 64.5792 42.4621 64.5792 42.4794L64.469 42.5172L64.4694 42.4794ZM71.7863 47.2085C71.7228 47.2865 71.6473 47.3547 71.5605 47.4119L71.4872 47.5022C71.4499 47.5395 71.3215 47.4856 71.2863 47.5221C71.2664 47.5395 71.2863 47.4666 71.1935 47.4119C71.2024 47.2462 71.2024 47.081 71.1935 46.9144C71.1935 46.6759 71.2104 46.4203 71.1765 46.1818L71.0464 45.4292V45.3559C70.9333 45.1173 70.8079 44.952 70.5947 44.952C70.4846 44.952 70.3689 44.9719 70.246 44.9719C70.1201 44.9961 70.0121 45.0779 69.9523 45.1906C69.8688 45.3512 69.7693 45.5067 69.6587 45.6499C69.5663 45.8279 69.462 45.9991 69.3476 46.164C69.2192 46.3826 68.5777 47.6895 68.5048 47.9607C68.4315 48.2713 67.5865 49.1349 67.8624 48.2543C68.0628 47.5568 68.5048 46.9517 68.7438 46.1818C68.834 45.7978 68.8722 46.0716 68.9624 45.705C69.0726 45.3563 69.0379 45.1372 68.8722 44.8444C68.6887 44.6185 68.5061 44.4579 68.3777 44.2202C68.2764 44.1228 68.148 44.0588 68.0094 44.0367C67.8594 43.9973 67.7069 43.9727 67.5573 43.9634C67.3721 43.9261 67.2992 43.9634 67.2263 44.202C67.0806 44.4957 66.9704 44.7897 66.8424 45.1173C66.8051 45.2457 66.7322 45.3432 66.714 45.4656C66.456 46.1809 66.5284 46.0703 66.4004 46.7856C66.2547 47.2797 66.3271 47.2449 66.2314 47.7763L66.1559 49.2056C66.1479 49.5247 66.1661 49.8438 66.2114 50.1595C66.2848 50.5256 66.4373 50.7998 66.72 50.8748C66.7556 50.9104 66.7933 50.9481 66.8301 50.9104C67.1238 50.9854 67.3797 51.0032 67.5984 50.6917C67.6357 50.654 67.6912 50.6362 67.6912 50.5989C67.8014 50.5061 68.2607 49.6269 68.2959 49.5171L68.4616 49.0959C68.59 48.6921 68.7925 48.3433 68.9557 47.9585L69.2866 47.2246C69.3976 46.8945 69.5387 46.5754 69.7082 46.2712C69.7252 46.2157 69.7816 46.161 69.7638 46.0881C69.7769 45.9724 69.8142 45.8597 69.8739 45.7597L70.1299 45.3004L70.2036 45.2076C70.2036 45.1728 70.2409 45.191 70.2591 45.191C70.2812 45.2571 70.2748 45.33 70.2413 45.3915L70.1862 45.7224L70.1307 46.1818C70.0663 46.5292 70.0854 46.8873 70.1862 47.2263C70.2765 47.4822 70.4422 47.6856 70.663 47.7344C70.7914 47.7899 70.9189 47.8081 71.0469 47.8801C71.0888 47.9179 71.1532 47.9179 71.1952 47.8801C71.2414 47.8429 71.299 47.8238 71.3609 47.8073C71.4384 47.809 71.5109 47.7734 71.5617 47.7145L71.6172 47.6789C71.6172 47.6594 71.6528 47.6416 71.6723 47.6238L71.7278 47.5683C71.7821 47.5441 71.8228 47.4971 71.838 47.4399L71.8914 47.3475C71.9397 47.3149 71.9681 47.2598 71.9664 47.2013C71.8931 47.1106 71.838 47.1106 71.7833 47.2013L71.7863 47.2085ZM80.3673 44.4766C80.4465 44.5329 80.5503 44.5185 80.6232 44.4596C80.6605 44.4245 80.7139 44.3863 80.7516 44.4041C80.855 44.3817 80.9508 44.3317 81.0271 44.2584L81.2105 44.0321C81.2347 44.0079 81.2478 43.9749 81.2461 43.9393C81.2686 43.8804 81.2995 43.8249 81.3389 43.7757C81.3762 43.738 81.394 43.6829 81.4491 43.6274C81.3847 43.5058 81.2813 43.4092 81.1554 43.3536C81.0737 43.3363 80.9936 43.3113 80.9169 43.2782C80.8999 43.2617 80.8796 43.2782 80.8431 43.2981C80.8071 43.3181 80.7698 43.3155 80.7698 43.2782C80.7414 43.2617 80.7058 43.2617 80.677 43.2782C80.6397 43.2782 80.6033 43.3159 80.5669 43.3536L80.4563 43.5231C80.4007 43.6333 80.3105 43.7265 80.3105 43.8367C80.3105 43.8532 80.255 43.8922 80.255 43.927C80.1986 44.0024 80.1622 44.0833 80.1266 44.1656C80.1024 44.2253 80.0825 44.2872 80.0711 44.3486L80.016 44.424C80.0817 44.4389 80.149 44.4448 80.2164 44.4414C80.2698 44.4346 80.3207 44.4486 80.3647 44.477L80.3673 44.4766ZM99.4712 44.4766C99.5509 44.5329 99.6547 44.5185 99.7272 44.4596C99.7645 44.4245 99.82 44.3863 99.8556 44.4041C99.959 44.3817 100.055 44.3317 100.131 44.2584L100.314 44.0321C100.339 44.0075 100.352 43.974 100.352 43.9393C100.369 43.8804 100.408 43.8249 100.442 43.7702C100.479 43.7329 100.498 43.6778 100.552 43.6223C100.488 43.5007 100.384 43.4036 100.259 43.3486C100.177 43.3312 100.097 43.3062 100.02 43.2736C100.003 43.2566 99.9852 43.2736 99.9467 43.2935C99.9081 43.313 99.8729 43.3104 99.8729 43.2736C99.8446 43.2566 99.809 43.2566 99.7801 43.2736C99.7454 43.2736 99.7068 43.3108 99.67 43.3486L99.5598 43.5181C99.5064 43.6282 99.414 43.7215 99.414 43.8316C99.414 43.8486 99.3585 43.8871 99.3585 43.9219C99.3098 43.9973 99.2657 44.0783 99.2301 44.1605C99.206 44.2202 99.1877 44.2812 99.1746 44.3439L99.1191 44.419C99.1848 44.4338 99.2521 44.4397 99.3199 44.4368C99.3729 44.4295 99.4238 44.444 99.4683 44.4723L99.4712 44.4766Z" fill="#3973B9"/>
<path d="M106.896 43.1096L106.217 43.1651C106.154 43.1719 106.09 43.1588 106.034 43.1278C106.049 43.0808 106.055 43.0312 106.052 42.9816L106.162 42.5414L106.218 42.2477C106.235 42.1634 106.235 42.0765 106.218 41.9918C106.195 41.8951 106.183 41.7968 106.18 41.6981C106.187 41.4951 106.142 41.293 106.052 41.1108C105.978 40.9103 105.886 40.8006 105.63 40.8548C105.613 40.8718 105.613 40.8718 105.593 40.8718C105.465 40.8718 105.354 40.9273 105.244 40.8887C105.159 40.8773 105.072 40.904 105.006 40.9642L104.877 41.1099C104.643 41.3388 104.44 41.5972 104.273 41.8795C104.072 42.2108 103.944 42.5769 103.761 42.9265C103.723 43.0956 103.631 43.2202 103.576 43.3651C103.544 43.4431 103.474 43.4978 103.392 43.5109C103.214 43.5262 103.036 43.5516 102.86 43.5863L102.11 43.7558C102.076 43.7647 102.046 43.7757 102.017 43.7931C102.032 43.8592 102.073 43.919 102.128 43.9588L102.456 44.1592C102.566 44.252 102.682 44.233 102.805 44.252C103.245 44.3427 102.77 45.0402 102.676 45.439L102.511 46.0267C102.465 46.1432 102.427 46.2674 102.398 46.3924L102.305 46.7585L101.894 48.1048C101.023 49.0341 101.567 49.2353 100.049 49.785C99.9385 49.8015 99.8479 49.8405 99.755 49.765C99.6601 49.7252 99.5678 49.6748 99.4813 49.6193C99.4063 49.5413 99.3555 49.4472 99.333 49.3438C99.316 49.1743 99.3885 48.2446 99.3885 48.0611C99.4055 47.7302 99.4055 47.8031 99.5542 47.4369C99.5834 47.3929 99.6025 47.3433 99.6097 47.2908C99.6453 47.1077 99.316 47.8026 99.3838 47.5844C99.4766 47.4187 99.5495 47.1984 99.6224 47.0344L99.7152 46.7589L100.099 46.0068C100.155 45.8237 100.137 45.6962 100.064 45.611C99.989 45.5356 99.8063 45.4453 99.7508 45.3724C99.5678 45.2623 99.1105 45.5911 98.908 45.6284C98.8503 45.6597 98.8003 45.7038 98.7622 45.7568L98.7423 45.7741C98.705 45.789 98.6647 45.7809 98.6291 45.7568C98.5736 45.867 98.5537 45.9398 98.5736 46.0127C98.6092 46.1407 98.5537 46.2157 98.4982 46.3259C98.48 46.353 98.4681 46.3843 98.4635 46.4166C98.3533 46.6725 98.0228 47.0768 97.8757 47.4425C97.7456 47.6594 97.827 47.6149 97.9151 47.542C97.7833 47.7073 97.6418 47.8641 97.4914 48.0116L97.1604 48.3781L97.1053 48.4336L96.19 49.2031C95.8137 49.5053 95.3853 49.7345 94.9256 49.8811C94.8328 49.8977 94.301 49.9913 94.2103 49.9735C93.9166 49.954 93.603 49.6248 93.3475 49.3688C93.292 49.2934 93.1467 48.8921 93.0916 48.8167C93.0458 48.7133 93.0208 48.6014 93.0187 48.4883C93.0212 48.3658 93.0144 48.2433 92.9988 48.1222C92.9818 48.1222 92.964 48.1022 92.9255 48.0849L92.981 47.7005H93.0183C93.0204 47.7501 93.0136 47.7993 92.9983 47.8463H93.1267V47.8298C93.1098 47.8099 93.0916 47.8098 93.053 47.8098C93.0729 47.6967 93.0729 47.6815 93.1085 47.6641C93.164 47.6467 93.1822 47.6268 93.2013 47.5539C93.2039 47.5166 93.2242 47.4802 93.2568 47.4632C93.2941 47.4463 93.3229 47.4064 93.3301 47.3704C93.3301 47.2602 93.4039 47.1869 93.4229 47.095C93.4763 47.0395 93.5361 47.0598 93.5513 47.1145C93.642 47.2607 93.7208 47.4255 93.7899 47.5666C93.8069 47.6217 93.8454 47.659 93.8069 47.7323C93.8115 47.7662 93.8238 47.798 93.8446 47.8251C93.9577 47.8802 94.045 48.0438 94.1908 48.026C94.1976 48.026 94.2018 48.0281 94.2035 48.0302C94.2052 48.0327 94.2103 48.0391 94.2103 48.0433C94.2459 48.1188 94.301 48.0988 94.3565 48.1188C94.4751 48.1353 94.5967 48.1162 94.7048 48.0633C94.8484 48.0209 94.9684 47.9209 95.0357 47.7878C95.1107 47.673 95.1722 47.5501 95.2188 47.4213C95.2743 47.2882 95.3413 47.159 95.4197 47.0374C95.5561 46.8187 95.6498 46.5759 95.6951 46.3221C95.7413 46.1034 95.7413 45.878 95.6951 45.6597C95.6824 45.6008 95.6574 45.5453 95.6222 45.4962C95.4921 45.3856 95.4192 45.2025 95.3285 45.0372C95.3006 44.9669 95.2552 44.9033 95.1985 44.8542C95.0294 44.744 94.3382 44.5605 94.1543 44.4677C94.117 44.433 94.0988 44.3546 94.0442 44.322C94.0069 44.2847 93.934 44.305 93.8785 44.2482C93.823 44.1554 93.7327 44.1728 93.6399 44.2109L93.4564 44.3037C93.1513 44.4982 92.8763 44.7321 92.6318 44.9991C92.3759 45.2546 92.1487 45.5373 91.9542 45.8415C91.7542 46.136 91.5839 46.45 91.4457 46.7776C91.3902 46.906 91.3173 47.0162 91.3173 47.1814C91.4055 47.0289 91.4783 46.8708 91.5432 46.7047C91.5716 46.6136 91.639 46.5403 91.7267 46.5034C91.7436 46.6729 91.7436 46.6729 91.6894 46.7772C91.4678 47.2416 91.3389 47.7442 91.3097 48.2578C91.1025 48.5175 90.9139 48.5175 90.7181 48.7569C90.7012 48.7942 90.0579 49.2337 90.0397 49.254C89.7643 49.4926 88.2786 50.5913 88.4015 49.4549L89.0812 47.6035C89.1914 47.1268 89.4473 46.0212 89.1719 45.5682C88.5316 45.1644 87.8519 45.3123 87.2472 45.8619L86.0607 46.9984C85.9505 47.2246 84.942 48.5942 84.942 48.1175C85.0348 47.6094 85.0704 47.5861 85.2729 47.089C85.3831 46.7784 85.5467 46.4844 85.6768 46.1742L86.2069 45.1826L86.5552 44.5427L87.0146 43.7901C87.0701 43.7346 87.0883 43.644 87.143 43.5893C87.2934 43.4613 87.4175 43.3054 87.5091 43.1308C87.7438 42.7418 88.0273 42.3841 88.3519 42.0663L88.61 41.793C88.7002 41.6828 88.793 41.6447 88.8837 41.6629L89.1096 41.7383L89.2579 41.7939C89.371 41.8468 89.4037 42.0498 89.4766 41.8841C89.5698 41.629 89.5422 41.346 89.4028 41.1142C89.2371 40.3815 87.9349 38.6573 87.1302 39.2823C86.7853 39.5611 86.4828 39.8883 86.2319 40.2539C85.7912 40.8209 85.4068 41.5002 85.0454 42.1964L84.2026 43.8652L82.9423 47.9175L82.808 48.1005C81.9296 49.0358 82.4792 49.2396 80.9566 49.7888C80.8435 49.8053 80.7558 49.8439 80.663 49.7688C80.5672 49.729 80.4757 49.6803 80.3892 49.6231C80.3138 49.5451 80.2629 49.4506 80.2409 49.3472C80.224 49.1781 80.2964 48.2484 80.2964 48.0649C80.3163 47.734 80.3163 47.8069 80.4621 47.4403C80.4913 47.3967 80.5104 47.3467 80.5176 47.2946C80.5549 47.1111 80.224 47.8065 80.2918 47.5878C80.3846 47.4221 80.4574 47.2018 80.5303 47.0382L80.6231 46.7628L81.007 46.0106C81.0626 45.8271 81.0443 45.6996 80.9723 45.6148C80.8969 45.5394 80.7142 45.4491 80.6617 45.3762C80.4761 45.2661 80.0189 45.5949 79.8163 45.6322C79.7591 45.6636 79.7091 45.7076 79.6705 45.7606L79.6536 45.7775C79.6163 45.7928 79.5743 45.7847 79.5434 45.7606C79.4879 45.8708 79.4697 45.9436 79.4879 46.0165C79.5235 46.1466 79.4709 46.2199 79.4142 46.3301C79.3947 46.3568 79.3803 46.3882 79.3769 46.4204C79.2667 46.6784 78.9379 47.081 78.7891 47.4467C78.659 47.6632 78.7408 47.6187 78.829 47.5459C78.6968 47.7111 78.5556 47.8679 78.4052 48.0158L78.0743 48.3819L78.0188 48.4374L77.1035 49.2074C76.7276 49.5095 76.2992 49.7392 75.8394 49.885C75.7466 49.9044 75.2148 49.9951 75.1241 49.9773C74.8305 49.9578 74.5194 49.629 74.2614 49.3731C74.2058 49.2976 74.0609 48.8963 74.0054 48.8209C73.9592 48.7175 73.9346 48.6057 73.9325 48.4925C73.9342 48.37 73.9283 48.2476 73.9156 48.126C73.8957 48.126 73.8783 48.1065 73.8401 48.0887L73.8957 47.7048H73.933C73.9351 47.7539 73.9287 47.8031 73.9156 47.8505H74.044V47.834C74.0241 47.8166 74.0063 47.8166 73.9685 47.8166C73.9885 47.7065 73.9885 47.6865 74.0241 47.6683C74.0796 47.6518 74.0991 47.631 74.1169 47.5581C74.119 47.5208 74.1397 47.487 74.1724 47.4679C74.2097 47.4509 74.238 47.4115 74.2457 47.3751C74.2457 47.2649 74.3194 47.192 74.3385 47.0996C74.394 47.0467 74.4487 47.0645 74.4669 47.1196C74.5571 47.2653 74.6326 47.4297 74.7054 47.5713C74.7224 47.6268 74.761 47.6641 74.7224 47.737C74.7271 47.7709 74.7394 47.8031 74.7597 47.8298C74.8699 47.8853 74.9605 48.0484 75.1084 48.0302C75.1127 48.0302 75.1173 48.0327 75.1211 48.0374C75.1241 48.0404 75.1258 48.0446 75.1258 48.0484C75.1631 48.1238 75.2186 48.1039 75.2716 48.1238C75.3907 48.1408 75.5123 48.1213 75.6199 48.0683C75.764 48.026 75.8835 47.926 75.9513 47.7929C76.0267 47.6785 76.0877 47.5552 76.1343 47.4268C76.1898 47.2933 76.2568 47.1645 76.3352 47.0424C76.4699 46.8229 76.5636 46.5805 76.6106 46.3271C76.6568 46.1093 76.6568 45.8847 76.6106 45.6674C76.5979 45.6076 76.5729 45.5513 76.5377 45.5017C76.4094 45.3911 76.3343 45.208 76.2441 45.0423C76.2161 44.9728 76.172 44.9097 76.1157 44.8593C75.95 44.7491 75.2529 44.5656 75.069 44.4728C75.0317 44.4381 75.0135 44.3601 74.9588 44.327C74.9237 44.2898 74.8487 44.3101 74.7932 44.2533C74.7377 44.1605 74.6474 44.1783 74.5546 44.216L74.3711 44.3088C74.066 44.5033 73.791 44.7377 73.5465 45.0042C73.2918 45.2614 73.0647 45.5445 72.8689 45.8492C72.6697 46.1428 72.4981 46.456 72.3604 46.7827C72.3074 46.9111 72.232 47.0212 72.232 47.1865C72.3202 47.0344 72.4015 46.8759 72.4579 46.7098C72.4871 46.6195 72.5541 46.5462 72.6414 46.5089C72.6583 46.678 72.6583 46.678 72.6062 46.7827C72.3596 47.2924 72.2278 47.8501 72.2197 48.4158C72.2367 48.6896 72.257 48.9459 72.3481 49.1841C72.4011 49.3324 72.4897 49.4646 72.6062 49.5705C72.8977 49.8265 73.0278 50.1375 73.6685 50.3952C73.9071 50.4858 74.9906 50.6888 75.2466 50.6511C75.4712 50.6354 75.6928 50.5922 75.9068 50.5227L76.0725 50.4672C76.2797 50.4231 76.4793 50.3413 76.6572 50.2286C76.7636 50.1604 76.8742 50.0994 76.9882 50.0456L77.2141 49.8972C77.3035 49.8354 77.3886 49.768 77.47 49.6964C77.6598 49.5519 77.8378 49.3926 78.0018 49.2192C78.0967 49.1065 78.2005 49.0031 78.3124 48.9091C78.3743 48.851 78.4298 48.7866 78.4781 48.7171C78.4777 48.843 78.4654 48.9688 78.4408 49.0921C78.4362 49.2023 78.4497 49.3154 78.4781 49.4205C78.4781 49.6591 78.5709 49.918 78.6612 50.1553C78.8065 50.3269 78.9879 50.4642 79.193 50.5566C79.4684 50.6668 79.7015 50.9227 79.9629 50.832C80.7685 51.1431 82.0156 50.0443 82.1982 49.8061C82.4037 49.6744 82.5766 49.4976 82.7037 49.29C82.6088 50.0714 82.6109 50.8155 82.7855 51.4367C82.8025 51.7122 82.8961 51.9308 83.0415 52.0592C83.1207 52.141 83.1936 52.227 83.2673 52.3173C83.3228 52.3342 83.3406 52.391 83.3775 52.391C83.5059 52.391 83.322 52.3736 83.4703 52.3537C83.561 52.3364 83.6534 52.2982 83.7089 52.3537H83.822C83.8775 52.28 83.8974 52.2253 83.9326 52.1842C84.061 52.1088 84.1356 51.9088 84.1585 51.7435C84.1754 51.6151 84.2318 51.4876 84.2513 51.3774C84.289 51.2761 84.3191 51.1723 84.3415 51.0664C84.3593 50.9507 84.3966 50.8388 84.4517 50.7354L85.5886 48.5726C85.7018 48.4112 85.8361 48.259 85.9751 48.1133L86.9086 46.9594C86.9976 46.8742 87.0722 46.7746 87.129 46.6657C87.1764 46.5712 87.2451 46.4899 87.3298 46.4271C87.6053 45.9682 88.4316 45.4012 88.8329 46.0784C88.8414 46.1835 88.8291 46.2894 88.7977 46.3899C88.763 46.5153 88.7197 46.6386 88.6693 46.7585C88.4434 47.3081 87.5324 48.904 87.4226 49.5252C87.1968 51.2664 88.8706 51.1384 89.4753 50.5719C89.5308 50.5346 90.1355 50.0634 90.2096 49.965C90.3088 49.8057 90.4185 49.6527 90.5385 49.5078C90.6313 49.3976 90.9775 49.282 91.0326 49.1421C91.0682 48.9523 91.2622 48.7802 91.3635 48.6332C91.375 48.8175 91.4118 48.9985 91.4741 49.1718C91.5258 49.3201 91.6139 49.4523 91.7301 49.5582C92.0237 49.8142 92.1517 50.1252 92.7941 50.3812C93.0327 50.474 94.1137 50.6748 94.376 50.6392C94.6001 50.6223 94.8217 50.5791 95.0362 50.5108L95.2018 50.4557C95.4099 50.4108 95.6086 50.3299 95.7896 50.2172C95.8955 50.1498 96.0061 50.0871 96.118 50.0341L96.3439 49.8858C96.4337 49.8248 96.5193 49.7578 96.5998 49.6849C96.7918 49.5417 96.968 49.3798 97.1308 49.2082C97.2261 49.0951 97.3299 48.9896 97.4443 48.8976C97.5011 48.8383 97.5613 48.773 97.61 48.7057C97.6075 48.8315 97.5952 48.9569 97.5727 49.0811C97.5681 49.1917 97.5804 49.3023 97.6083 49.4095C97.6083 49.6481 97.7011 49.9036 97.7939 50.1422C97.9384 50.3151 98.1202 50.4528 98.3257 50.546C98.5991 50.6566 98.8376 50.9121 99.094 50.8219C99.9021 51.1321 101.149 50.0337 101.331 49.7955C101.492 49.6938 101.634 49.5612 101.746 49.4074L101.735 49.9968C101.753 50.3007 101.802 50.6019 101.881 50.8952C101.937 51.0787 102.047 51.2261 102.137 51.3897C102.323 51.7554 102.889 52.3249 103.276 52.3804C103.495 52.4359 103.753 52.4177 103.991 52.3978C104.276 52.3224 104.551 52.219 104.814 52.0868C105.04 51.941 105.439 51.4643 105.677 51.299C105.767 51.2253 106.631 50.1248 106.703 49.9964L107.197 49.0612L107.546 48.1823C107.583 48.1073 107.784 47.5755 107.772 47.5026C107.752 47.4124 107.808 47.4124 107.808 47.3022C107.827 47.2467 107.694 47.3187 107.607 47.3022L107.258 48.0899C107.092 48.3836 107.002 48.7874 106.837 49.0985C106.654 49.4646 106.031 50.1451 105.755 50.418L104.985 51.0232C104.82 51.1333 104.491 51.116 104.325 51.116C104.29 51.116 104.27 51.0986 104.252 51.0986C104.196 51.0236 104.123 50.9685 104.086 50.8727C103.989 50.6015 103.928 50.3168 103.903 50.0299C103.865 49.3324 104.104 47.9395 104.307 47.4806C104.397 47.3522 104.38 47.1869 104.453 47.059C104.55 46.909 104.631 46.75 104.691 46.5822C104.747 46.3924 104.82 46.2072 104.917 46.0326L105.007 45.8292L105.76 44.0211L105.797 43.9656C105.833 43.8923 105.871 43.8372 105.943 43.8198L106.365 43.7643C106.446 43.7533 106.526 43.7363 106.603 43.7092C106.729 43.6719 106.859 43.6529 106.99 43.6537C107.208 43.6702 107.429 43.58 107.63 43.5609C107.637 43.5609 107.641 43.5584 107.643 43.5558C107.644 43.5537 107.65 43.5469 107.65 43.5431L108.045 43.36L108.175 43.2672L108.249 43.1566C108.134 43.1316 108.018 43.1134 107.9 43.1016L106.896 43.1096ZM93.7878 46.5746L93.9162 46.3716C94.0857 46.1708 94.2268 45.9326 94.4281 45.7869C94.7035 45.561 95.2908 45.4004 94.9976 46.0975C94.8874 46.4081 94.8145 46.4636 94.687 46.7759C94.612 46.9043 94.5213 47.0318 94.3938 47.0696C94.2454 47.0861 94.1001 47.1068 93.9895 46.9768C93.942 46.9246 93.8861 46.8814 93.8238 46.8484C93.7336 46.7928 93.7136 46.7026 93.7891 46.5746H93.7878ZM74.6817 46.5746L74.8101 46.3716C74.9758 46.1708 75.1237 45.9326 75.3186 45.7869C75.5941 45.561 76.1788 45.4004 75.8881 46.0975C75.778 46.4081 75.7025 46.4636 75.5746 46.7759C75.5012 46.9043 75.4055 47.0318 75.2809 47.0696C75.1351 47.0861 74.9894 47.1068 74.8855 46.9768C74.8381 46.9246 74.7817 46.8814 74.7199 46.8484C74.6271 46.7928 74.6093 46.7026 74.6826 46.5746H74.6817ZM72.5363 47.784C72.5918 47.8942 72.5736 48.0226 72.5562 48.1505L72.5007 48.7201C72.4808 48.7001 72.4634 48.7001 72.4634 48.6828C72.4261 48.409 72.4079 48.1327 72.5007 47.8395C72.5007 47.8226 72.5176 47.8022 72.5363 47.784ZM72.7401 49.5625C72.6918 49.5493 72.6477 49.5239 72.6117 49.4892C72.5562 49.4252 72.5058 49.3591 72.4634 49.2862C72.2625 48.9019 72.2375 48.4612 72.3176 47.9836L72.3731 47.7276C72.3998 47.6395 72.4367 47.5581 72.4863 47.4717V47.6001C72.4837 47.6573 72.471 47.7128 72.4511 47.7658C72.3892 48.0294 72.3651 48.3006 72.3782 48.5709C72.3782 48.5908 72.3583 48.6082 72.3782 48.6264C72.4138 48.865 72.4515 49.1031 72.5473 49.2866C72.5473 49.3061 72.5672 49.3061 72.585 49.3239C72.6223 49.2506 72.568 49.2133 72.568 49.1582L72.5125 49.012C72.5214 49.0014 72.535 48.9955 72.5481 48.9925C72.6036 49.0853 72.6036 49.1955 72.6583 49.3057C72.7003 49.3943 72.7486 49.4752 72.8066 49.5616C72.7693 49.5616 72.7511 49.5786 72.7511 49.5616L72.7401 49.5625ZM78.4628 48.6735C78.4404 48.6578 78.4387 48.6421 78.4234 48.6273C78.4298 48.5959 78.4463 48.5667 78.4696 48.5455C78.4654 48.5874 78.4628 48.6307 78.4628 48.6735ZM78.4802 48.4353L78.4052 48.4633L78.4785 48.3531L78.5069 48.3192C78.4938 48.3548 78.484 48.3942 78.4802 48.4336V48.4353ZM91.422 47.9866L91.4771 47.7285C91.5042 47.6395 91.5411 47.5539 91.5877 47.4725V47.6009C91.583 47.6577 91.5707 47.7137 91.5504 47.7666L91.5165 47.9209L91.4033 48.1217L91.4203 47.9849L91.422 47.9866ZM91.6695 48.0908C91.6648 48.1107 91.6623 48.1306 91.6606 48.1505L91.605 48.7201C91.5881 48.7027 91.5678 48.7027 91.5678 48.6828C91.55 48.5506 91.5406 48.4179 91.5398 48.2853C91.5792 48.2192 91.6186 48.159 91.6695 48.0908ZM91.839 49.5625C91.7907 49.5498 91.7462 49.5252 91.7106 49.4892C91.6559 49.426 91.6063 49.3578 91.5627 49.2862C91.447 49.0565 91.3843 48.8035 91.3792 48.5468L91.472 48.3853V48.5709C91.472 48.5908 91.4521 48.6082 91.472 48.6264C91.5076 48.865 91.5457 49.1031 91.6377 49.2866C91.6377 49.3061 91.6546 49.3061 91.6733 49.3239C91.7106 49.2506 91.6563 49.2137 91.6563 49.1582L91.6008 49.012C91.6097 49.0014 91.6237 48.9955 91.6385 48.9925C91.6915 49.0853 91.6915 49.1955 91.7517 49.3057C91.7945 49.3951 91.8436 49.4803 91.8996 49.5616C91.8623 49.5616 91.8445 49.5786 91.8445 49.5616L91.839 49.5625ZM97.5626 48.6735C97.5397 48.6578 97.538 48.6421 97.5227 48.6273C97.5299 48.5959 97.5473 48.5675 97.5689 48.5455L97.5626 48.6735ZM97.5795 48.4353L97.5041 48.4633L97.5778 48.3531L97.6058 48.3192C97.5931 48.3548 97.5833 48.3942 97.5791 48.4336L97.5795 48.4353ZM104.912 44.5944C104.771 44.8728 104.648 45.1601 104.546 45.4546C104.29 46.1331 103.703 47.2632 104.105 45.7483L104.546 44.1529C105.15 43.769 105.095 44.1364 104.912 44.5944ZM105.609 41.7892L105.533 42.2282L105.48 42.4841L105.37 43.0537C105.26 43.3821 104.746 43.3643 104.818 42.888C104.873 42.6876 104.911 42.4841 104.948 42.3002L105.131 41.8964C105.174 41.7307 105.235 41.5705 105.314 41.4197C105.349 41.3426 105.407 41.279 105.48 41.2362C105.516 41.201 105.571 41.2193 105.593 41.2917C105.619 41.4561 105.625 41.6222 105.613 41.7884L105.609 41.7892ZM113.436 52.5131H113.453V52.4575C113.436 52.4575 113.436 52.4948 113.436 52.5131ZM113.474 52.4397C113.474 52.4351 113.471 52.4308 113.467 52.427C113.462 52.4228 113.458 52.422 113.454 52.422V52.4575C113.454 52.441 113.454 52.441 113.474 52.441V52.4397Z" fill="#3973B9"/>
<path d="M123.215 47.2026C123.151 47.2797 123.076 47.3483 122.989 47.4055L122.915 47.4962C122.878 47.5335 122.749 47.4789 122.714 47.5161C122.695 47.5327 122.714 47.4606 122.621 47.4055C122.63 47.2399 122.63 47.0746 122.621 46.9085C122.621 46.6699 122.638 46.414 122.605 46.1754L122.475 45.4232V45.3495C122.361 45.1109 122.236 44.9457 122.022 44.9457C121.912 44.9457 121.797 44.9656 121.674 44.9656C121.548 44.9902 121.44 45.0719 121.381 45.1842C121.297 45.3457 121.197 45.5008 121.087 45.6436C120.994 45.8216 120.89 45.9936 120.776 46.158C120.647 46.3771 120.006 47.684 119.933 47.9547C119.858 48.2653 119.015 49.1289 119.29 48.2484C119.491 47.5509 119.933 46.9462 120.172 46.1758C120.262 45.7915 120.3 46.0652 120.39 45.6987C120.501 45.3504 120.466 45.1317 120.3 44.8385C120.117 44.6126 119.934 44.452 119.805 44.2139C119.705 44.1168 119.576 44.0533 119.437 44.0308C119.287 43.991 119.135 43.9672 118.985 43.9571C118.8 43.9198 118.727 43.9571 118.655 44.1956C118.509 44.4893 118.399 44.7834 118.27 45.1109C118.233 45.2393 118.16 45.3368 118.142 45.4597C117.884 46.175 117.957 46.0644 117.829 46.7792C117.702 47.2055 117.74 47.2386 117.694 47.5784C117.456 47.7568 117.136 48.392 116.951 48.392C116.725 48.5204 116.725 48.5399 116.725 48.5399C116.643 48.5577 116.563 48.5823 116.486 48.6132L116.21 48.6865C115.992 48.7603 115.734 48.5937 115.46 48.5937C115.294 48.631 114.652 48.3204 114.431 48.3552C114.158 48.2814 114.286 47.934 114.378 47.7153C114.617 47.0903 114.469 47.3488 114.725 46.7415C114.849 46.4869 114.952 46.225 115.038 45.9534C115.223 45.5495 115.384 45.1321 115.515 44.7067L115.684 44.2122L116.088 43.1129L116.344 42.4532C116.638 41.8108 116.821 42.5061 116.785 42.8744C116.737 43.3265 116.624 43.7592 116.454 44.174L116.002 45.1279C115.912 45.294 115.85 45.4732 115.817 45.6593C115.965 45.569 116.092 45.5309 116.221 45.4588C116.329 45.4143 116.415 45.3283 116.459 45.2203C116.848 44.6817 117.168 44.0969 117.413 43.4791C117.523 43.1655 117.579 42.9477 117.468 42.6358C117.542 42.3049 117.358 42.0663 117.303 41.8281C117.247 41.7544 117.174 41.718 117.174 41.6625C116.991 41.493 116.79 41.334 116.514 41.2963C116.441 41.3133 116.368 41.2794 116.288 41.2612C116.05 41.1684 115.556 41.3146 115.335 41.5171C115.166 41.6455 114.884 41.9214 114.751 42.0481C114.585 42.0837 114.457 42.2138 114.163 42.6909L113.503 43.624C113.465 43.6795 113.942 43.1125 113.898 43.1655C113.13 44.6512 112.066 47.0894 111.991 47.456C111.991 47.5488 111.918 47.6043 111.901 47.6945L111.48 48.8688C111.44 49.0739 111.384 49.276 111.314 49.473C111.297 49.5218 111.283 49.5701 111.277 49.6213C111.241 49.7315 111.186 49.8218 111.186 49.9319C111.149 50.0201 111.124 50.1129 111.113 50.2074C111.085 50.3137 111.065 50.4265 111.058 50.5362L110.709 51.9113C110.654 52.2422 110.561 52.5541 110.616 52.8834C110.614 52.8965 110.608 52.9101 110.599 52.9207C110.575 53.2181 110.569 53.519 110.582 53.8245C110.576 54.072 110.602 54.3161 110.656 54.5572L110.746 54.783C110.749 55.0021 110.835 55.2115 110.985 55.3704C111.06 55.4492 111.139 55.5225 111.224 55.5911C111.334 55.6814 111.482 55.7369 111.61 55.6814L111.756 55.6467C111.811 55.6632 111.811 55.6089 111.849 55.6089C111.904 55.6089 111.995 55.5716 112.075 55.592C112.198 55.567 112.297 55.4755 112.33 55.3534C112.474 55.0915 112.602 54.822 112.714 54.5457L112.77 54.4356C112.863 54.3576 112.916 54.2432 112.918 54.1245V53.9961C113.047 53.8131 113.119 53.5576 113.212 53.2808C113.229 53.1525 113.285 52.9872 113.322 52.8418C113.367 52.7507 113.385 52.649 113.375 52.5482C113.373 52.5215 113.38 52.4952 113.395 52.4732C113.412 52.4732 113.431 52.438 113.45 52.438C113.45 52.4181 113.467 52.4181 113.467 52.438C113.485 52.3308 113.516 52.2257 113.56 52.1266C113.552 52.0151 113.564 51.9032 113.596 51.7956C113.596 51.6498 113.651 51.5202 113.689 51.3744C113.69 51.2617 113.709 51.1502 113.744 51.0434L113.761 50.421C113.752 50.3413 113.752 50.2612 113.761 50.1824L113.706 48.9959C113.595 48.2437 115.173 49.5273 117.005 48.8675L117.354 48.6416C117.449 48.5679 117.541 48.4895 117.627 48.4052L117.592 49.2107C117.583 49.5298 117.601 49.8489 117.648 50.1646C117.721 50.5307 117.874 50.8049 118.156 50.8799C118.192 50.9155 118.23 50.9532 118.266 50.9155C118.56 50.9888 118.816 51.0083 119.035 50.6964C119.072 50.6591 119.127 50.6409 119.127 50.6036C119.238 50.5108 119.697 49.6315 119.732 49.5222L119.898 49.101C120.026 48.6967 120.226 48.348 120.392 47.9636L120.723 47.2297C120.834 46.8996 120.975 46.5801 121.144 46.2763C121.161 46.2207 121.218 46.1661 121.2 46.0932C121.213 45.9771 121.25 45.8648 121.31 45.7644L121.566 45.3054L121.64 45.2126C121.64 45.1779 121.677 45.1961 121.695 45.1961C121.717 45.2622 121.711 45.3351 121.678 45.3965L121.622 45.7275L121.567 46.1792C121.503 46.5275 121.521 46.886 121.622 47.2259C121.713 47.4818 121.878 47.6852 122.099 47.7344C122.228 47.7899 122.355 47.8081 122.483 47.8801C122.525 47.9174 122.589 47.9174 122.631 47.8801C122.678 47.8429 122.735 47.8166 122.797 47.8064C122.875 47.809 122.947 47.7725 122.998 47.7136L123.053 47.6789C123.053 47.6589 123.089 47.6416 123.109 47.6234L123.164 47.5678C123.218 47.5437 123.259 47.4967 123.274 47.4394L123.328 47.3466C123.376 47.3144 123.404 47.2598 123.403 47.2009C123.329 47.1106 123.274 47.1106 123.22 47.2009L123.215 47.2026ZM113.075 50.301C113.052 50.6578 113.009 51.0129 112.947 51.3651L112.761 52.7779C112.742 52.9359 112.705 53.0957 112.671 53.2546L112.47 53.9495C112.36 54.2254 112.433 54.0974 112.322 54.3534C112.285 54.4462 112.156 54.9233 111.974 54.5542C111.954 54.508 111.94 54.4589 111.939 54.4085L111.955 53.8999C111.969 53.7631 112 53.6288 112.048 53.5042C112.079 53.3953 112.104 53.2847 112.121 53.1732C112.157 52.9897 112.212 52.8626 112.212 52.6961C112.231 52.6058 112.267 52.5304 112.287 52.4575C112.304 52.3473 112.378 52.2918 112.342 52.1638C112.393 52.0198 112.436 51.8731 112.471 51.7253C112.488 51.5596 112.544 51.3943 112.584 51.2168C112.583 51.0981 112.602 50.9803 112.639 50.868L112.805 50.3371L112.861 50.168C112.916 49.8921 113.136 49.2145 113.086 50.3137L113.075 50.301ZM113.204 44.9902C113.094 45.2287 113.003 45.5211 112.855 45.7783V45.6682C112.977 45.2487 113.142 44.8431 113.35 44.4588C113.367 44.4456 113.385 44.4321 113.405 44.4236C113.363 44.6202 113.292 44.8122 113.204 44.991L113.204 44.9902ZM113.608 44.3117C113.55 44.4893 113.477 44.6605 113.387 44.8241V44.7685C113.425 44.655 113.387 44.599 113.442 44.4749C113.498 44.3054 113.553 44.2363 113.608 43.9982C113.935 43.3269 114.354 42.7019 114.855 42.1468C114.928 42.0006 115.024 41.9633 115.111 41.8904C115.196 41.8095 115.289 41.7358 115.387 41.6697L115.221 41.8548C115.221 41.9455 115.111 41.9832 115.073 42.0243C114.834 42.2824 114.561 42.6121 114.25 43.0155C113.782 43.6202 114.212 43.0155 114.267 43.0888C114.041 43.4375 113.772 43.7685 113.607 44.1355C113.592 44.1706 113.586 44.2079 113.587 44.2461C113.68 44.1905 113.717 44.0605 113.735 43.9702C113.772 43.9329 114.139 43.3825 114.174 43.2727L114.194 43.3282C114.119 43.4939 113.717 44.116 113.606 44.3194L113.608 44.3117ZM134.746 47.2343C134.691 47.3246 134.691 47.3246 134.691 47.3445C134.6 47.6382 134.397 47.8568 134.239 48.095C133.357 49.0302 133.908 49.2315 132.387 49.7828C132.277 49.7997 132.184 49.8383 132.094 49.7633C131.997 49.7235 131.906 49.6722 131.818 49.6171C131.745 49.5404 131.695 49.4451 131.672 49.3412C131.652 49.1756 131.725 48.2425 131.725 48.0594C131.745 47.7284 131.745 47.8013 131.891 47.4344C131.92 47.3907 131.939 47.3407 131.946 47.2886C131.984 47.1055 131.653 47.8009 131.72 47.5823C131.813 47.4166 131.886 47.1958 131.959 47.0301L132.052 46.7568L132.438 46.0042C132.491 45.8207 132.474 45.6936 132.401 45.6088C132.327 45.5334 132.145 45.4432 132.09 45.3703C131.905 45.2601 131.448 45.5893 131.248 45.6262C131.19 45.6576 131.139 45.7016 131.099 45.7546L131.082 45.7711C131.045 45.7868 131.003 45.7783 130.972 45.7546C130.917 45.8648 130.899 45.9377 130.917 46.0106C130.954 46.139 130.9 46.214 130.843 46.3212C130.824 46.3487 130.812 46.3805 130.806 46.414C130.695 46.6699 130.367 47.0742 130.218 47.4399C130.09 47.6568 130.17 47.6123 130.258 47.539C130.125 47.7039 129.984 47.8611 129.834 48.009L129.503 48.3755L129.447 48.4306L128.533 49.2006C128.156 49.5027 127.728 49.7328 127.268 49.8781C127.175 49.8951 126.644 49.9887 126.553 49.9709C126.259 49.9514 125.949 49.6222 125.69 49.3662C125.637 49.2908 125.49 48.8895 125.435 48.8141C125.389 48.7107 125.364 48.5988 125.362 48.4857C125.365 48.3632 125.359 48.2408 125.344 48.1196C125.324 48.1196 125.307 48.0996 125.269 48.0819L125.324 47.6979H125.362C125.364 47.7467 125.357 47.795 125.345 47.8437H125.473V47.8276C125.453 47.8077 125.436 47.8077 125.399 47.8077C125.416 47.6941 125.416 47.6793 125.453 47.6619C125.508 47.6445 125.528 47.6246 125.546 47.5517C125.548 47.5144 125.568 47.478 125.601 47.4611C125.638 47.4441 125.667 47.4043 125.674 47.3683C125.674 47.2577 125.748 47.1848 125.767 47.0924C125.823 47.0373 125.877 47.0576 125.896 47.1123C125.988 47.2581 126.061 47.4233 126.134 47.564C126.151 47.6195 126.19 47.6568 126.151 47.7301C126.156 47.7636 126.168 47.795 126.188 47.8225C126.299 47.878 126.389 48.0416 126.537 48.0238C126.541 48.0238 126.546 48.0259 126.55 48.028C126.554 48.0306 126.555 48.0369 126.555 48.0412C126.592 48.1166 126.647 48.0967 126.703 48.1166C126.821 48.1335 126.942 48.1141 127.049 48.0611C127.193 48.0191 127.313 47.9196 127.38 47.7856C127.455 47.6708 127.516 47.5479 127.563 47.4191C127.62 47.2856 127.687 47.1564 127.764 47.0326C127.899 46.8131 127.992 46.5708 128.039 46.3174C128.086 46.0995 128.086 45.875 128.039 45.6576C128.027 45.5978 128.002 45.5427 127.966 45.4936C127.838 45.3834 127.763 45.1999 127.672 45.0347C127.645 44.9639 127.602 44.9012 127.544 44.8512C127.378 44.741 126.681 44.5575 126.497 44.4647C126.462 44.43 126.442 44.3545 126.387 44.3189C126.352 44.2817 126.277 44.3024 126.218 44.2456C126.162 44.1528 126.069 44.1706 125.979 44.2079L125.793 44.3007C125.49 44.4956 125.213 44.7296 124.971 44.9961C124.715 45.252 124.487 45.5347 124.291 45.8389C124.092 46.1347 123.921 46.4479 123.779 46.7746C123.724 46.903 123.649 47.0132 123.649 47.1784C123.737 47.0263 123.818 46.8682 123.875 46.7017C123.906 46.6114 123.972 46.5322 124.058 46.4983C124.078 46.664 124.078 46.664 124.023 46.7737C123.777 47.2831 123.645 47.8399 123.637 48.4052C123.656 48.6806 123.674 48.9366 123.765 49.1756C123.818 49.3239 123.907 49.4561 124.023 49.5616C124.317 49.8175 124.445 50.129 125.085 50.3862C125.324 50.4769 126.407 50.6777 126.663 50.6422C126.888 50.6265 127.11 50.5833 127.324 50.5138L127.489 50.4587C127.697 50.4138 127.897 50.3328 128.077 50.2201C128.183 50.1527 128.294 50.09 128.406 50.037L128.632 49.8887C128.722 49.8319 128.801 49.7603 128.888 49.6879C129.078 49.5438 129.255 49.384 129.419 49.2111C129.514 49.098 129.619 48.9925 129.73 48.9005C129.786 48.8412 129.847 48.776 129.896 48.7086C129.895 48.8349 129.883 48.9603 129.858 49.084C129.854 49.195 129.867 49.3056 129.896 49.4124C129.896 49.651 129.989 49.9069 130.079 50.1451C130.224 50.3171 130.406 50.4549 130.61 50.5489C130.886 50.6595 131.119 50.915 131.38 50.8248C132.186 51.135 133.433 50.0366 133.615 49.7985C134.24 49.4302 134.516 48.4234 134.9 47.7259C134.642 47.6704 134.844 47.4153 134.752 47.2318L134.746 47.2343ZM126.11 46.5746L126.24 46.3712C126.409 46.1703 126.551 45.9322 126.752 45.786C127.027 45.5601 127.615 45.3999 127.322 46.097C127.211 46.4072 127.136 46.4627 127.008 46.775C126.935 46.9034 126.839 47.0309 126.716 47.0687C126.568 47.0856 126.423 47.106 126.313 46.9759C126.265 46.9242 126.209 46.8805 126.147 46.8475C126.054 46.792 126.036 46.7017 126.109 46.5741L126.11 46.5746ZM123.965 47.7835C124.02 47.8941 124.002 48.0221 123.984 48.1497L123.929 48.7192C123.909 48.6993 123.892 48.6993 123.892 48.6819C123.856 48.4081 123.836 48.1323 123.929 47.839C123.929 47.8217 123.946 47.8018 123.965 47.7835ZM124.168 49.562C124.12 49.5489 124.076 49.5235 124.04 49.4887C123.985 49.4251 123.935 49.3569 123.892 49.2857C123.691 48.9014 123.666 48.4607 123.745 47.9831L123.801 47.7272C123.828 47.639 123.865 47.5577 123.914 47.4712V47.5996C123.912 47.6568 123.899 47.7123 123.879 47.7653C123.818 48.0289 123.793 48.3001 123.806 48.5704C123.806 48.5904 123.787 48.6077 123.806 48.6259C123.842 48.8645 123.88 49.1027 123.976 49.2862C123.976 49.3056 123.995 49.3056 124.013 49.3234C124.05 49.2501 123.996 49.2128 123.996 49.1578L123.941 49.0116C123.95 49.001 123.963 48.995 123.976 48.9921C124.031 49.0849 124.031 49.195 124.087 49.3052C124.129 49.3938 124.177 49.4747 124.234 49.5612C124.197 49.5612 124.179 49.5781 124.179 49.5612H124.168V49.562ZM129.892 48.6726C129.869 48.6577 129.867 48.6416 129.852 48.6264C129.859 48.5954 129.876 48.567 129.898 48.5446L129.892 48.6726ZM129.909 48.4344L129.833 48.4624L129.907 48.3522L129.935 48.3183C129.922 48.3539 129.912 48.3937 129.908 48.4331V48.4344H129.909Z" fill="#3973B9"/>
<path d="M131.795 44.4703C131.874 44.5271 131.978 44.5122 132.051 44.4533C132.088 44.4186 132.144 44.3796 132.179 44.3978C132.283 44.3753 132.379 44.3249 132.455 44.252L132.638 44.0262C132.663 44.0012 132.676 43.9681 132.676 43.9334C132.693 43.8736 132.732 43.8185 132.766 43.7639C132.804 43.7266 132.821 43.6711 132.876 43.6156C132.812 43.494 132.709 43.3978 132.583 43.3422C132.501 43.3249 132.421 43.2994 132.344 43.2668C132.327 43.2499 132.306 43.2668 132.27 43.2867C132.234 43.3067 132.197 43.3033 132.197 43.2668C132.169 43.2499 132.133 43.2499 132.104 43.2668C132.067 43.2668 132.031 43.3041 131.994 43.3422L131.884 43.5113C131.828 43.6219 131.738 43.7143 131.738 43.8249C131.738 43.8418 131.682 43.88 131.682 43.9156C131.626 43.9906 131.589 44.0719 131.554 44.1542C131.53 44.2135 131.512 44.2745 131.498 44.3372L131.443 44.4126C131.509 44.4266 131.576 44.433 131.644 44.43C131.697 44.4232 131.748 44.4368 131.792 44.4656L131.795 44.4703ZM148.096 45.0949C148.152 45.0131 148.238 44.9601 148.335 44.9466C148.409 44.9296 148.501 44.8728 148.629 44.833L148.28 44.7957C148.356 44.5953 148.506 44.6127 148.629 44.5699L148.318 44.3694C148.519 44.3525 148.684 44.4796 148.941 44.2766C148.702 44.2766 148.489 44.2766 148.612 43.983C148.657 43.9821 148.701 43.9707 148.74 43.9482C148.667 43.7096 148.465 43.544 148.232 43.4507C148.27 43.5262 148.362 43.599 148.417 43.6766L148.38 43.7139H148.252C148.214 43.8596 148.159 43.9698 148.178 44.0622C148.22 44.1508 148.269 44.2317 148.324 44.3181C148.176 44.3135 148.031 44.3203 147.885 44.3351C147.748 44.3728 147.606 44.3855 147.464 44.3724C147.238 44.3351 147.023 44.3893 146.804 44.408C146.742 44.4436 146.672 44.4626 146.601 44.4635C146.491 44.4635 146.345 44.4465 146.252 44.4465C146.308 44.2203 146.4 44.0423 146.601 43.938C146.745 43.8618 146.9 43.8063 147.06 43.774L148.104 43.5482C148.069 43.438 147.959 43.4554 147.866 43.4745C147.389 43.5846 146.456 43.8588 146.748 43.0532C146.987 42.3558 147.243 41.6405 147.609 40.9434C147.757 40.7425 147.775 40.5222 147.865 40.3031C147.94 39.9544 147.792 39.7332 147.519 39.5878C147.205 39.4141 146.85 39.3247 146.491 39.3297H145.74L145.171 40.3387C145.115 40.487 145.025 40.6697 145.025 40.798C145.007 40.965 144.956 41.1265 144.877 41.2748C144.766 41.4934 144.603 41.696 144.603 41.9345C144.603 42.0807 144.493 42.2638 144.455 42.4117L143.924 43.8041C143.907 43.8779 143.85 43.9143 143.813 44.0075C142.438 44.5194 141.302 44.63 142.366 42.9058L142.697 42.0807C142.771 41.8248 142.915 41.5693 143.026 41.2756C143.081 41.1099 143.063 40.9998 142.879 40.9442L142.476 40.8892C142.362 40.8625 142.233 40.9247 142.182 41.037L141.376 42.563C141.028 43.3325 140.789 43.749 140.569 44.5254C140.531 44.7512 140.293 45.075 140.06 45.1296C139.694 45.1851 139.42 45.3152 139.156 45.2051L138.79 45.9733C138.846 46.0288 138.846 46.139 138.81 46.2869C138.755 46.4877 138.755 46.6827 138.7 46.9098C138.662 47.02 138.7 47.1484 138.717 47.2586C138.772 47.9556 139.577 47.4043 139.248 48.2493L138.588 50.8337C138.554 51.021 138.548 51.2126 138.57 51.4011C138.587 51.5295 138.699 51.6397 138.899 51.6045C138.954 51.5672 139.027 51.6045 139.1 51.6045C139.559 51.6211 139.503 51.6401 139.852 51.2007C139.869 51.163 139.869 51.1452 139.907 51.127C140.273 50.5024 140.312 49.8977 140.53 49.293C140.567 49.2002 140.55 49.1273 140.567 49.0544L140.66 48.523C141.026 47.2391 140.916 47.3365 142.254 46.7153C142.352 46.6979 142.446 46.6602 142.529 46.6047C143.832 46.2386 142.329 48.64 142.492 49.3371L142.218 50.5236C142.181 50.6142 142.181 50.707 142.126 50.7973C142.035 50.9257 141.997 51.0232 142.052 51.091C142.069 51.1282 142.035 51.1838 142.015 51.2193C142.015 51.2927 141.959 51.385 141.959 51.4228C142.015 51.6486 141.996 51.8969 141.904 52.1173V52.3207C141.887 52.4902 141.904 52.6669 141.887 52.8326C141.87 52.8881 141.813 52.9254 141.776 52.9983C141.814 53.0538 141.905 53.1267 141.925 53.1817C141.998 53.3474 142.015 53.3648 142.254 53.2551L142.401 53.1089C142.475 53.1262 142.512 53.1644 142.585 53.1644C142.602 53.1644 142.64 53.1089 142.695 53.0542C142.768 52.9987 142.731 53.147 142.824 53.0915C143.062 52.8656 143.332 52.9258 143.576 52.705C143.623 52.6893 143.673 52.6834 143.722 52.6876C143.799 52.6631 143.879 52.6504 143.96 52.6504C144.071 52.522 144.236 52.4118 144.254 52.302C144.347 52.0635 144.493 51.8253 144.437 51.5694C144.437 51.5342 144.454 51.4787 144.454 51.4232C144.53 51.1477 144.658 50.8354 144.547 50.5808C144.53 50.5608 144.564 50.5053 144.564 50.4706C144.601 50.4151 144.657 50.3778 144.657 50.3422C144.767 49.9735 144.84 49.6074 144.913 49.24C145.023 48.8557 145.041 48.4518 145.17 48.0535C145.248 47.8192 145.309 47.581 145.354 47.3382C145.409 47.009 145.464 46.6776 145.61 46.3492C145.676 46.1225 145.858 45.9479 146.087 45.8907L147.022 45.597C147.453 45.425 147.894 45.2784 148.342 45.1576C148.264 45.1317 148.183 45.1131 148.101 45.1021L148.096 45.0949ZM140.047 46.0102C139.862 46.0657 139.672 46.1085 139.48 46.1386C139.625 45.9551 139.79 45.9551 139.956 45.8826C139.919 45.7898 139.901 45.7364 139.791 45.7165C139.681 45.7165 139.565 45.6818 139.48 45.6818C139.571 45.4432 139.626 45.3682 139.846 45.3135C140.02 45.3 140.192 45.2695 140.361 45.2233L140.047 46.0102ZM143.128 44.5071C143.128 44.5237 143.091 44.5626 143.091 44.5804C142.987 44.5783 142.882 44.5851 142.779 44.6004C142.893 44.5584 143.009 44.5271 143.128 44.5071ZM141.809 44.9665C141.809 44.8563 141.899 44.8182 142.009 44.8008C142.235 44.7271 142.468 44.6906 142.689 44.6173L141.919 44.9661C141.899 44.983 141.863 44.9665 141.809 44.9665ZM141.919 45.2771C142.022 45.2241 142.133 45.1868 142.247 45.1669C142.177 45.2771 142.04 45.3233 141.919 45.2771ZM142.963 45.478C143.188 45.2767 143.293 45.3644 143.422 45.3868C143.274 45.5152 143.166 45.4424 142.963 45.478ZM142.059 45.4224C142.155 45.3381 142.279 45.2923 142.407 45.294C142.546 45.2915 142.683 45.2601 142.811 45.2034C143.05 45.1284 143.25 45.0733 143.434 45.0932L143.527 45.1839C143.048 45.3182 142.554 45.4004 142.059 45.4224Z" fill="#3973B9"/>
<path d="M148.756 43.9401L148.739 43.9571L148.756 43.974V43.9401ZM166.962 47.3132L166.888 47.1301L166.614 47.4407C166.501 47.5708 166.391 47.695 166.266 47.8064C166.078 47.9759 165.882 48.1349 165.678 48.2836L164.853 48.9082C164.376 49.0366 163.789 49.5307 163.626 49.1269C163.551 49.0531 163.551 48.8531 163.461 48.7806C163.258 48.5777 163.057 47.8798 162.818 47.6785C162.742 47.6115 162.68 47.5302 162.635 47.4399C162.577 47.2238 162.578 46.9882 162.652 46.7801L162.8 46.4865C162.811 46.4712 162.817 46.4513 162.817 46.431C162.8 46.3407 162.872 46.2852 162.89 46.2305C162.924 46.1568 162.974 46.0958 163.038 46.047C163.112 46.0271 163.129 45.972 163.167 45.8987C163.23 45.7462 163.282 45.5856 163.313 45.422C163.343 45.3148 163.355 45.2038 163.35 45.0932C163.319 45.0504 163.306 44.9974 163.313 44.9449C163.296 44.7063 163.002 44.0296 162.836 43.9562C162.827 43.9452 162.813 43.9393 162.801 43.9368C162.707 43.8414 162.594 43.7673 162.47 43.7177C162.433 43.6804 162.397 43.7177 162.341 43.791C162.32 43.8448 162.281 43.8901 162.231 43.9194C162.194 43.9368 162.176 43.9368 162.158 43.9749C162.084 44.1033 161.974 44.2135 161.902 44.3588L161.736 44.6898C161.692 44.7465 161.657 44.7965 161.626 44.8554C161.588 44.969 161.552 45.0249 161.515 45.1114C161.46 45.2042 161.442 45.3377 161.387 45.422C161.442 45.5148 161.387 45.6254 161.37 45.6779C161.296 45.7733 161.264 45.8932 161.277 46.0089C161.24 46.0826 161.26 46.1195 161.222 46.1551C161.222 46.3954 161.405 47.1717 161.568 47.6603L161.349 48.0442C161.001 48.6141 160.25 49.3286 159.824 49.5125C159.181 49.7129 158.54 49.5481 158.594 49.3091C158.594 49.2353 158.668 48.9133 158.82 48.2832C158.93 48.137 158.911 47.9344 158.986 47.7713C159.059 47.623 159.132 47.4577 159.114 47.3475C159.224 47.178 159.188 47.3124 159.243 47.178C159.408 46.7742 159.426 46.4085 159.553 46.0593C159.498 46.0216 159.536 45.9487 159.498 45.8758C159.332 45.783 159.571 45.7657 159.297 45.783C159.223 45.7665 159.242 45.7457 159.059 45.8004C158.955 45.9263 158.873 46.0699 158.82 46.2216C158.659 46.4288 158.518 46.65 158.399 46.8839C158.306 47.0848 158.288 47.0123 158.173 47.2501C158.115 47.3696 158.041 47.4806 157.952 47.5789C157.806 47.762 157.714 47.6717 157.568 47.8726C157.33 48.1662 156.743 48.1827 156.304 48.4222C156.194 48.4594 156.156 48.1488 156.078 48.0565C155.985 47.9827 156.078 47.7077 156.115 47.5615C156.195 47.3937 156.25 47.214 156.279 47.0301C156.316 46.92 156.354 46.4076 156.445 46.278C156.555 45.8385 156.953 44.9783 157.069 44.519C157.069 44.4457 157.086 44.3711 157.031 44.3355C156.958 44.2605 156.958 44.1698 156.886 44.1524C156.795 44.0194 156.642 43.9427 156.482 43.9495C156.298 43.9664 156.499 44.0978 156.224 44.2431C156.133 44.3359 156.005 44.3359 155.878 44.3914C155.785 44.4444 155.692 44.4817 155.639 44.6101C155.511 44.8084 155.4 45.0173 155.308 45.2347C155.142 45.619 154.153 47.1416 154.061 47.5624L153.997 47.7713C153.86 47.9738 153.711 48.1666 153.549 48.3493L153.255 48.6052L152.852 48.8446C152.739 48.9133 152.623 48.9747 152.503 49.0281C152.38 49.0764 152.251 49.1074 152.119 49.1209C152.051 49.1209 151.989 49.0857 151.953 49.0281C151.882 48.8815 151.827 48.7281 151.788 48.5705C151.77 48.4391 151.79 48.3052 151.843 48.184L152.099 47.6721C152.118 47.6348 152.136 47.6166 152.136 47.5793C152.119 47.3963 152.099 47.2136 151.971 47.0484L151.86 46.9378C151.747 46.8094 151.621 46.792 151.465 46.8094L151.078 47.4344C150.985 47.5759 150.881 47.7103 150.767 47.8357L150.619 48.0014C150.548 48.123 150.449 48.2264 150.345 48.312C150.131 48.4751 149.93 48.6527 149.74 48.8438L149.667 48.8993C149.667 48.8641 149.647 48.8438 149.667 48.8256C149.706 48.6137 149.78 48.4094 149.886 48.2213C149.904 48.1802 149.929 48.1429 149.959 48.1107L150.145 47.8548C150.28 47.6514 150.427 47.4552 150.584 47.267L150.809 47.0284C150.979 46.7899 151.205 46.6072 151.414 46.4043V46.3873C151.555 46.2725 151.71 46.1754 151.874 46.0936C152.018 46.0352 152.09 45.8733 152.037 45.7275L151.982 45.5818C151.908 45.4517 151.781 45.3559 151.671 45.2508C151.646 45.2279 151.613 45.2156 151.581 45.2135C151.488 45.2135 151.415 45.1228 151.323 45.1228C151.31 45.1207 151.296 45.1139 151.287 45.1033C151.25 45.0296 151.177 45.0296 151.084 45.0127C151.047 45.008 151.009 44.9957 150.974 44.9754C150.846 44.9402 150.7 44.9402 150.59 44.8847H150.534C150.418 44.8872 150.301 44.8978 150.186 44.9203C150.129 44.9228 150.073 44.9351 150.02 44.9576C149.762 45.1118 149.528 45.3029 149.325 45.5254L148.517 46.5716C148.5 46.5886 148.482 46.6089 148.482 46.6271C148.309 46.8339 148.16 47.0615 148.041 47.3043C147.911 47.5602 147.86 47.8471 147.895 48.1323C147.95 48.7018 148.244 49.1044 148.776 49.3188C148.871 49.354 148.962 49.3968 149.05 49.4472C149.284 49.5663 149.554 49.5862 149.803 49.5027C149.948 49.4472 150.096 49.429 150.206 49.2769C150.215 49.268 150.229 49.2616 150.242 49.2595L150.445 49.1315C150.562 49.0366 150.693 48.962 150.829 48.8929C150.947 49.0328 151.098 49.14 151.268 49.2044L151.361 49.2595C151.544 49.4078 151.765 49.443 151.984 49.5159H152.149C152.298 49.4803 152.443 49.4803 152.571 49.4248C152.719 49.3697 152.865 49.3697 153.03 49.3324C153.158 49.2972 153.277 49.2353 153.379 49.1489C153.489 49.0387 153.635 48.923 153.745 48.8006C153.768 48.7667 153.798 48.7408 153.838 48.7268C153.91 48.6874 153.972 48.6323 154.021 48.5662C154.091 48.9701 154.162 49.0972 154.552 49.3319C154.68 49.4053 155.102 49.4976 155.267 49.4976C155.468 49.4421 155.872 49.4603 156.183 49.2942C156.493 49.0938 156.971 48.8425 157.227 48.5789V48.6539C157.058 49.2769 157.153 49.587 157.247 50.157C157.357 50.7799 158.843 50.707 159.189 50.5057C159.251 50.4422 159.344 50.4206 159.428 50.4502C159.483 50.3905 159.553 50.346 159.631 50.3218C159.754 50.2629 159.866 50.1824 159.96 50.0833C160.125 50.0078 160.143 49.9532 160.308 49.9176C160.705 49.5815 161.067 49.2065 161.39 48.7984C161.482 48.7637 161.463 48.7082 161.5 48.67C161.582 48.5997 161.677 48.3391 161.774 48.1298C161.798 48.1671 161.818 48.2069 161.831 48.2425C162.014 48.5713 162.197 48.8853 162.308 49.3069C162.527 49.8566 162.637 50.0396 161.94 50.6816C161.58 51.0096 161.26 51.3787 160.987 51.7808C160.843 51.98 160.738 52.2046 160.676 52.441C160.642 52.5355 160.624 52.6342 160.621 52.7347C160.658 52.9376 160.676 53.1207 160.786 53.2656C160.86 53.3394 160.879 53.4487 160.915 53.5593C160.988 53.7076 161.063 53.7423 161.208 53.6521C161.248 53.6521 161.284 53.6296 161.301 53.5966C161.357 53.5966 161.391 53.5593 161.447 53.5593L161.412 53.6521C161.502 53.6877 161.502 53.6877 161.54 53.669C161.646 53.6453 161.745 53.6017 161.834 53.5411C161.851 53.4855 161.908 53.4856 161.944 53.4483C161.961 53.4856 161.961 53.4856 161.997 53.5034V53.5589C162.163 53.4483 162.163 53.4483 162.236 53.4483L161.907 53.8894L161.981 53.8339C162.117 53.8093 162.241 53.7385 162.329 53.6305C162.329 53.614 162.346 53.614 162.366 53.5957C162.48 53.5402 162.64 53.4856 162.713 53.3699L162.861 53.1864C163.007 53.0385 163.503 52.5262 163.594 52.3236C163.657 52.202 163.731 52.0859 163.814 51.9778L163.87 51.9406C163.909 51.9206 163.94 51.8872 163.96 51.8478C163.997 51.7342 163.96 51.5367 164.036 51.4261C164.036 51.4261 164.016 51.4092 164.053 51.3528C164.036 51.2973 164.069 51.26 164.053 51.2066C164.163 50.7659 164.163 50.8384 164.09 50.4723C164.09 49.9782 164.639 49.9782 165.005 49.7023L165.206 49.5332C165.409 49.3849 165.592 49.2023 165.793 49.0921L165.867 49.0188L166.254 48.69L166.492 48.4641C166.582 48.3539 166.638 48.2082 166.731 48.0984C166.804 47.9848 166.859 47.8734 166.896 47.7497C166.896 47.6946 166.932 47.6573 166.952 47.6018C167.022 47.4882 167.005 47.3827 166.967 47.2729L166.962 47.3132ZM162.563 51.421C162.488 51.6045 162.508 51.7872 162.415 51.952C162.361 52.1177 162.286 52.2787 162.196 52.4291C162.179 52.4753 162.152 52.5198 162.121 52.5575C162.027 52.7516 161.89 52.9207 161.719 53.0521L161.493 53.2906L161.267 53.4737C161.21 53.5334 161.128 53.5415 161.066 53.4936L160.841 53.2377C160.781 53.1716 160.765 53.0762 160.803 52.9991C160.833 52.9033 160.852 52.805 160.859 52.7054C160.905 52.613 160.972 52.533 161.044 52.4669C161.116 52.4012 161.185 52.3207 161.227 52.2283C161.28 52.1045 161.377 52.0058 161.501 51.9524C161.572 51.9342 161.636 51.8961 161.687 51.8423C161.905 51.6164 162.565 50.7786 162.565 51.3655C162.565 51.3825 162.565 51.421 162.548 51.421H162.563ZM52.0531 21.9013C52.0539 21.7356 51.9811 21.5775 51.8539 21.4708C51.7484 21.3763 51.6336 21.2919 51.512 21.219C51.267 21.0779 50.9912 20.9851 50.789 20.7783C50.7611 20.7589 50.7301 20.7432 50.6984 20.7322C50.5564 20.6656 50.4327 20.5656 50.3382 20.4406C50.2305 20.2932 50.1102 20.155 49.9784 20.0279C49.7267 19.7567 49.4665 19.4893 49.2873 19.1562C49.1754 18.9554 49.0212 18.7821 48.8356 18.6477C48.6949 18.5422 48.5648 18.4231 48.4474 18.2926C48.2224 18.0252 47.9419 17.8227 47.6948 17.5862C47.4406 17.3455 47.1524 17.2155 46.8321 17.1184L46.66 17.0608C46.5952 17.0413 46.535 17.0078 46.4837 16.9637C46.3956 16.8777 46.2829 16.8205 46.1638 16.7942C45.9252 16.7413 45.7028 16.6311 45.5172 16.4722C45.2718 16.2557 44.9981 16.0794 44.7472 15.876C44.4874 15.6611 44.2158 15.4565 43.9967 15.1963C43.923 15.1069 43.826 15.0395 43.7162 15.0018C43.3603 14.8776 43.1094 14.631 42.884 14.3441C42.7848 14.2068 42.6662 14.0844 42.5331 13.9797C42.3577 13.8517 42.1971 13.7043 42.0543 13.5407C41.8089 13.2648 41.4822 13.0885 41.2042 12.8512C41.1627 12.8275 41.1203 12.8068 41.0758 12.7894C40.9068 12.6856 40.6877 12.6351 40.5529 12.4843C40.3321 12.2457 40.0855 12.033 39.8186 11.8486C39.741 11.7936 39.6842 11.7097 39.5893 11.6791C39.4431 11.6397 39.344 11.5423 39.2431 11.4385C39.1634 11.355 39.0736 11.2774 38.9872 11.2088C38.8105 11.0723 38.6469 10.9189 38.4999 10.7511C38.3672 10.6054 38.2452 10.4443 38.0782 10.3426C37.7405 10.1375 37.4761 9.85109 37.2354 9.5515C36.968 9.22267 36.593 9.06164 36.2777 8.81417C36.1561 8.71925 36.0179 8.64467 35.9133 8.52941C35.6976 8.28533 35.459 8.06286 35.2001 7.86497C35.0637 7.76539 34.9378 7.6514 34.8251 7.52512C34.6488 7.32002 34.4183 7.159 34.2844 6.92297C34.17 6.71406 34.0026 6.53948 33.7988 6.41744C33.403 6.18353 33.0644 5.87673 32.7424 5.56527C32.5839 5.41272 32.4178 5.27839 32.197 5.22627C32.1499 5.21822 32.1063 5.19534 32.0732 5.16017C31.8266 4.87541 31.4914 4.72497 31.1702 4.54869C31.1224 4.52496 31.0825 4.48725 31.0554 4.44106C30.7927 3.97536 30.4753 3.5372 30.1087 3.15455C30.0859 3.1304 30.0558 3.10159 30.0532 3.07277C30.0405 2.90327 29.9401 2.80326 29.7935 2.73377C29.7494 2.70538 29.7079 2.66766 29.6803 2.62063C29.4176 2.36934 29.1858 2.08204 28.8964 1.85661C28.7951 1.77736 28.7133 1.67566 28.6163 1.59091C28.3892 1.39684 28.1997 1.16716 27.976 0.970543L27.3959 0.498061C27.1132 0.273473 26.8179 0.249743 26.5022 0.361613C26.3102 0.429413 26.1314 0.529418 25.9462 0.612897C25.6437 0.747226 25.3742 0.951898 25.0703 1.0786C24.9013 1.14937 24.7483 1.2553 24.6199 1.38921C24.4724 1.54812 24.3097 1.6905 24.1326 1.8155C24.0165 1.89771 23.9173 2.00195 23.841 2.1223C23.7745 2.22357 23.6872 2.31002 23.5851 2.37612C23.3287 2.54351 23.0982 2.74691 22.9007 2.98082C22.7456 3.16642 22.5647 3.32872 22.3638 3.46389L20.1701 5.10593L19.8853 5.36569L19.1527 6.00597C18.9438 6.18692 18.7217 6.35472 18.4903 6.50473C18.2585 6.65516 18.0734 6.8467 17.87 7.02552C17.6246 7.23994 17.3602 7.42935 17.1466 7.6764C16.8996 7.9565 16.5771 8.151 16.2923 8.38703C16.2898 8.38915 16.2809 8.38491 16.2584 8.38025L16.2144 8.15312L15.8788 7.00603C15.8563 6.93484 15.8254 6.86661 15.786 6.80305C15.6728 6.59795 15.5711 6.38142 15.4991 6.15598C15.3936 5.80045 15.0728 5.55171 14.7024 5.53815L14.2982 5.53603C14.0753 5.53392 13.8435 5.58222 13.6295 5.51358C13.2613 5.4034 12.8723 5.35933 12.4883 5.38136L11.2099 5.40933C10.7793 5.43603 10.3454 5.40933 9.91066 5.40721C9.74963 5.40721 9.58606 5.41865 9.42504 5.44281C9.06739 5.49917 8.7356 5.63731 8.39024 5.72333C8.09488 5.79664 7.86479 5.96868 7.64656 6.16022C7.5224 6.27039 7.43172 6.40854 7.38383 6.56702C7.30459 6.79712 7.20967 7.02128 7.09907 7.23824C6.90415 7.63402 6.79016 8.06455 6.76346 8.50483C6.72956 9.14724 6.75668 9.7888 6.77236 10.4337C6.77872 10.7316 6.81855 11.0278 6.89143 11.3168C6.93762 11.4999 6.95923 11.6897 6.95754 11.8796L6.93762 13.0979L6.96432 16.0023L6.97322 16.454C6.97788 16.5294 6.94525 16.6023 6.88253 16.6438C6.76558 16.7362 6.65498 16.8366 6.55158 16.9438C6.27784 17.2239 5.98673 17.4862 5.60916 17.6303C5.4706 17.6858 5.3422 17.7638 5.22948 17.8617C5.09304 17.9833 4.93625 18.0803 4.76632 18.1486C4.64471 18.1947 4.54046 18.2634 4.43749 18.3477C4.27647 18.4706 4.12349 18.6032 3.97899 18.7448C3.92094 18.8024 3.85484 18.8507 3.78195 18.8884C3.65398 18.966 3.54168 19.0651 3.451 19.18L2.773 20.0631C2.66749 20.2054 2.53104 20.3215 2.37383 20.4033C2.17551 20.4923 1.99754 20.6207 1.85049 20.7809C1.5937 21.0589 1.30386 21.3051 0.988162 21.5136C0.619498 21.7589 0.352535 22.0958 0.117778 22.4628C0.0910812 22.5102 0.0724362 22.5615 0.0622662 22.6153C-0.010619 22.856 -0.0195178 23.1115 0.0355698 23.3573L0.238546 24.1167C0.38474 24.4963 0.655517 24.7235 1.09071 24.7014C1.22631 24.7002 1.36233 24.7074 1.49709 24.7235C1.79922 24.748 2.10813 24.7464 2.40391 24.8074C2.8158 24.8866 3.23404 24.9264 3.65313 24.9264L4.44512 24.9286C4.91972 24.9455 5.3922 24.9264 5.86469 24.8709C5.92401 24.8595 5.9863 24.8909 6.013 24.9485C6.05495 25.0163 6.07656 25.0985 6.07232 25.1743C6.06766 25.5057 6.08927 25.8367 6.12911 26.1655C6.18207 26.5405 6.14606 26.9227 6.1486 27.3024C6.14648 27.7092 6.17529 28.1126 6.2325 28.5143C6.29394 28.8538 6.32318 29.1979 6.32064 29.5428C6.31598 29.672 6.32234 29.8008 6.33801 29.9292C6.35793 30.0776 6.35496 30.2246 6.33801 30.3729C6.29606 30.7369 6.25877 31.1035 6.30411 31.4679C6.36768 31.9594 6.35708 32.4518 6.36174 32.9464L6.36429 33.1154L6.43463 35.0003C6.43463 35.0278 6.43717 35.0554 6.44183 35.0821C6.49523 35.5668 6.50667 36.0546 6.47743 36.5406L6.4465 37.1894L6.44183 38.1852L6.45709 39.3827C6.47489 39.6666 6.47192 39.9514 6.44819 40.2349L6.36895 41.3493L6.40242 42.8299C6.402 43.0609 6.43378 43.2901 6.49777 43.5117C6.65583 43.9774 6.65201 44.4584 6.62786 44.9368L6.59057 45.6059C6.57532 45.9462 6.63252 46.2809 6.63252 46.6191V50.1748C6.62871 50.5892 6.69142 51.0011 6.81812 51.3952C6.87406 51.5757 6.97025 51.741 7.10034 51.8787C7.25289 52.03 7.41646 52.1707 7.5902 52.2974C8.04276 52.6533 8.52499 52.9694 9.03137 53.2423C9.19452 53.3394 9.38012 53.3906 9.56996 53.3906C10.0293 53.3855 10.4912 53.3817 10.9429 53.5034C11.04 53.5313 11.1421 53.5423 11.2429 53.5347C11.5451 53.5033 11.854 53.5474 12.1481 53.4394C12.168 53.4347 12.19 53.4347 12.2048 53.4368H13.1956C13.7778 53.4262 14.3613 53.45 14.9474 53.508L15.594 53.5644C15.9915 53.5868 16.3851 53.5868 16.7818 53.6945C16.9318 53.7407 17.0915 53.7432 17.2428 53.7012C17.5517 53.5995 17.8645 53.5995 18.1857 53.5673C18.6649 53.5233 19.1463 53.511 19.6268 53.5296C19.9243 53.5292 20.2209 53.5614 20.5116 53.6267C20.6947 53.6729 20.8867 53.6928 21.0765 53.6847C21.1557 53.6822 21.246 53.6673 21.3172 53.7072C21.5646 53.8555 21.8291 53.7974 22.0893 53.7775C22.3185 53.761 22.5486 53.7576 22.7787 53.7754C22.8605 53.7826 22.9478 53.7826 23.0215 53.7682C23.7109 53.647 24.4 53.7025 25.0873 53.7614L26.281 53.8101H26.7488L27.6798 53.8457L28.2447 53.883C28.6663 53.9 29.0833 53.8491 29.5032 53.8457L31.8385 53.8525C32.2182 53.8678 32.6 53.8657 32.9708 53.9428C33.3191 54.0246 33.6793 54.0576 34.0369 54.0402C34.1712 54.0313 34.3085 54.0313 34.4437 54.0377C34.5797 54.0445 34.7158 54.0271 34.8454 53.9868C35.0255 53.9275 35.2145 53.9004 35.4035 53.9072C35.4433 53.9097 35.4827 53.8945 35.5251 53.8966C35.6972 53.9034 35.8518 53.8186 36.0167 53.7991C36.4862 53.7398 36.9633 53.7462 37.4358 53.7258C38.1312 53.6974 38.8024 53.5567 39.4698 53.4122C39.8656 53.3216 40.261 53.2004 40.6834 53.1851C40.7233 53.1851 40.7652 53.1783 40.7966 53.1652C40.9432 53.1101 41.1008 53.0919 41.2559 53.1122C41.814 53.1563 42.3632 53.0682 42.9162 53.0152C43.3048 52.9779 43.6883 52.8783 44.0726 52.8059C44.1065 52.8016 44.1387 52.7906 44.1679 52.7728C44.298 52.6821 44.448 52.6364 44.5828 52.558C44.7637 52.4524 44.9472 52.3461 45.082 52.1804L45.5761 51.5872C45.6752 51.4668 45.7494 51.3278 45.7951 51.1787L45.9981 50.5405C46.1265 50.1718 46.1113 49.7921 46.093 49.415C46.0663 49.1196 46.0803 48.8218 46.135 48.5302C46.221 48.126 46.2875 47.7242 46.2346 47.3051C46.1892 47.0098 46.1702 46.7119 46.1778 46.4136C46.2303 45.8068 46.2316 45.1974 46.1825 44.5902C46.1354 44.0571 46.135 43.5215 46.1803 42.988C46.207 42.6418 46.1973 42.2985 46.1956 41.9532C46.1909 41.5599 46.1074 41.1735 46.1049 40.7811C46.1049 40.5802 46.1422 40.3743 46.0473 40.181C46.0384 40.1488 46.0363 40.1149 46.0401 40.0819L46.0252 38.1924L46.038 36.2825C46.0579 35.8698 46.0312 35.4579 46.0269 35.0397L46.007 30.8361C46.0091 30.7746 46.0053 30.7136 45.996 30.6526C45.9608 30.4725 45.9579 30.2882 45.9871 30.1076C46.0841 29.4763 46.0265 28.8385 46.1002 28.205C46.1422 27.8012 46.0833 27.3931 46.0663 26.9893C46.0418 26.3511 46.0617 25.7159 46.124 25.0824C46.1312 25.0048 46.1613 24.9786 46.2371 24.9769C46.3867 24.9714 46.535 24.9972 46.674 25.0519C46.9299 25.1447 47.2037 25.165 47.4554 25.2667C47.5122 25.2883 47.5728 25.2981 47.6338 25.2955C48.0423 25.2841 48.444 25.3328 48.85 25.3506L49.5407 25.3527C49.8072 25.3612 50.0691 25.2845 50.289 25.1341C50.3466 25.0879 50.4153 25.0548 50.4856 25.0345C50.6518 24.9938 50.8035 24.9095 50.9246 24.7892C51.2119 24.5421 51.5162 24.315 51.834 24.1095C51.9234 24.0569 51.984 23.9667 51.998 23.8641L52.0319 23.6654C52.0912 23.0691 52.0565 22.4789 52.0548 21.8776L52.0531 21.9013Z" fill="#3973B9"/>
<path d="M14.8006 31.7929C14.751 31.9823 14.7226 32.1768 14.7171 32.373C14.6861 32.8743 14.7103 33.3744 14.7217 33.8761C14.7264 34.0922 14.7128 34.3109 14.759 34.5244C14.8167 34.7804 14.8582 35.0329 14.8853 35.2986C14.951 35.9885 15.1722 36.6546 15.532 37.247C15.629 37.4165 15.7506 37.5581 15.8938 37.6839C16.2417 37.9877 16.649 38.2161 17.0897 38.3551C17.1867 38.3865 17.2922 38.3814 17.385 38.3399C17.6257 38.2267 17.7605 37.967 17.7096 37.7072C17.5833 37.1178 17.4316 36.533 17.4181 35.9262L17.321 31.9446L17.3121 30.7882L17.2481 28.9212L17.1905 26.9715C17.1948 26.6655 17.1176 26.3638 16.9676 26.0973C16.7418 25.7108 16.3981 25.5807 15.9638 25.6935C15.5913 25.793 15.2468 25.9769 14.9573 26.232C14.7548 26.3931 14.595 26.6007 14.4895 26.8367C14.4743 26.8812 14.4518 26.9232 14.4238 26.9605C14.1641 27.2452 13.9954 27.5847 13.8323 27.9211C13.4289 28.7936 13.075 29.6877 12.7729 30.6005C12.5937 31.1425 12.4534 31.6976 12.3538 32.2599C12.3076 32.2374 12.3055 32.2205 12.3055 32.2035L12.4026 29.9127C12.4026 29.8704 12.4047 29.831 12.4115 29.7911C12.4369 29.6098 12.422 29.4259 12.3695 29.2508C12.3462 29.1873 12.3356 29.1191 12.3386 29.0517L12.4267 28.4911C12.5043 28.1046 12.5305 27.7101 12.5085 27.3173L12.4555 24.682C12.4509 24.4392 12.4911 24.1964 12.5704 23.9667C12.6424 23.7908 12.6856 23.6044 12.6988 23.4145L12.7327 20.8945C12.7301 20.7657 12.7017 20.639 12.6492 20.5216C12.6072 20.3873 12.4797 20.2957 12.3326 20.3165C12.0335 20.3449 11.7368 20.3627 11.4805 20.5746C11.2309 20.7826 11.03 21.0436 10.8927 21.3386C10.8292 21.4754 10.8334 21.628 10.7957 21.7733L10.4563 23.4421C10.3592 24.0535 10.3635 24.6714 10.2999 25.2828L10.2406 26.2342L10.1346 27.3067L10.0397 28.989L9.97616 31.5442C9.94226 31.9086 9.97361 32.2769 9.98506 32.6404C9.99141 33.2294 10.0406 33.8172 10.1329 34.399C10.1554 34.5117 10.1707 34.6257 10.1791 34.741C10.2054 35.4999 10.3363 36.2512 10.569 36.9746C10.6423 37.2059 10.8135 37.3928 11.0368 37.4864C11.2618 37.5801 11.5169 37.5674 11.7318 37.4525C11.9517 37.3314 12.1466 37.1695 12.3055 36.9758C12.347 36.9305 12.3699 36.8716 12.3695 36.8101C12.3805 36.1432 12.5615 35.5143 12.8 34.8982L13.025 34.2477L13.703 31.6349C13.9179 30.8446 14.1904 30.0717 14.5243 29.3216C14.5976 29.1695 14.6942 29.0296 14.8112 28.9068C14.8552 28.9292 14.8531 28.9508 14.8531 28.9631L14.8336 31.5226C14.8332 31.6107 14.8222 31.6976 14.8001 31.7828L14.8006 31.7929ZM9.15535 24.3201C9.24349 24.3154 9.32443 24.2921 9.41511 24.2781C9.68631 24.2341 9.84352 24.0595 9.91386 23.8082C9.94776 23.6637 9.97319 23.5171 9.98929 23.3692L10.1613 22.2657C10.1923 21.9369 10.2656 21.6102 10.3876 21.3013L10.6063 20.6902C10.7071 20.4097 10.7677 20.1161 10.7847 19.8182L10.822 18.7223L10.8775 16.4693L10.8889 16.2862C10.8864 16.1845 10.9262 16.1472 11.0321 16.1451C11.2245 16.143 11.4118 16.1692 11.5995 16.1807C11.9614 16.1959 12.3148 16.1434 12.6721 16.1129C12.8072 16.1057 12.9348 16.0442 13.025 15.943C13.1242 15.8298 13.1831 15.6756 13.1971 15.5192C13.2369 15.2832 13.1996 15.0467 13.1861 14.8107C13.1725 14.5742 13.0378 14.4547 12.8022 14.4717L12.1805 14.5378L11.1495 14.6374C10.9554 14.6526 10.9554 14.6484 10.9508 14.445L10.9461 14.2221L10.8046 11.2999C10.7804 10.6999 10.7821 10.0948 10.6745 9.47482C10.9347 9.45957 11.169 9.49432 11.4089 9.51042L13.1306 9.62526C13.3903 9.64517 13.6386 9.64051 13.8764 9.5083C14.1586 9.35151 14.3111 9.13328 14.3281 8.81504C14.3349 8.58919 14.3154 8.354 14.2688 8.12857C14.212 7.82177 13.995 7.65185 13.681 7.64549L13.4776 7.65227L11.0482 7.75185L9.66682 7.76075C9.51766 7.76075 9.36977 7.78067 9.22612 7.82008C8.80025 7.93703 8.62609 8.24595 8.74686 8.67182C8.76508 8.72224 8.77525 8.77521 8.77779 8.8286L8.72482 10.799L8.61168 13.0903L8.49557 21.0335C8.48455 21.2631 8.49091 21.4928 8.50023 21.7246C8.51718 22.1793 8.61337 22.6285 8.66973 23.0734C8.70914 23.3929 8.67863 23.7201 8.79982 24.0357C8.87737 24.2391 8.96085 24.3336 9.17739 24.3184L9.15535 24.3201Z" fill="white"/>
<path d="M14.1585 15.0438L13.5737 16.732C13.4195 17.2333 13.3064 17.7376 13.3466 18.2685C13.3513 18.3147 13.3487 18.3634 13.3394 18.4096C13.2381 18.9859 13.2263 19.566 13.2051 20.3012C13.1881 21.0559 13.3182 21.9433 13.5737 22.8128C13.6869 23.212 13.8827 23.5828 14.1539 23.8964C14.4289 24.2413 14.8471 24.4413 15.2882 24.4388L15.8556 24.4519C16.5663 24.5006 17.2701 24.2904 17.8379 23.8603C18.3172 23.5006 18.6545 23.0196 18.9592 22.5115C19.0122 22.4234 19.0473 22.3285 19.0651 22.2268C19.1024 22.0263 19.0088 21.9026 18.8168 21.8607C18.6274 21.8276 18.4325 21.8742 18.2782 21.989C18.0185 22.1585 17.7909 22.3776 17.6142 22.6361C17.4604 22.8531 17.2405 23.0149 16.9875 23.0972C16.7866 23.165 16.6142 23.0747 16.4353 23.0264C16.201 22.9777 16.009 22.8107 15.9298 22.5848C15.6319 21.8208 15.4777 21.0424 15.5416 20.2233C15.5463 20.1555 15.5586 20.089 15.5683 20.0228C15.573 19.9233 15.6476 19.8419 15.745 19.8305C15.8645 19.8088 15.9811 19.7728 16.0912 19.7228C16.5989 19.4821 17.0862 19.2003 17.5481 18.88C17.6511 18.8139 17.7392 18.7266 17.8062 18.624C18.0511 18.2266 18.2609 17.8075 18.4278 17.3723C18.6325 16.8227 18.7634 16.2595 18.7384 15.6663C18.7177 15.3701 18.6655 15.0768 18.5821 14.7921C18.5024 14.4853 18.4142 14.1899 18.1748 13.9467C18.0028 13.7772 17.8358 13.6179 17.6011 13.5513C17.1684 13.417 16.7409 13.3106 16.2722 13.4212C15.912 13.5073 15.5395 13.5428 15.1976 13.6992C15.1158 13.7306 15.0442 13.784 14.9903 13.8535L14.256 14.8552C14.2106 14.9141 14.1746 14.9798 14.1488 15.0493L14.1585 15.0438ZM15.7518 18.2465C15.8052 17.9609 15.8374 17.6723 15.8489 17.382C15.9281 16.4023 16.2595 15.4972 16.6764 14.6137C16.7019 14.5336 16.7849 14.4874 16.8663 14.5077C16.9193 14.5166 16.9794 14.5192 17.0273 14.5247C17.0951 14.5268 17.1574 14.5709 17.1799 14.6378C17.2633 14.7988 17.31 14.9798 17.3184 15.1612L17.3256 16.1765C17.3248 16.8405 17.0786 17.4816 16.6345 17.9753L16.3035 18.3596C16.126 18.5164 15.9213 18.6393 15.6989 18.7215C15.7078 18.5605 15.7256 18.4016 15.7518 18.2422V18.2465ZM24.5451 39.1251C24.5451 38.9726 24.4883 38.8298 24.3726 38.7255C24.3001 38.6552 24.2366 38.5763 24.1828 38.4916C24.0417 38.2768 23.8077 38.1454 23.5543 38.1352L22.9666 38.0958C22.589 38.0678 22.2882 38.2242 22.0089 38.4577C21.8691 38.5793 21.7814 38.7501 21.7636 38.9348C21.7284 39.1755 21.7259 39.4205 21.7568 39.6633C21.7962 40.0091 21.9827 40.3222 22.2687 40.5214C22.7581 40.8718 23.2853 40.8701 23.8374 40.7472C23.9128 40.7349 23.9811 40.6993 24.0319 40.6438C24.3425 40.2951 24.6277 39.9353 24.5404 39.3726L24.5379 39.1179L24.5451 39.1251Z" fill="white"/>
<path d="M20.3775 49.0226C20.1987 48.5972 20.1305 48.1332 20.1788 47.6743C20.1898 47.5607 20.122 47.451 20.1436 47.3323L20.2317 46.4649L20.311 45.2491C20.3156 44.8097 20.2762 44.3703 20.258 43.9292L20.1673 41.7367C20.1504 41.3379 20.094 40.9426 19.9983 40.5514C19.944 40.2997 19.8483 40.059 19.7156 39.8383C19.5745 39.6124 19.3936 39.4539 19.1198 39.4255C18.93 39.395 18.7355 39.4234 18.5634 39.5073C18.3232 39.64 18.0693 39.7654 17.8702 39.9484C17.5151 40.2671 17.2613 40.6828 17.1396 41.1443L16.9134 42.0066C16.8002 42.4236 16.6866 42.8452 16.4985 43.2384C16.3854 43.477 16.2981 43.7245 16.2209 43.9758L15.9336 44.7792C15.9167 44.8572 15.8781 44.9296 15.8205 44.9885C15.7612 44.9423 15.7807 44.8843 15.7807 44.8343L15.7739 43.0859C15.7713 42.8566 15.7938 42.6274 15.8374 42.3998C15.9086 42.0613 15.9171 41.7129 15.862 41.371C15.7565 40.6557 15.679 39.9357 15.423 39.2505C15.3476 39.023 15.1844 38.8391 14.9683 38.7408C14.7611 38.6395 14.5391 38.5713 14.3107 38.5378C14.081 38.5039 13.845 38.5026 13.6323 38.6234C13.2254 38.8505 12.9263 39.2315 12.8025 39.6806L12.6216 40.3891C12.478 40.9371 12.3051 41.4773 12.2907 42.0562C12.2818 42.3939 12.2623 42.749 12.0453 43.0469C12.0224 43.0749 12.03 43.1249 12.0224 43.1639C11.9631 43.5749 11.8546 43.9737 11.705 44.3576C11.6881 44.3995 11.6881 44.4525 11.6317 44.4677C11.6008 44.4398 11.6165 44.4042 11.6186 44.3724C11.6453 43.947 11.6076 43.5207 11.6097 43.0944C11.6122 42.8939 11.5148 42.7168 11.4855 42.5248L11.3754 41.7409C11.3313 41.4608 11.3076 41.1739 11.2097 40.9065C11.1618 40.7739 11.1317 40.6349 11.1215 40.4938C11.0842 40.09 11.0177 39.6883 10.8435 39.3154C10.7974 39.187 10.7304 39.07 10.6317 38.9734C10.3465 38.7064 9.97147 38.5568 9.58119 38.5518C9.36635 38.5429 9.16041 38.6369 9.02735 38.8064C8.82395 39.0556 8.70954 39.3654 8.70276 39.6874C8.6875 40.2502 8.72945 40.8129 8.82903 41.3667C8.8926 41.6829 8.92184 42.0049 8.91463 42.327C8.89938 42.9164 8.92989 43.5054 8.95658 44.0957L8.99642 45.5788C9.00743 46.0687 9.06973 46.5564 9.02735 47.048C8.96803 47.737 9.04981 48.4264 9.11549 49.1154C9.1282 49.2544 9.11761 49.4027 9.17185 49.535C9.26804 49.76 9.40491 49.9646 9.57611 50.1392C9.86765 50.4265 10.2088 50.4786 10.5579 50.2608C10.9313 50.0413 11.2118 49.693 11.3457 49.2807L11.8978 47.5221L12.1525 46.6679C12.3466 45.8576 12.561 45.0521 12.9161 44.2949C12.9407 44.2313 12.9559 44.1648 12.9623 44.0978C12.9932 43.872 12.989 43.6461 13.0907 43.4423C13.1657 43.2918 13.2195 43.1312 13.2517 42.9655C13.3382 42.5549 13.3903 42.138 13.4085 41.7189C13.3996 41.6422 13.4144 41.5646 13.4505 41.496C13.4615 41.5201 13.4704 41.5451 13.4772 41.5714C13.517 41.9206 13.5365 42.2719 13.5365 42.6236L13.5318 45.9983C13.5301 46.1127 13.5208 46.2267 13.5034 46.3403C13.428 46.8501 13.3492 47.3573 13.3708 47.8772L13.4081 49.1205C13.4013 49.5286 13.5382 49.8943 13.7017 50.2477C13.9674 50.813 14.5721 50.8948 15.09 50.4291C15.1052 50.4155 15.1166 50.3977 15.123 50.3778C15.2027 50.1125 15.3501 49.8769 15.401 49.5981C15.5468 48.8074 15.7586 48.0277 16.1493 47.3103C16.1739 47.27 16.1913 47.2264 16.2002 47.1802C16.2531 46.8492 16.3693 46.5399 16.4917 46.2314L17.3947 43.7724C17.4015 43.7474 17.4117 43.719 17.4541 43.73C17.4587 43.7453 17.463 43.7639 17.4655 43.7868L17.521 45.3093C17.5358 45.6047 17.5164 45.9055 17.596 46.1966C17.638 46.3623 17.6596 46.5356 17.6621 46.7047L17.7833 49.4244C17.7905 49.6612 17.8655 49.8913 17.9999 50.0867L18.1833 50.3541C18.2761 50.4884 18.3863 50.6083 18.51 50.7143C18.6512 50.8202 18.7995 50.891 18.98 50.8554C19.0393 50.8443 19.1008 50.8575 19.1499 50.8927C19.472 51.0918 19.9533 51.0211 20.1784 50.7143C20.4364 50.3583 20.6089 49.9638 20.489 49.5006C20.4572 49.3421 20.4144 49.1858 20.3606 49.0328L20.3775 49.0226ZM22.4543 37.0038C22.7018 36.6173 22.8734 36.1982 23.0548 35.7834L23.6836 34.2973C23.7035 34.3579 23.7188 34.4198 23.7298 34.4829C23.7891 35.0745 23.9811 35.6325 24.1489 36.1949C24.2887 36.6279 24.5065 37.0322 24.7913 37.3869C24.9985 37.6784 25.3227 37.8649 25.6786 37.8983L26.1842 37.9551C26.6054 37.9971 26.9016 37.7462 26.9541 37.3242L26.9609 37.1631C26.9605 36.9733 26.9342 36.7835 26.8834 36.6004L26.3524 34.9431C26.3499 34.9359 26.3477 34.9317 26.3435 34.9257C26.3062 34.8524 26.2901 34.7719 26.3016 34.6897L26.3354 34.0003L26.2893 32.5197C26.2325 31.4238 26.2626 30.3259 26.2846 29.2292C26.2914 28.9445 26.3596 28.6644 26.3482 28.3796C26.324 27.8249 26.3571 27.2694 26.4452 26.7215C26.4982 26.421 26.5206 26.1155 26.5113 25.8104C26.4961 25.4727 26.3168 25.2566 25.9905 25.1701C25.827 25.1239 25.6541 25.1214 25.4892 25.1634C25.1956 25.2468 24.9239 25.3998 24.701 25.607C24.5167 25.7672 24.3455 25.9426 24.1892 26.1299C24.1408 26.1863 24.0964 26.1977 24.0434 26.1388C24.0095 26.1037 23.9726 26.0748 23.9379 26.0418C23.4213 25.5587 22.7988 25.4091 22.1145 25.5011C21.6026 25.5765 21.1148 25.768 20.689 26.0617C20.5013 26.1829 20.3462 26.349 20.2385 26.5448L19.5042 27.9927C19.358 28.2906 19.2372 28.6 19.1423 28.9174C18.8796 29.7822 18.7206 30.6679 18.577 31.5552C18.5278 31.7938 18.505 32.0379 18.5088 32.2811L18.5766 33.807L18.7461 36.197C18.7838 36.511 18.8524 36.8203 18.9507 37.1208C18.9787 37.2025 19.0041 37.2979 19.0791 37.3483C19.1749 37.4229 19.2584 37.5123 19.3266 37.6132C19.5275 37.8763 19.841 38.0284 20.172 38.0238L20.8826 38.017C21.0585 38.0153 21.2322 37.9797 21.3945 37.911C21.8382 37.7339 22.2124 37.417 22.4611 37.0085L22.4543 37.0038ZM21.4369 33.4049L21.4742 32.7565C21.4873 32.5942 21.5233 32.4353 21.5818 32.2841C21.6653 32.0853 21.6767 31.8629 21.6983 31.6484C21.7361 31.3395 21.7564 31.0281 21.7581 30.7149C21.7534 30.2632 21.8145 29.8102 21.9272 29.3704L22.2852 27.8478C22.3403 27.6029 22.4352 27.3686 22.5653 27.1541C22.6187 27.0596 22.6878 26.9757 22.77 26.905C22.8611 26.8185 22.9938 26.7927 23.1103 26.8389C23.2781 26.8918 23.4391 26.9647 23.5874 27.0618C23.7116 27.1351 23.7747 27.2876 23.7396 27.4236C23.662 27.8715 23.6514 28.3241 23.6264 28.7788L23.4705 30.923C23.4001 31.4768 23.2162 31.9963 23.0094 32.5163L21.7072 35.7372C21.6725 35.8228 21.6517 35.9203 21.5394 35.9885C21.4996 35.8898 21.4814 35.7838 21.486 35.6775L21.4466 33.4045L21.4369 33.4049ZM29.8331 23.651C30.1056 23.9777 30.4924 24.1875 30.9145 24.2379C31.131 24.2646 31.3472 24.2493 31.6082 24.2663H32.0035C32.5858 24.2574 33.1464 24.0514 33.5973 23.684C34.0714 23.2976 34.4096 22.8014 34.6677 22.2471C34.6922 22.192 34.7117 22.134 34.7232 22.0751C34.7783 21.8365 34.6664 21.6933 34.4278 21.6776C34.2498 21.6704 34.0761 21.7306 33.9401 21.8454C33.7079 22.0212 33.5032 22.231 33.3333 22.4679C33.0947 22.8056 32.757 23.1035 32.1862 22.9031C31.9459 22.8192 31.7713 22.7132 31.6586 22.4509C31.3785 21.8183 31.1755 21.175 31.2069 20.4712L31.2196 20.1466C31.2196 20.0411 31.295 19.9525 31.3984 19.9322C31.5311 19.9038 31.6582 19.8571 31.7781 19.7932C32.1858 19.5635 32.5786 19.3092 32.9544 19.0317C33.1125 18.9075 33.2854 18.7957 33.3909 18.6147C33.6354 18.2007 33.8388 17.7638 33.9981 17.31C34.3003 16.4358 34.3935 15.5573 34.0655 14.6658C33.9799 14.4297 33.8998 14.2047 33.6952 14.0302C33.5426 13.9001 33.3926 13.7759 33.1977 13.7323C32.7472 13.6352 32.2947 13.5517 31.8489 13.7522C31.8099 13.7649 31.7701 13.7746 31.7298 13.781C31.3908 13.8738 31.0632 13.964 30.7581 14.1314C30.6581 14.1857 30.5725 14.2632 30.5094 14.3573L29.8229 15.3878C29.7763 15.4544 29.7394 15.5273 29.7127 15.6044L29.1165 17.3943C29.033 17.6812 28.9381 17.9681 28.9475 18.2685C28.9475 18.6062 28.9275 18.9444 28.8881 19.28C28.7775 20.4123 28.8483 21.5246 29.2339 22.6039C29.3627 22.9832 29.5619 23.334 29.8212 23.6391L29.8331 23.651ZM31.4332 18.1888C31.4505 18.1312 31.4599 18.071 31.4599 18.0104C31.4489 17.2625 31.6289 16.5417 31.8667 15.8476L32.2375 14.9031C32.2815 14.8035 32.3345 14.7463 32.4493 14.762C32.4955 14.7666 32.5442 14.7666 32.5904 14.762C32.654 14.7505 32.7146 14.7844 32.7404 14.8412C32.8222 14.9823 32.871 15.14 32.8816 15.3023L32.9044 16.3176C32.9171 16.9973 32.6773 17.5888 32.2641 18.1164C32.1031 18.3236 31.9574 18.5469 31.7332 18.6986C31.6192 18.7914 31.4891 18.8618 31.3488 18.9058C31.3569 18.6647 31.3853 18.4244 31.4349 18.1884L31.4332 18.1888ZM34.2287 25.0044C34.0587 25.0091 33.893 25.0642 33.7541 25.1629C33.5468 25.3155 33.3744 25.5117 33.246 25.7392C32.926 26.2732 32.7404 26.8605 32.5752 27.4542C32.5684 27.4809 32.5642 27.5071 32.5642 27.5359L32.4824 28.589L32.2438 31.5018C32.1332 32.6998 31.8641 33.8659 31.5349 35.0181C31.3984 35.4948 31.2107 35.9512 30.8992 36.3466C30.8442 36.4144 30.7954 36.5343 30.6874 36.505C30.5861 36.4783 30.5819 36.3589 30.5615 36.2665C30.4513 35.7016 30.3891 35.1287 30.3742 34.5537C30.3573 34.1672 30.3912 33.7841 30.3937 33.3973L30.4577 31.4268L30.5547 30.1721L30.7314 28.8038L30.948 26.7698C31.0009 26.0507 30.6314 25.5358 30.0776 25.3418C29.8064 25.2536 29.5238 25.2095 29.239 25.2095C28.7983 25.1985 28.5046 25.4129 28.3322 25.8011L28.0834 26.4194C27.7444 27.4758 27.5275 28.5529 27.4876 29.6636L27.4279 31.5925C27.4279 31.7603 27.3999 31.9307 27.4152 32.0997L27.5732 34.3066C27.5864 34.5626 27.58 34.8295 27.6864 35.0639C27.7622 35.244 27.8232 35.4296 27.8699 35.6198C27.9207 35.8088 27.9838 35.9944 28.0571 36.1758C28.0927 36.2576 28.1148 36.3436 28.1249 36.4305C28.1711 36.7695 28.3017 37.1017 28.5067 37.3818C28.7114 37.6754 28.9547 37.9272 29.3009 38.053C29.5835 38.1547 30.5085 38.1661 30.787 38.0462C31.2416 37.8606 31.6256 37.5377 31.8773 37.1102C32.1489 36.633 32.3883 36.1385 32.5947 35.6296L32.9349 34.8261C33.0142 34.963 33.0231 35.0918 33.065 35.2105C33.3604 36.0453 33.8863 36.7364 34.4664 37.3801C34.5003 37.4157 34.5401 37.4365 34.5812 37.4593C34.9122 37.6178 35.2596 37.7462 35.6075 37.8458C35.791 37.8949 35.9817 37.9089 36.1703 37.8877C36.4639 37.8661 36.7114 37.6593 36.7835 37.3737C36.8322 37.2436 36.808 37.1 36.7199 36.9941C36.519 36.7474 36.336 36.4868 36.1749 36.2101C36.0796 36.0618 36.011 35.8991 35.972 35.727L35.6919 34.4185C35.6389 34.2575 35.5991 34.0918 35.5753 33.9269L35.4825 32.3642C35.4427 31.1463 35.4995 29.928 35.5728 28.7118C35.5906 28.544 35.5639 28.3741 35.4952 28.2194C35.4389 28.1203 35.4389 28.0076 35.4601 27.9021C35.5003 27.7309 35.519 27.555 35.5156 27.3791L35.591 26.4274C35.6177 26.1732 35.6745 25.9219 35.6486 25.6591C35.6389 25.4524 35.5241 25.2651 35.344 25.1625C35.255 25.1138 35.1609 25.0744 35.0639 25.0456C34.7859 24.9528 34.5011 25.0036 34.2185 25.0104L34.2287 25.0044Z" fill="white"/>
<path d="M25.6916 12.9627C25.7908 13.2903 26.0209 13.5627 26.3273 13.7153C26.6743 13.8827 27.0599 13.9543 27.4443 13.9225C27.8303 13.9183 28.1825 13.703 28.3625 13.3619C28.4867 13.153 28.5659 12.936 28.5414 12.6839L28.5062 12.1983C28.496 12.069 28.4401 11.9478 28.3481 11.8563C28.2596 11.7639 28.1803 11.6635 28.1096 11.5567C27.9244 11.2855 27.6816 11.116 27.3328 11.1262C27.1434 11.1304 26.9536 11.1215 26.7654 11.0995C26.476 11.0643 26.2379 11.1745 26.0107 11.3253C25.6946 11.5402 25.5213 11.8224 25.5671 12.2084C25.5666 12.4618 25.6094 12.7131 25.6933 12.9521L25.6916 12.9627ZM19.5333 17.7257L19.5642 20.1627C19.5727 20.2707 19.5689 20.3796 19.5532 20.4868C19.5333 20.6809 19.5252 20.8822 19.5265 21.0746C19.5252 21.8386 19.5829 22.6013 19.6985 23.3565C19.7185 23.5022 19.7185 23.6586 19.8117 23.7849C19.9134 23.9374 20.0308 24.0764 20.1384 24.2239C20.2401 24.3802 20.4176 24.4705 20.6041 24.4599C20.8011 24.4531 20.9817 24.4358 21.0918 24.2434C21.1223 24.1976 21.1579 24.1552 21.1978 24.1175C21.3304 23.9696 21.4274 23.8107 21.4143 23.5946C21.4126 23.4251 21.4232 23.2552 21.4452 23.087C21.4605 22.9192 21.4541 22.7471 21.505 22.5857C21.5444 22.4564 21.5647 22.3217 21.5643 22.1865L21.5872 21.8644C21.6139 21.4127 21.691 20.9619 21.6508 20.5072C21.6469 20.419 21.652 20.3313 21.666 20.2444L21.7724 19.2359C21.8164 18.4986 21.9203 17.768 22.0347 17.0396C22.0809 16.7328 22.1932 16.4409 22.2466 16.1328C22.2885 15.9391 22.383 15.7612 22.5203 15.6188L22.5512 16.0273C22.5711 16.3362 22.6644 16.6362 22.6758 16.9481C22.6928 17.2748 22.808 17.5617 23.0907 17.771C23.5424 18.1066 24.0331 18.1024 24.545 18.0164C24.5776 18.0092 24.6085 17.9977 24.6378 17.9812C24.7412 17.9333 24.8128 17.8358 24.8276 17.7231C24.8399 17.6104 24.7941 17.499 24.706 17.4278C24.653 17.3858 24.5929 17.346 24.5382 17.3129C24.4984 17.2862 24.459 17.2667 24.4429 17.2159C24.3636 16.9646 24.2645 16.7074 24.275 16.4459C24.3034 15.8235 24.2645 15.1997 24.1581 14.5853C24.1208 14.3666 24.1242 14.1335 24.0433 13.9276C23.9505 13.6869 23.792 13.4992 23.4653 13.5081C23.3703 13.5102 23.278 13.4992 23.183 13.4971C23.1288 13.4915 23.0746 13.5 23.0246 13.5212C22.6826 13.6716 22.3805 13.8772 22.1796 14.1992C22.0139 14.4467 21.877 14.7111 21.7711 14.9891C21.6876 15.2319 21.6169 15.4789 21.5639 15.7306L21.3041 16.9578L21.1626 15.351C21.1198 14.8374 20.9706 14.3378 20.7236 13.8852C20.6609 13.7572 20.5838 13.6365 20.4943 13.5255C20.446 13.4521 20.3659 13.4013 20.2778 13.3886C20.1214 13.3759 19.9642 13.4013 19.8202 13.464C19.707 13.514 19.6257 13.6157 19.6015 13.7373C19.5617 13.9365 19.5396 14.139 19.5354 14.342C19.5129 14.9709 19.5909 15.6001 19.5693 16.2311L19.5413 17.732L19.5333 17.7257ZM25.3912 17.9041L25.4505 18.7346L25.6959 21.2398C25.7929 21.9301 25.9976 22.6013 26.3027 23.2285C26.6192 23.8773 27.1527 24.2302 27.8693 24.3019C28.1032 24.3328 28.3371 24.2531 28.5003 24.0853C28.7151 23.8582 28.7342 23.5997 28.4367 23.4277C28.3278 23.359 28.2481 23.2531 28.2121 23.1298C27.9604 22.4653 27.9248 21.7568 27.7731 21.0729C27.7091 20.7241 27.7053 20.369 27.7617 20.0203C27.771 19.9326 27.7701 19.8444 27.757 19.7576C27.6964 19.1571 27.7227 18.5516 27.835 17.9587C27.9515 17.279 28.0223 16.5904 28.0511 15.9018C28.0583 15.6065 28.0363 15.5374 27.9011 15.1955C27.743 14.798 27.3515 14.5446 26.9235 14.5645C26.5858 14.5797 26.2455 14.642 25.9302 14.7518C25.7891 14.8005 25.6743 14.906 25.6103 15.0412C25.5399 15.2027 25.4887 15.3713 25.4582 15.5446C25.3675 15.9595 25.3984 16.379 25.4014 16.7964C25.4082 17.1142 25.4323 17.432 25.3904 17.7498C25.3832 17.8028 25.3815 17.863 25.3857 17.9108L25.3912 17.9041ZM37.0897 46.2738C37.1893 46.2538 37.2855 46.2187 37.3745 46.1699C37.8338 45.8945 38.2855 45.6072 38.6877 45.2487C38.7639 45.1822 38.8258 45.1008 38.8711 45.0101C39.094 44.5766 39.2746 44.1219 39.4097 43.6529C39.5339 43.2448 39.5953 42.8198 39.5907 42.393C39.5691 41.9668 39.4754 41.5472 39.3127 41.1527C39.1801 40.7841 38.88 40.4993 38.5046 40.3845C38.3173 40.3281 38.1228 40.2963 37.9287 40.2743C37.6236 40.2256 37.341 40.3307 37.0503 40.3802C36.8181 40.4247 36.5914 40.4951 36.3748 40.59C36.2685 40.6349 36.1782 40.7112 36.1168 40.8091L35.5519 41.6515C35.4943 41.735 35.4502 41.8286 35.4218 41.9252L35.026 43.2469C34.8849 43.7749 34.7832 44.302 34.843 44.8517C34.8502 44.9127 34.8493 44.9741 34.8404 45.0347C34.7849 45.383 34.801 45.7364 34.7942 46.0699C34.79 46.4483 34.8053 46.8272 34.8404 47.2043C34.8981 47.7624 35.0218 48.3124 35.2087 48.8417C35.3506 49.2074 35.5388 49.5544 35.7693 49.8722C35.9151 50.085 36.1087 50.2612 36.3341 50.3863C36.6329 50.5507 36.9719 50.6261 37.3117 50.6053C37.791 50.5825 38.2609 50.4511 38.68 50.2172C38.8733 50.1176 39.0495 49.9888 39.2029 49.8354C39.2987 49.7468 39.3551 49.6252 39.3618 49.4951C39.3618 49.382 39.3551 49.2807 39.2487 49.215C39.1432 49.151 39.0589 49.1951 38.9686 49.2489C38.7661 49.3718 38.5457 49.4629 38.3152 49.5184C37.8847 49.6087 37.4677 49.4621 37.3067 49.0209L37.2028 48.7362C37.0816 48.4099 37.0528 48.0658 36.9999 47.723C36.9401 47.3564 36.9138 46.9848 36.9202 46.6132L36.9227 46.4886C36.9172 46.3835 36.9914 46.2903 37.0948 46.2721L37.0897 46.2738ZM37.0016 44.7936C37.0609 44.4182 37.0372 44.0389 37.0677 43.6613C37.1333 42.8579 37.3668 42.0985 37.688 41.3638C37.716 41.3002 37.7435 41.2354 37.8317 41.2506C37.9376 41.2705 38.0703 41.2044 38.1385 41.3413C38.2139 41.4625 38.2626 41.5972 38.2796 41.7388L38.333 42.752C38.3495 43.3308 38.1766 43.8999 37.841 44.3715C37.7164 44.5487 37.6113 44.7372 37.4528 44.8881C37.3202 45.0182 37.1677 45.1241 37.0007 45.2042C36.9918 45.0678 36.9939 44.9309 37.0033 44.7936H37.0016Z" fill="white"/>
<path d="M42.263 25.1146C42.0909 24.9604 41.8791 24.8913 41.6583 24.8387C41.2477 24.7485 40.8277 24.7061 40.4069 24.7129C40.2285 24.7218 40.0001 24.6735 39.7866 24.7591C39.2416 24.968 38.7403 25.2756 38.3064 25.6659C37.8581 26.0765 37.5382 26.591 37.236 27.1139C37.1669 27.2376 37.1254 27.3745 37.1144 27.5156L36.9377 29.1911C36.9208 29.3326 36.9178 29.4759 36.9309 29.6174L36.9873 30.1403C37.0898 31.0992 37.3987 32.0247 37.8928 32.8527L38.6742 34.113L39.9285 36.1321C40.3065 36.8046 40.6057 37.5182 40.8201 38.2598C40.9082 38.5551 40.7637 38.8204 40.4781 38.8984C39.9794 39.0327 39.4726 38.9844 39.0768 38.5145C38.792 38.1742 38.609 37.7797 38.6619 37.3203C38.6899 37.072 38.5738 36.9038 38.4107 36.7559C38.1407 36.5101 37.5911 36.5724 37.3733 36.8686C37.3072 36.9572 37.2716 37.0631 37.2737 37.1707C37.2754 37.3271 37.2903 37.4826 37.3178 37.6369C37.4309 38.4263 37.7305 39.1285 38.3374 39.6819C38.484 39.8209 38.6586 39.9268 38.8492 39.9925C39.2154 40.1188 39.5912 40.2014 39.9667 40.2951C40.2569 40.3684 40.5625 40.3548 40.8451 40.2552C40.929 40.2285 41.0155 40.2107 41.1032 40.1997C41.5007 40.1582 41.8939 40.0476 42.2481 39.8751C42.3248 39.8472 42.3935 39.8005 42.449 39.7412C42.7427 39.3531 43.0291 38.9573 43.219 38.5056C43.2868 38.3551 43.3207 38.1945 43.3118 38.031L43.2478 37.1813C43.2185 36.4283 43.0414 35.6885 42.727 35.0028L41.9651 33.3659L41.3028 32.0633C40.9989 31.5899 40.7282 31.0967 40.4908 30.5869C40.2819 30.139 40.1112 29.6831 40.0561 29.1792C39.9993 28.619 40.0222 28.0605 40.0391 27.4995C40.04 27.4656 40.0451 27.4325 40.0544 27.3999C40.0633 27.3537 40.0811 27.3096 40.1074 27.2698C40.251 27.1198 40.3561 26.9308 40.5481 26.8333L41.0337 26.5791C41.2422 26.4821 41.485 26.4927 41.6846 26.6079C41.8833 26.7244 42.013 26.9304 42.0329 27.1601L42.1282 28.1372C42.1303 28.4046 42.3956 28.6563 42.6558 28.7173C42.9338 28.7851 43.2253 28.6779 43.3902 28.4466C43.5567 28.2152 43.6503 27.9402 43.6597 27.6554C43.6876 26.81 43.3546 26.1015 42.8194 25.4744C42.7062 25.3375 42.5545 25.2383 42.3842 25.1896C42.338 25.1786 42.2939 25.1557 42.2583 25.1261L42.263 25.1146ZM35.3698 22.0556C35.3741 22.2251 35.4054 22.3924 35.4626 22.5522C35.5571 22.7984 35.6372 23.0497 35.7033 23.3048C35.7317 23.4031 35.7847 23.4929 35.8576 23.5654C35.9821 23.709 36.144 23.8158 36.3254 23.8743C36.5928 23.9514 36.8712 23.9802 37.1483 23.9603C37.4157 23.9624 37.6691 23.8434 37.8394 23.6383C38.1784 23.226 38.4382 22.7488 38.5899 22.2348C38.7441 21.7068 38.9874 21.2148 39.1505 20.6923L39.4353 19.7885C39.4891 19.544 39.5637 19.3046 39.6582 19.0732L39.9141 18.477C40.0451 18.2401 40.1607 17.9956 40.2603 17.7443C40.2624 17.7354 40.2828 17.7312 40.3167 17.7163C40.3807 17.9625 40.4163 18.2147 40.4231 18.4689C40.4383 18.9588 40.3476 19.4406 40.3175 19.9258C40.2908 20.3364 40.2396 20.7466 40.337 21.1572L40.5629 22.2721C40.6625 22.6806 40.8735 23.0488 41.0544 23.4285C41.2553 23.8455 41.5998 24.0726 42.0303 24.1857C42.3706 24.276 42.6083 24.029 42.5219 23.687C42.4901 23.5696 42.4515 23.4539 42.4071 23.3408C42.3109 23.1175 42.2401 22.8844 42.1952 22.6458L42.1024 21.742C42.0778 21.2898 42.0248 20.839 42.0778 20.3847C42.1265 20.0351 42.1371 19.6817 42.1087 19.33C42.0668 18.9418 42.1113 18.56 42.1486 18.1757C42.1969 17.7918 42.1884 17.4028 42.1219 17.0214L42.0003 16.2688C41.8986 15.8692 41.6952 15.5429 41.2481 15.4569L40.9502 15.4005C40.5748 15.3476 40.2485 15.4446 40.0057 15.7468C39.6374 16.2235 39.3302 16.7447 39.0925 17.2981C38.7238 18.1117 38.4437 18.9622 38.1742 19.8143C38.0416 20.2334 37.9144 20.6551 37.6551 21.0195C37.6221 21.0852 37.5729 21.1415 37.5119 21.1835L37.5165 20.4945C37.5547 20.1584 37.5487 19.8186 37.4987 19.4838C37.4458 19.177 37.3665 18.8702 37.3704 18.5613L37.2801 15.1938C37.2754 15.0785 37.2534 14.9645 37.214 14.856C37.1936 14.7853 37.1792 14.7128 37.1699 14.6395C37.1119 14.3458 37.0114 14.0725 36.7195 13.9331C36.5538 13.8547 36.383 13.7899 36.2076 13.7386C35.9449 13.6568 35.6652 13.7979 35.5762 14.0585C35.5342 14.1602 35.5012 14.2619 35.4724 14.3674C35.2766 15.1488 35.1783 15.9514 35.1787 16.7574L35.2465 18.6249L35.3791 22.0742L35.3698 22.0556ZM40.0578 48.5065C39.8459 48.5065 39.5993 48.7328 39.5946 48.9459C39.5933 49.1654 39.7624 49.3481 39.9811 49.3646C40.2591 49.3671 40.4531 49.1815 40.4489 48.9129C40.4442 48.7273 40.2324 48.509 40.0535 48.5065H40.0578ZM44.3122 46.2047C44.3055 46.1585 44.2728 46.1191 44.2288 46.103C44.1847 46.0873 44.1317 46.0988 44.0987 46.1314C44.0554 46.1649 44.0287 46.2153 44.0254 46.2699C44.0139 46.3517 43.9881 46.4284 43.9478 46.4996C43.908 46.5772 43.8376 46.6297 43.7533 46.6496C43.6694 46.6704 43.5838 46.6454 43.5169 46.592C43.3122 46.4467 43.1469 46.2521 43.0355 46.0271C42.9935 45.9636 42.9982 45.8814 43.0423 45.822C43.1588 45.6309 43.2516 45.4263 43.3181 45.2127C43.3491 45.1373 43.3605 45.0555 43.3512 44.9741L43.2948 44.4512C43.2414 44.1597 43.1291 43.8948 42.899 43.6986C42.7295 43.555 42.5969 43.5262 42.3998 43.6435C42.0401 43.858 41.7786 44.1376 41.8011 44.6038C41.7922 44.7165 41.7947 44.8296 41.81 44.9419C41.8837 45.4504 42.0774 45.9026 42.3265 46.3394C42.4062 46.4958 42.5024 46.6437 42.6138 46.7797C42.7639 46.9492 42.9113 47.1331 43.1219 47.2458C43.2609 47.323 43.4113 47.3865 43.5741 47.3162C43.9025 47.1704 44.183 46.9628 44.3046 46.603C44.3614 46.4746 44.3639 46.3356 44.3326 46.2038L44.3122 46.2047ZM42.8291 45.5491C42.5931 45.0987 42.4143 44.6792 42.3905 44.2101C42.3905 44.1978 42.3905 44.1821 42.388 44.1686C42.3753 44.1118 42.4126 44.0427 42.474 44.027C42.5299 44.0156 42.5867 44.0453 42.6083 44.0978C42.6918 44.219 42.7664 44.3491 42.8329 44.4821C42.9855 44.8199 42.9651 45.164 42.8283 45.5555L42.8291 45.5491Z" fill="white"/>
<path d="M24.5714 49.6676C24.4583 49.5943 24.3596 49.482 24.3087 49.3502C24.0019 48.6836 23.9468 47.9527 23.7413 47.2598C23.6752 46.989 23.6604 46.7077 23.6972 46.4322C23.7142 46.2776 23.7121 46.1212 23.6926 45.9661C23.615 45.394 23.6358 44.8135 23.7701 44.2546C23.8718 43.73 23.9375 43.199 23.9667 42.6655C23.9947 42.268 23.6688 41.7841 23.3091 41.6617C23.1646 41.6019 23.0133 41.5621 22.8586 41.5426C22.4421 41.518 22.02 41.5426 21.6073 41.6104C21.3336 41.6498 21.195 41.815 21.106 42.0507L21.0619 42.1854C20.9577 42.5164 20.9882 42.8566 21.0039 43.191C21.0153 43.4139 21.0458 43.6346 21.0208 43.8596C20.9941 44.1253 21.0323 44.3851 21.0581 44.6478L21.3941 47.1196C21.4997 47.8107 21.7276 48.4768 22.0671 49.0883C22.4268 49.8015 23.0002 50.2295 23.7731 50.4057C23.9515 50.4481 24.1354 50.4608 24.318 50.443C24.4973 50.4333 24.6625 50.3452 24.7706 50.2028C24.8723 50.0638 24.8676 49.9536 24.7617 49.8146C24.7087 49.7578 24.6486 49.7044 24.5697 49.6663L24.5714 49.6676ZM42.9071 47.4785C42.6864 47.3327 42.5012 47.1386 42.3664 46.9111L41.9117 46.0725L41.541 45.2402L40.7672 43.4126C40.7172 43.2507 40.6524 43.0931 40.5752 42.9426C40.4621 42.7507 40.2816 42.7481 40.1625 42.9316C40.1227 42.9876 40.0994 43.0528 40.0943 43.1215C40.0854 43.4524 40.0833 43.7859 40.1913 44.1054C40.2553 44.3114 40.3303 44.5143 40.4159 44.7122C40.4867 44.8669 40.4727 44.8737 40.321 44.9216C40.1866 44.9673 40.0578 45.0284 39.9366 45.1021C39.7663 45.1932 39.6451 45.3546 39.6057 45.5436C39.5527 45.7746 39.5527 46.014 39.6057 46.2449C39.6591 46.4543 39.7383 46.6564 39.7976 46.8632C39.8595 47.1132 39.9477 47.3556 40.0604 47.5874L40.546 48.4984C40.5829 48.5637 40.6278 48.6235 40.6803 48.6768C40.8613 48.8641 41.1041 48.8959 41.3715 48.7718C41.6168 48.659 41.696 48.5234 41.671 48.2378L41.6032 47.7298C41.5723 47.5179 41.5257 47.3081 41.5787 47.0869L41.7558 47.4035C41.8698 47.6048 42.0295 47.776 42.2236 47.9022C42.4245 48.0412 42.6914 48.0433 42.8948 47.9069C43.0868 47.7904 43.0915 47.5997 42.908 47.4721L42.9071 47.4785ZM41.2189 48.1073L40.9591 47.5467C40.7871 47.1141 40.6371 46.6708 40.5074 46.2221C40.4498 45.972 40.4142 45.7174 40.3998 45.4606C40.393 45.3746 40.4167 45.3084 40.4994 45.2843C40.5896 45.2563 40.6515 45.3089 40.696 45.3835C40.9579 45.8441 41.107 46.3602 41.1308 46.889C41.1397 47.2336 41.1774 47.5768 41.2439 47.9154C41.2706 47.9789 41.2592 48.0518 41.2172 48.1073H41.2189Z" fill="white"/>
<path d="M34.8118 49.7011C34.5139 49.6782 34.2227 49.6006 33.9532 49.4714C33.8401 49.4163 33.7261 49.3663 33.6617 49.2595C33.4625 48.9353 33.2774 48.5972 33.2227 48.2179C33.1765 47.9311 33.1473 47.6399 33.1409 47.3509C33.124 45.7924 33.11 44.2343 33.3769 42.6914C33.3884 42.6185 33.3502 42.5223 33.4015 42.4753C33.4608 42.4189 33.5558 42.4507 33.6354 42.4439C33.9062 42.4282 34.174 42.3825 34.4346 42.3075C34.7219 42.2197 34.863 42.0341 34.8711 41.7655C34.88 41.5311 34.7389 41.3879 34.5028 41.3811C34.4011 41.3811 34.2999 41.4011 34.2075 41.4388C33.9562 41.5405 33.6888 41.4968 33.4278 41.543C33.421 41.5184 33.4189 41.4862 33.4189 41.465C33.5731 40.5951 33.5753 39.715 33.5867 38.8348C33.5863 38.7878 33.5825 38.7403 33.5753 38.6933C33.5358 38.4221 33.4172 38.1767 33.3041 37.9344C33.1985 37.6975 32.8676 37.5877 32.6286 37.6826C32.5273 37.7225 32.432 37.7776 32.3294 37.8085C32.1794 37.8577 32.057 37.9674 31.9913 38.1106C31.8591 38.3539 31.751 38.6098 31.6692 38.8763C31.4154 39.7404 31.2544 40.6286 31.1878 41.5265C31.1789 41.6307 31.1417 41.6655 31.0421 41.6769C30.9005 41.6917 30.7641 41.7299 30.6226 41.7473C30.3713 41.7829 30.2158 41.946 30.084 42.1401C30.0641 42.168 30.053 42.1969 30.0492 42.235C30.042 42.4515 30.1704 42.6477 30.3713 42.7295C30.5043 42.7795 30.6459 42.8045 30.7878 42.8024C30.8738 42.8003 30.9183 42.827 30.9014 42.9194C30.8925 42.9677 30.8899 43.0143 30.8844 43.0605C30.826 43.4016 30.8014 43.7474 30.809 44.0931L30.8463 46.0034C30.873 46.8196 30.8293 47.6387 31.012 48.4485C31.0637 48.7209 31.1713 48.9798 31.3277 49.2082L31.5311 49.5133C31.7362 49.8663 32.043 50.1519 32.4095 50.3325C33.0451 50.6528 33.7642 50.7562 34.4647 50.635C34.6529 50.6109 34.8355 50.5528 35.0033 50.4625C35.1334 50.3854 35.2292 50.2846 35.208 50.124C35.1923 49.9091 35.0266 49.7358 34.813 49.7091L34.8118 49.7011ZM30.1208 47.6751C29.9446 47.6484 29.7649 47.6921 29.6221 47.7997C29.375 47.9675 29.1636 48.1828 28.9992 48.4319C28.8602 48.6595 28.6487 48.8332 28.3991 48.9264C28.3436 48.9531 28.2843 48.9659 28.2229 48.962C27.9822 48.9252 27.7487 48.8489 27.5317 48.7375C27.4482 48.6913 27.3817 48.6239 27.3423 48.5324C27.1275 48.0777 26.9647 47.6031 26.8546 47.1153C26.7715 46.6967 26.7435 46.2678 26.7728 45.8415C26.78 45.7051 26.8296 45.617 26.9821 45.5903C27.205 45.5508 27.3987 45.4402 27.5932 45.3246L28.7784 44.5432C28.864 44.4758 28.936 44.3923 28.9903 44.2978C29.2225 43.8927 29.4191 43.4681 29.5776 43.0291C29.8602 42.2155 29.9484 41.3905 29.6352 40.5658C29.5361 40.3061 29.4433 40.0565 29.214 39.8662C29.0704 39.7344 28.9034 39.6302 28.7195 39.5616C28.4873 39.4844 28.2462 39.4399 28.0021 39.4289C27.8326 39.42 27.6491 39.3709 27.4766 39.4289C27.3355 39.4709 27.1898 39.5027 27.044 39.5243C26.7639 39.5705 26.488 39.6501 26.2249 39.7501C26.1172 39.7925 26.0236 39.8641 25.9549 39.9569L25.2752 40.8684C25.2333 40.9214 25.1977 40.9815 25.1735 41.0451L24.607 42.7592C24.5032 43.1389 24.4104 43.519 24.446 43.9177C24.4655 44.0321 24.4701 44.147 24.4612 44.2563C24.3858 44.68 24.3934 45.1063 24.3833 45.7178C24.3485 46.5759 24.5511 47.5806 24.8909 48.5595C25.0507 49.0515 25.3392 49.4922 25.727 49.8354C25.9927 50.074 26.3295 50.2151 26.6876 50.235L27.5199 50.2791C28.0233 50.3113 28.5254 50.1956 28.9636 49.9456C29.6585 49.5532 30.0598 48.9197 30.3831 48.2196C30.4081 48.1565 30.4217 48.0891 30.4225 48.0205C30.4314 47.8044 30.3369 47.6921 30.1251 47.6607L30.1208 47.6751ZM26.9317 43.7613C26.9452 43.7024 26.9537 43.6419 26.9563 43.5808C26.9253 42.599 27.1821 41.6807 27.5919 40.7951L27.7203 40.5197C27.744 40.4468 27.8199 40.4048 27.8949 40.4226C28.1864 40.4374 28.2339 40.4641 28.3313 40.7447C28.3517 40.7942 28.3644 40.8472 28.3686 40.901L28.4148 41.9557C28.425 42.4537 28.2911 42.9435 28.0284 43.366C27.8733 43.6122 27.6974 43.8448 27.5029 44.0609C27.3326 44.2504 27.1203 44.397 26.8825 44.4898C26.8643 44.2457 26.8808 44.0008 26.9317 43.7613Z" fill="white"/>
</svg>
