<svg width="167" height="64" viewBox="0 0 167 64" fill="none" xmlns="http://www.w3.org/2000/svg">
<path fill-rule="evenodd" clip-rule="evenodd" d="M100.085 20.0464L105.802 11.7942C105.827 11.7583 105.868 11.7366 105.912 11.7366H116.141C116.212 11.7366 116.271 11.6818 116.277 11.6109C116.295 11.3587 116.306 11.1041 116.306 10.8467C116.306 4.65109 111.091 -0.326379 104.811 0.0637695C99.385 0.401017 94.9886 4.85088 94.7118 10.2808C94.4997 14.4313 96.6327 18.1004 99.9018 20.0861C99.9632 20.1234 100.044 20.1054 100.085 20.0464Z" fill="#F9BB2A"/>
<path fill-rule="evenodd" clip-rule="evenodd" d="M139.318 13.4544L131.21 25.1452C131.148 25.2345 131.213 25.3563 131.321 25.3563H147.584C147.693 25.3563 147.757 25.234 147.694 25.1447L139.539 13.454C139.486 13.3774 139.372 13.3774 139.318 13.4544Z" fill="#14192C"/>
<path fill-rule="evenodd" clip-rule="evenodd" d="M97.9132 29.7245H95.9072C95.7986 29.7245 95.7348 29.6022 95.7967 29.5129L107.006 13.3534C107.031 13.317 107.072 13.2957 107.116 13.2957H137.052C137.16 13.2957 137.224 13.4176 137.162 13.5069L130.106 23.6635L125.969 29.6659C125.944 29.7023 125.902 29.7245 125.858 29.7245H97.9132Z" fill="#42538C"/>
<path fill-rule="evenodd" clip-rule="evenodd" d="M19.3247 41.8777C19.3247 43.3268 20.4044 45.8269 23.245 45.8269C24.9214 45.8269 25.944 45.0315 26.541 44.0655C26.9382 43.4406 27.1371 42.7586 27.1942 42.0487C27.2509 41.3383 27.1087 40.6279 26.7965 39.9746C26.285 38.8949 25.2057 37.7868 23.2167 37.7868C20.5178 37.7868 19.3247 40.0597 19.3247 41.8493V41.8777ZM31.7764 49.6906H27.3284C27.2542 49.6906 27.1942 49.6306 27.1942 49.5569V48.4346C27.1942 48.3062 27.0327 48.2528 26.9567 48.3558C26.0129 49.6348 24.2261 50.2305 22.5351 50.2305C17.5345 50.2305 14.6084 46.3096 14.6084 41.7927C14.6084 36.622 18.3304 33.3832 22.5351 33.3832C24.8373 33.3832 26.2382 34.3746 26.959 35.274C27.0384 35.3727 27.1942 35.3165 27.1942 35.1899V34.0568C27.1942 33.9831 27.2542 33.9231 27.3284 33.9231H31.7764C31.85 33.9231 31.91 33.9831 31.91 34.0568V49.5569C31.91 49.6306 31.85 49.6906 31.7764 49.6906Z" fill="#42538C"/>
<path fill-rule="evenodd" clip-rule="evenodd" d="M42.0154 38.355C41.9479 38.355 41.8902 38.3064 41.8832 38.2393C41.8407 37.8524 41.6697 37.1619 40.4161 37.1619C39.4218 37.1619 39.0813 37.7868 39.0813 38.2128C39.0813 38.9232 40.246 39.4064 41.4958 39.7758C44.1664 40.514 47.0075 41.3095 47.0075 44.7188C47.0075 48.1852 44.0814 50.2305 40.5866 50.2305C38.2301 50.2305 34.6824 49.1776 34.1836 45.1571C34.1737 45.0768 34.2379 45.0031 34.3192 45.0031H38.7431C38.8073 45.0031 38.8602 45.0518 38.872 45.1151C39.1252 46.4518 40.4501 46.4518 40.6438 46.4518C41.4392 46.4518 42.2913 45.9974 42.2913 45.2303C42.2913 44.1506 41.1265 44.0089 38.1149 42.8441C36.0697 42.1904 34.365 40.8551 34.365 38.7244C34.365 35.4572 37.2061 33.3832 40.4732 33.3832C42.5213 33.3832 46.0378 34.1871 46.5083 38.2015C46.5172 38.2818 46.453 38.355 46.3727 38.355H42.0154Z" fill="#42538C"/>
<path fill-rule="evenodd" clip-rule="evenodd" d="M53.0278 41.8777C53.0278 43.3268 54.1075 45.8269 56.9482 45.8269C58.6245 45.8269 59.6471 45.0315 60.2441 44.0655C60.6414 43.4406 60.8402 42.7586 60.8974 42.0487C60.954 41.3383 60.8119 40.6279 60.4997 39.9746C59.9881 38.8949 58.9088 37.7868 56.9198 37.7868C54.2209 37.7868 53.0278 40.0597 53.0278 41.8493V41.8777ZM65.4795 49.6906H61.0315C60.9574 49.6906 60.8974 49.6306 60.8974 49.5569V48.4346C60.8974 48.3062 60.7358 48.2528 60.6598 48.3558C59.7161 49.6348 57.9292 50.2305 56.2383 50.2305C51.2381 50.2305 48.3115 46.3096 48.3115 41.7927C48.3115 36.622 52.0335 33.3832 56.2383 33.3832C58.5404 33.3832 59.9414 34.3746 60.6621 35.274C60.7415 35.3727 60.8974 35.3165 60.8974 35.1899V34.0568C60.8974 33.9831 60.9574 33.9231 61.0315 33.9231H65.4795C65.5532 33.9231 65.6132 33.9831 65.6132 34.0568V49.5569C65.6132 49.6306 65.5532 49.6906 65.4795 49.6906Z" fill="#42538C"/>
<path fill-rule="evenodd" clip-rule="evenodd" d="M69.1844 33.9231H73.3202C73.3944 33.9231 73.4544 33.9831 73.4544 34.0568V35.1497C73.4544 35.2768 73.6159 35.3344 73.6924 35.2329C73.8492 35.025 74.0873 34.7549 74.4203 34.4913C75.1019 33.9231 76.21 33.3832 77.8579 33.3832C78.9372 33.3832 80.3009 33.6676 81.4656 34.889C81.7651 35.1885 82.0424 35.5531 82.2979 36.0028C82.347 36.0897 82.467 36.0977 82.5232 36.0151C82.8094 35.5937 83.142 35.1804 83.5397 34.8323C84.4772 33.9798 85.7559 33.3832 87.4034 33.3832C88.5115 33.3832 90.2728 33.6392 91.5514 34.9745C93.0289 36.537 93.2561 37.5879 93.2561 41.0827V49.5569C93.2561 49.6306 93.1961 49.6906 93.1224 49.6906H88.6739C88.5998 49.6906 88.5398 49.6306 88.5398 49.5569V41.3095C88.5398 40.6562 88.5398 39.8041 88.2276 39.0937C87.9432 38.355 87.3467 37.8151 86.1252 37.8151C84.8183 37.8151 84.165 38.4122 83.8523 39.1221C83.5113 39.8325 83.5113 40.6279 83.5113 41.0827V49.5569C83.5113 49.6306 83.4513 49.6906 83.3776 49.6906H78.9292C78.855 49.6906 78.795 49.6306 78.795 49.5569V41.1111C78.795 40.6846 78.795 39.8608 78.5112 39.1504C78.199 38.4122 77.6303 37.8151 76.4372 37.8151C75.1019 37.8151 74.4486 38.4405 74.1076 39.2076C73.7666 39.9746 73.7666 40.8267 73.7666 41.3095V49.5569C73.7666 49.6306 73.7066 49.6906 73.6329 49.6906H69.1844C69.1108 49.6906 69.0508 49.6306 69.0508 49.5569V34.0568C69.0508 33.9831 69.1108 33.9231 69.1844 33.9231Z" fill="#42538C"/>
<path fill-rule="evenodd" clip-rule="evenodd" d="M110.291 49.6906H106.155C106.081 49.6906 106.021 49.6306 106.021 49.5569V48.429C106.021 48.3015 105.859 48.2448 105.782 48.3468C105.189 49.137 104.115 50.2305 101.646 50.2305C96.305 50.2305 95.7651 45.9124 95.7651 43.7812V34.0568C95.7651 33.9831 95.8251 33.9231 95.8993 33.9231H100.348C100.421 33.9231 100.481 33.9831 100.481 34.0568V42.5314C100.481 44.2644 100.851 45.7986 102.981 45.7986C105.339 45.7986 105.709 44.1223 105.709 42.5031V34.0568C105.709 33.9831 105.769 33.9231 105.843 33.9231H110.291C110.365 33.9231 110.425 33.9831 110.425 34.0568V49.5569C110.425 49.6306 110.365 49.6906 110.291 49.6906Z" fill="#42538C"/>
<path fill-rule="evenodd" clip-rule="evenodd" d="M113.967 33.9231H118.103C118.177 33.9231 118.237 33.9831 118.237 34.0568V35.1842C118.237 35.3122 118.399 35.3689 118.476 35.2664C119.069 34.4767 120.14 33.3832 122.583 33.3832C127.896 33.3832 128.436 37.7018 128.436 39.8325V49.5569C128.436 49.6306 128.376 49.6906 128.302 49.6906H123.854C123.78 49.6906 123.72 49.6306 123.72 49.5569V41.0827C123.72 39.3493 123.351 37.8151 121.248 37.8151C118.919 37.8151 118.549 39.4914 118.549 41.1111V49.5569C118.549 49.6306 118.489 49.6906 118.415 49.6906H113.967C113.893 49.6906 113.833 49.6306 113.833 49.5569V34.0568C113.833 33.9831 113.893 33.9231 113.967 33.9231Z" fill="#42538C"/>
<path fill-rule="evenodd" clip-rule="evenodd" d="M135.292 41.7643C135.292 44.1789 137.026 45.7986 139.242 45.7986C140.378 45.7986 141.429 45.3437 142.168 44.6054C142.906 43.8667 143.333 42.8441 143.276 41.6788C143.276 40.5424 142.821 39.577 142.111 38.8949C141.401 38.1845 140.406 37.7868 139.299 37.7868C136.571 37.7868 135.292 39.918 135.292 41.736V41.7643ZM147.602 49.6906H143.381C143.308 49.6906 143.248 49.6306 143.248 49.5569V48.3945C143.248 48.267 143.089 48.2103 143.01 48.3104C142.431 49.0501 141.207 50.2021 138.475 50.2021C133.702 50.2021 130.577 46.5085 130.577 41.7643C130.577 36.4232 134.384 33.3832 138.39 33.3832C140.832 33.3832 142.159 34.4328 142.794 35.0355C142.879 35.1172 143.02 35.0577 143.02 34.9391V28.3288C143.02 28.2546 143.08 28.1951 143.154 28.1951H147.602C147.677 28.1951 147.737 28.2546 147.737 28.3288V49.5569C147.737 49.6306 147.677 49.6906 147.602 49.6906Z" fill="#42538C"/>
<path fill-rule="evenodd" clip-rule="evenodd" d="M154.65 41.821C154.65 44.0939 156.383 45.7702 158.428 45.7702C160.474 45.7702 162.207 44.0939 162.207 41.7927C162.207 39.4915 160.474 37.8152 158.428 37.8152C156.383 37.8152 154.65 39.4915 154.65 41.7927V41.821ZM149.934 41.7643C149.934 37.929 152.689 33.4116 158.428 33.4116C164.167 33.4116 166.923 37.929 166.923 41.7927C166.923 45.6564 164.167 50.1738 158.428 50.1738C152.689 50.1738 149.934 45.6564 149.934 41.7927V41.7643Z" fill="#42538C"/>
<path fill-rule="evenodd" clip-rule="evenodd" d="M11.5325 44.5799C11.481 44.511 11.3814 44.5096 11.3256 44.5748C10.7513 45.2474 9.87747 45.8127 8.49447 45.8127C6.25041 45.8127 4.74461 44.1081 4.74461 41.8069C4.74461 40.6704 5.11397 39.6478 5.76721 38.9091C6.44926 38.1704 7.38685 37.7443 8.49447 37.801C9.81087 37.801 10.6606 38.3158 11.235 38.9799C11.2912 39.0447 11.3904 39.0432 11.4418 38.9743L13.9636 35.5976C14.0062 35.5404 13.9976 35.4582 13.9433 35.4119C12.4526 34.1503 10.4986 33.3974 8.32396 33.3974C3.60817 33.3974 0 37.1478 0 41.7785C0 46.466 3.66485 50.2163 8.43779 50.2163C10.6682 50.2163 12.5906 49.41 14.0425 48.1324C14.0954 48.0856 14.103 48.0048 14.0605 47.9482L11.5325 44.5799Z" fill="#42538C"/>
<path fill-rule="evenodd" clip-rule="evenodd" d="M35.1829 59.5095C35.1163 58.5568 34.1631 57.4836 32.8 57.5101C31.3971 57.5101 30.4832 58.5303 30.4175 59.5095H35.1829ZM30.3911 60.5812C30.4567 62.0374 31.7278 62.779 32.8132 62.779C33.7796 62.779 34.4947 62.3161 34.8919 61.5618H36.3212C35.9769 62.3563 35.4743 62.9509 34.865 63.3486C34.2562 63.7591 33.5415 63.9575 32.8132 63.9575C30.4567 63.9575 29.001 62.0648 29.001 60.1585C29.001 58.0925 30.6159 56.333 32.8 56.333C33.8325 56.333 34.7724 56.717 35.4611 57.3911C36.308 58.2521 36.6651 59.3777 36.5461 60.5812H30.3911Z" fill="#42538C"/>
<path fill-rule="evenodd" clip-rule="evenodd" d="M38.2251 56.5451H39.602V63.7454H38.2251V56.5451ZM38.2251 53.9496H39.602V55.4054H38.2251V53.9496Z" fill="#42538C"/>
<path fill-rule="evenodd" clip-rule="evenodd" d="M41.7319 56.5451H43.0299V57.6556C43.3738 56.9154 44.1815 56.3189 45.4653 56.333C47.7684 56.359 48.3772 58.0273 48.3772 59.5232V63.7454H46.9876V59.8411C46.9876 58.5431 46.4846 57.6168 45.0813 57.6296C43.7313 57.6433 43.1088 58.4902 43.1088 59.7343V63.7454H41.7319V56.5451Z" fill="#42538C"/>
<path fill-rule="evenodd" clip-rule="evenodd" d="M50.6261 57.6168H49.6465V56.5451H50.6261V56.0543C50.6261 53.884 52.3071 53.7777 53.3269 53.7649V54.8504C52.8631 54.8631 52.003 54.8631 52.003 56.1209V56.5451H53.3269V57.6168H52.003V63.7454H50.6261V57.6168Z" fill="#42538C"/>
<path fill-rule="evenodd" clip-rule="evenodd" d="M55.3114 60.1712C55.3247 61.2439 56.0794 62.6737 57.8266 62.6737C58.9257 62.6737 59.7065 62.0648 60.0641 61.2439C60.2228 60.9128 60.3026 60.5425 60.3158 60.1712C60.3286 59.8009 60.2624 59.4306 60.1037 59.099C59.7594 58.2658 58.9522 57.6168 57.8002 57.6168C56.2911 57.6168 55.3114 58.8081 55.3114 60.1585V60.1712ZM61.6785 63.7454H60.3026V62.488C59.7991 63.4544 58.767 63.9575 57.6282 63.9575C55.3114 63.9575 53.9346 62.1565 53.9346 60.1448C53.9346 57.947 55.5367 56.333 57.6282 56.333C59.058 56.333 59.971 57.1275 60.3026 57.8152V56.5451H61.6785V63.7454Z" fill="#42538C"/>
<path fill-rule="evenodd" clip-rule="evenodd" d="M70.917 61.2175C70.4806 62.779 69.064 63.9575 67.2635 63.9575C64.907 63.9575 63.4111 62.1442 63.4111 60.1448C63.4111 58.0136 65.0393 56.333 67.1969 56.333C68.9176 56.333 70.4664 57.3911 70.917 59.1255H69.501C69.1297 58.1591 68.2299 57.6168 67.2503 57.6168C66.5224 57.6031 65.9929 57.8417 65.4894 58.3183C65.0657 58.7415 64.788 59.4164 64.788 60.1448C64.788 61.6279 65.8734 62.6737 67.2503 62.6737C68.4547 62.66 69.2095 61.9321 69.501 61.2175H70.917Z" fill="#42538C"/>
<path fill-rule="evenodd" clip-rule="evenodd" d="M72.4775 53.9496H73.8544V57.5503C74.2776 56.7034 75.2572 56.3189 76.1977 56.333C77.3228 56.333 78.0374 56.7034 78.5008 57.3382C78.9504 57.9607 79.1224 58.8218 79.1224 59.8146V63.7454H77.7332V59.8798C77.7332 59.2322 77.6137 58.6621 77.3228 58.2658C77.0044 57.8677 76.5283 57.6296 75.8136 57.6296C75.0853 57.6296 74.5823 57.9078 74.2908 58.2918C73.9867 58.6763 73.8544 59.1921 73.8544 59.6814V63.7454H72.4775V53.9496Z" fill="#42538C"/>
<path fill-rule="evenodd" clip-rule="evenodd" d="M85.4604 56.5451H86.758V57.5639C87.0626 56.9542 87.8963 56.333 88.942 56.333C89.6038 56.333 90.2924 56.5309 90.795 57.0996C90.9802 57.2853 91.179 57.6697 91.2584 57.8015C91.3774 57.5904 91.5229 57.3382 91.7746 57.0874C92.238 56.624 92.8997 56.333 93.6814 56.333C94.3427 56.333 95.0843 56.5172 95.6133 57.0609C96.2491 57.7099 96.4078 58.3976 96.4078 59.7745V63.7454H95.0309V59.8269C95.0309 59.2322 94.952 58.6361 94.6337 58.2257C94.3829 57.8554 93.9988 57.6296 93.3499 57.6296C92.741 57.6296 92.2248 57.8818 91.9598 58.3183C91.6688 58.7679 91.6291 59.1656 91.6291 59.7745V63.7454H90.2391V59.7745C90.2523 59.1784 90.1862 58.7415 89.9481 58.3447C89.6831 57.9206 89.2594 57.6433 88.5849 57.6296C87.936 57.6168 87.4598 57.9343 87.2213 58.331C86.9563 58.715 86.8373 59.2185 86.8373 59.8009V63.7454H85.4604V56.5451Z" fill="#42538C"/>
<path fill-rule="evenodd" clip-rule="evenodd" d="M104.176 59.5095C104.109 58.5568 103.156 57.4836 101.793 57.5101C100.39 57.5101 99.4758 58.5303 99.4102 59.5095H104.176ZM99.3837 60.5812C99.4499 62.0374 100.72 62.779 101.806 62.779C102.773 62.779 103.487 62.3161 103.885 61.5618H105.314C104.97 62.3563 104.467 62.9509 103.858 63.3486C103.249 63.7591 102.534 63.9575 101.806 63.9575C99.4499 63.9575 97.9937 62.0648 97.9937 60.1585C97.9937 58.0925 99.6086 56.333 101.793 56.333C102.825 56.333 103.765 56.717 104.454 57.3911C105.301 58.2521 105.658 59.3777 105.539 60.5812H99.3837Z" fill="#42538C"/>
<path fill-rule="evenodd" clip-rule="evenodd" d="M107.218 56.5451H108.595V63.7454H107.218V56.5451ZM107.218 53.9496H108.595V55.4054H107.218V53.9496Z" fill="#42538C"/>
<path fill-rule="evenodd" clip-rule="evenodd" d="M110.725 56.5451H112.023V57.6556C112.367 56.9154 113.175 56.3189 114.458 56.333C116.762 56.359 117.37 58.0273 117.37 59.5232V63.7454H115.981V59.8411C115.981 58.5431 115.478 57.6168 114.074 57.6296C112.724 57.6433 112.102 58.4902 112.102 59.7343V63.7454H110.725V56.5451Z" fill="#42538C"/>
<path fill-rule="evenodd" clip-rule="evenodd" d="M125.296 53.9496V60.0654C125.296 60.6743 125.296 61.2038 125.653 61.7739C125.945 62.2368 126.488 62.5546 127.163 62.5546C127.838 62.5546 128.38 62.2495 128.645 61.7999C129.016 61.2439 129.016 60.7007 129.016 60.0654V53.9496H130.565V60.0654C130.578 61.3634 130.366 62.3563 129.505 63.0704C128.923 63.5999 128.143 63.931 127.176 63.931C126.474 63.931 125.468 63.7317 124.807 63.0841C123.84 62.2231 123.721 61.2567 123.734 60.0654V53.9496H125.296Z" fill="#42538C"/>
<path fill-rule="evenodd" clip-rule="evenodd" d="M132.72 56.5451H134.018V57.6031C134.427 56.7558 135.182 56.3453 136.162 56.333V57.7099H136.069C134.772 57.7099 134.097 58.4241 134.097 59.8534V63.7454H132.72V56.5451Z" fill="#42538C"/>
<path fill-rule="evenodd" clip-rule="evenodd" d="M137.577 53.9496H138.954V63.7454H137.577V53.9496Z" fill="#42538C"/>
<path fill-rule="evenodd" clip-rule="evenodd" d="M142.05 60.1712C142.063 61.2439 142.819 62.6737 144.565 62.6737C145.664 62.6737 146.445 62.0648 146.803 61.2439C146.962 60.9128 147.041 60.5425 147.055 60.1712C147.068 59.8009 147.001 59.4306 146.843 59.099C146.499 58.2658 145.691 57.6168 144.539 57.6168C143.03 57.6168 142.05 58.8081 142.05 60.1585V60.1712ZM148.418 63.7454H147.041V62.488C146.538 63.4544 145.506 63.9575 144.367 63.9575C142.05 63.9575 140.673 62.1565 140.673 60.1448C140.673 57.947 142.275 56.333 144.367 56.333C145.797 56.333 146.71 57.1275 147.041 57.8152V56.5451H148.418V63.7454Z" fill="#42538C"/>
<path fill-rule="evenodd" clip-rule="evenodd" d="M157.193 63.7454H155.895V62.6335C155.551 63.3751 154.744 63.9702 153.46 63.9575C151.143 63.9438 150.547 62.2632 150.547 60.7673V56.5451H151.924V60.4495C151.924 61.746 152.427 62.6737 153.844 62.6737C155.194 62.66 155.816 61.7999 155.816 60.569V56.5451H157.193V63.7454Z" fill="#42538C"/>
<path fill-rule="evenodd" clip-rule="evenodd" d="M165.623 60.132C165.623 58.7287 164.551 57.6169 163.134 57.6169C161.652 57.6169 160.646 58.7679 160.646 60.132C160.646 61.5089 161.625 62.6737 163.095 62.6737C164.736 62.6737 165.61 61.3899 165.623 60.1448V60.132ZM159.322 53.9496H160.699V57.6957C161.361 56.7558 162.419 56.3453 163.346 56.333C165.213 56.333 167 57.7222 167 60.1183C167 62.4351 165.358 63.9575 163.293 63.9575C162.062 63.9575 161.109 63.3614 160.646 62.5017V63.7454H159.322V53.9496Z" fill="#42538C"/>
</svg>
