<svg width="167" height="58" viewBox="0 0 167 58" fill="none" xmlns="http://www.w3.org/2000/svg">
<path d="M7.53426 30.9011H1.9007C0.851113 30.9011 0 30.0495 0 29.0004C0 27.9508 0.851113 27.0993 1.9007 27.0993H7.53426C8.58337 27.0993 9.43486 27.9508 9.43486 29.0004C9.43486 30.0495 8.58337 30.9011 7.53426 30.9011Z" fill="#FFCB20"/>
<path d="M7.53426 30.9011H1.9007C0.851113 30.9011 0 30.0495 0 29.0004C0 27.9508 0.851113 27.0993 1.9007 27.0993H7.53426C8.58337 27.0993 9.43486 27.9508 9.43486 29.0004C9.43486 30.0495 8.58337 30.9011 7.53426 30.9011Z" fill="#FFCB20"/>
<path d="M13.5473 16.3827C13.0605 16.3827 12.5734 16.197 12.2023 15.8271L8.21915 11.8439C7.47773 11.1014 7.47773 9.89655 8.21915 9.15351C8.96171 8.4137 10.1665 8.4137 10.9096 9.15351L14.8923 13.1366C15.6337 13.8793 15.6337 15.0841 14.8923 15.8271C14.5212 16.197 14.0341 16.3827 13.5473 16.3827Z" fill="#FFCB20"/>
<path d="M28.0672 10.3682C27.0176 10.3682 26.1665 9.51671 26.1665 8.46751V2.83404C26.1665 1.78445 27.0176 0.932961 28.0672 0.932961C29.1163 0.932961 29.9679 1.78445 29.9679 2.83404V8.46751C29.9679 9.51671 29.1163 10.3682 28.0672 10.3682Z" fill="#FFCB20"/>
<path d="M42.5853 16.3827C42.0985 16.3827 41.6117 16.197 41.2401 15.8271C40.4987 15.0841 40.4987 13.8793 41.2401 13.1366L45.2234 9.15351C45.9659 8.4137 47.1708 8.4137 47.9134 9.15351C48.6548 9.89655 48.6548 11.1014 47.9134 11.8439L43.9306 15.8271C43.5591 16.197 43.0723 16.3827 42.5853 16.3827Z" fill="#FFCB20"/>
<path d="M54.232 30.9011H48.5985C47.5489 30.9011 46.6978 30.0495 46.6978 29.0004C46.6978 27.9508 47.5489 27.0993 48.5985 27.0993H54.232C55.2811 27.0993 56.1327 27.9508 56.1327 29.0004C56.1327 30.0495 55.2811 30.9011 54.232 30.9011Z" fill="#FFCB20"/>
<path d="M46.5687 49.4037C46.0819 49.4037 45.5948 49.218 45.2237 48.8464L41.2404 44.8622C40.499 44.1195 40.499 42.9159 41.242 42.1733C41.9847 41.4335 43.1879 41.4318 43.9309 42.1749L47.9137 46.1592C48.6551 46.9018 48.6551 48.1054 47.9125 48.848C47.541 49.218 47.0554 49.4037 46.5687 49.4037Z" fill="#FFCB20"/>
<path d="M28.0672 57.067C27.0176 57.067 26.1665 56.2159 26.1665 55.1664V49.5328C26.1665 48.4837 27.0176 47.6321 28.0672 47.6321C29.1163 47.6321 29.9679 48.4837 29.9679 49.5328V55.1664C29.9679 56.2159 29.1163 57.067 28.0672 57.067Z" fill="#FFCB20"/>
<path d="M28.066 40.2662C21.8539 40.2662 16.8001 35.2125 16.8001 29.0004C16.8001 22.7882 21.8539 17.7345 28.066 17.7345C34.2782 17.7345 39.3323 22.7882 39.3323 29.0004C39.3323 35.2125 34.2782 40.2662 28.066 40.2662ZM28.066 13.9316C19.744 13.9316 12.9976 20.678 12.9976 29.0004C12.9976 31.5989 13.6554 34.0441 14.8139 36.1781L6.10056 44.891C4.42286 46.5675 4.42286 49.288 6.10056 50.9646C6.93827 51.8034 8.03852 52.2232 9.13754 52.2232C10.2363 52.2232 11.3369 51.8034 12.1741 50.9646L20.8871 42.252C23.0214 43.4105 25.467 44.0688 28.066 44.0688C36.3884 44.0688 43.1352 37.3223 43.1352 29.0004C43.1352 20.678 36.3884 13.9316 28.066 13.9316Z" fill="#FFCB20"/>
<path d="M69.4736 40.7882V17.304H86.6903V22.5854H75.5294V26.247H86.444V31.5288H75.5294V40.7882H69.4736Z" fill="#0080C6"/>
<path d="M97.7459 27.7258C95.3866 27.7258 94.4713 29.1342 94.2602 30.3668H101.266C101.126 29.1695 100.245 27.7258 97.7459 27.7258ZM88.7324 32.2678C88.7324 27.3385 92.4293 23.3601 97.7459 23.3601C102.78 23.3601 106.443 27.0569 106.443 32.8314V34.0635H94.3303C94.7177 35.5773 96.126 36.8451 98.5907 36.8451C99.788 36.8451 101.759 36.3171 102.745 35.4015L105.104 38.9577C103.414 40.4714 100.598 41.2108 97.9923 41.2108C92.7461 41.2108 88.7324 37.7956 88.7324 32.2678Z" fill="#0080C6"/>
<path d="M109.118 36.2114V17.304H114.54V34.6973C114.54 35.6831 115.103 36.4225 116.019 36.4225C116.652 36.4225 117.216 36.2114 117.427 36.0002L118.448 40.0841C117.779 40.7178 116.441 41.2108 114.469 41.2108C111.019 41.2108 109.118 39.486 109.118 36.2114Z" fill="#0080C6"/>
<path d="M120.139 40.7882V23.7827H125.561V40.7882H120.139ZM119.751 19.1349C119.751 17.4097 121.125 16.0365 122.849 16.0365C124.575 16.0365 125.983 17.4097 125.983 19.1349C125.983 20.8601 124.575 22.2686 122.849 22.2686C121.125 22.2686 119.751 20.8601 119.751 19.1349Z" fill="#0080C6"/>
<path d="M141.016 40.7882V30.9652C141.016 28.8878 139.925 28.1484 138.235 28.1484C136.615 28.1484 135.559 29.0285 134.926 29.8032V40.7882H129.503V23.7827H134.926V25.86C135.946 24.6627 137.953 23.3601 140.841 23.3601C144.678 23.3601 146.439 25.6133 146.439 28.7469V40.7882H141.016Z" fill="#0080C6"/>
<path d="M158.304 27.7258C155.945 27.7258 155.029 29.1342 154.818 30.3668H161.825C161.684 29.1695 160.803 27.7258 158.304 27.7258ZM149.29 32.2678C149.29 27.3385 152.987 23.3601 158.304 23.3601C163.338 23.3601 167 27.0569 167 32.8314V34.0635H154.888C155.275 35.5773 156.684 36.8451 159.149 36.8451C160.346 36.8451 162.317 36.3171 163.303 35.4015L165.662 38.9577C163.972 40.4714 161.155 41.2108 158.55 41.2108C153.304 41.2108 149.29 37.7956 149.29 32.2678Z" fill="#0080C6"/>
</svg>
