<svg width="20" height="20" viewBox="0 0 20 20" fill="none" xmlns="http://www.w3.org/2000/svg">
<g clip-path="url(#clip0_18_539)">
<g clip-path="url(#clip1_18_539)">
<path d="M17.6814 0L1.9646 0C0.879581 0 0 0.879581 0 1.9646L0 17.6814C0 18.7664 0.879581 19.646 1.9646 19.646H17.6814C18.7664 19.646 19.646 18.7664 19.646 17.6814V1.9646C19.646 0.879581 18.7664 0 17.6814 0Z" fill="#EAA509"/>
</g>
<g clip-path="url(#clip2_18_539)">
<path d="M9.23601 1.83496C10.3452 1.83496 11.4233 2.19435 12.4705 2.91314C12.8609 3.16409 13.1444 3.61643 13.321 4.27015C13.4294 4.63884 13.4837 5.03076 13.4837 5.44592V5.58999C13.4837 6.9408 12.895 8.43414 11.7177 10.07C11.3056 10.5595 10.9416 10.9081 10.6256 11.1156C9.92846 11.5494 9.26855 11.7663 8.64581 11.7663H8.45062C7.75352 11.7663 7.11684 11.4998 6.54058 10.9669H6.52199C6.17499 12.1659 6.00149 13.0969 6.00149 13.7599C6.00149 14.5872 6.27258 15.1046 6.81477 15.3121C7.00066 15.3772 7.16487 15.4097 7.30738 15.4097H7.4561C8.53427 15.4097 10.0152 14.44 11.8989 12.5005C13.0979 11.1962 14.0289 10.0591 14.692 9.08941C15.4758 7.94617 16.2271 6.70379 16.9459 5.36227C17.076 5.15469 17.1798 5.0509 17.2573 5.0509C17.3998 5.0509 17.471 5.1392 17.471 5.31579C17.471 5.90135 16.839 7.43032 15.5749 9.90269C14.8871 11.2101 13.9561 12.5826 12.7819 14.0202C11.9423 15.0023 11.1956 15.7428 10.5419 16.2416C9.12603 17.2888 7.67762 17.8124 6.19668 17.8124H5.9829C5.26412 17.8124 4.6863 17.6869 4.24946 17.436C3.41294 17.0239 2.82583 16.3439 2.48813 15.3958C2.28055 14.8505 2.17676 14.3114 2.17676 13.7785V13.4672C2.17676 12.7484 2.45405 11.523 3.00863 9.79115C3.5756 8.03757 4.19679 6.57212 4.8722 5.3948C5.2006 4.78445 5.65294 4.13073 6.22921 3.43364C6.84885 2.79231 7.30583 2.40658 7.60016 2.27646C8.0463 1.98213 8.59159 1.83496 9.23601 1.83496ZM6.93095 9.83762C7.16951 10.0793 7.43131 10.2001 7.71635 10.2001H7.73029C8.3964 10.2001 9.16011 9.52935 10.0214 8.18783C10.2476 7.82844 10.4815 7.32808 10.7232 6.68675C11.0051 5.81615 11.1461 5.1299 11.1461 4.62799V4.46534C11.1461 4.02849 11.0206 3.81007 10.7696 3.81007H10.7371C9.99662 3.81007 8.87972 5.44437 7.38639 8.71297C7.16022 9.24587 7.00841 9.62075 6.93095 9.83762Z" fill="#FEF8EB"/>
</g>
</g>
<defs>
<clipPath id="clip0_18_539">
<rect width="19.646" height="19.646" fill="white"/>
</clipPath>
<clipPath id="clip1_18_539">
<rect width="19.646" height="19.646" fill="white"/>
</clipPath>
<clipPath id="clip2_18_539">
<rect width="15.9787" height="15.9787" fill="white" transform="translate(1.8335 1.83362)"/>
</clipPath>
</defs>
</svg>
