<svg width="25" height="24" viewBox="0 0 25 24" fill="none" xmlns="http://www.w3.org/2000/svg">
<g clip-path="url(#clip0_18_706)">
<g clip-path="url(#clip1_18_706)">
<path d="M21.9375 0H3.07726C1.77523 0 0.719727 1.05549 0.719727 2.35751V21.2176C0.719727 22.5196 1.77523 23.5751 3.07726 23.5751H21.9375C23.2396 23.5751 24.2951 22.5196 24.2951 21.2176V2.35751C24.2951 1.05549 23.2396 0 21.9375 0Z" fill="#EAA509"/>
</g>
<g clip-path="url(#clip2_18_706)">
<path d="M11.8017 2.2019C13.1327 2.2019 14.4265 2.63317 15.6832 3.49571C16.1516 3.79685 16.4918 4.33966 16.7037 5.12412C16.8339 5.56654 16.8989 6.03685 16.8989 6.53504V6.70792C16.8989 8.32889 16.1925 10.1209 14.7797 12.0839C14.2853 12.6713 13.8484 13.0896 13.4692 13.3387C12.6327 13.8592 11.8408 14.1194 11.0935 14.1194H10.8593C10.0227 14.1194 9.25871 13.7997 8.56719 13.1602H8.54488C8.12848 14.599 7.92028 15.7162 7.92028 16.5118C7.92028 17.5045 8.24559 18.1254 8.89622 18.3745C9.11929 18.4525 9.31634 18.4916 9.48736 18.4916H9.66582C10.9596 18.4916 12.7368 17.3279 14.9972 15.0005C16.4361 13.4353 17.5533 12.0709 18.3489 10.9072C19.2895 9.53533 20.1911 8.04448 21.0537 6.43465C21.2098 6.18556 21.3344 6.06101 21.4273 6.06101C21.5983 6.06101 21.6838 6.16697 21.6838 6.37889C21.6838 7.08156 20.9254 8.91631 19.4085 11.8831C18.5831 13.4521 17.4659 15.0991 16.0568 16.8241C15.0493 18.0027 14.1533 18.8912 13.3688 19.4898C11.6697 20.7464 9.93164 21.3748 8.1545 21.3748H7.89797C7.03542 21.3748 6.34204 21.2242 5.81782 20.923C4.814 20.4286 4.10946 19.6125 3.70421 18.4748C3.45512 17.8205 3.33057 17.1736 3.33057 16.5341V16.1605C3.33057 15.298 3.66332 13.8276 4.32881 11.7493C5.00918 9.645 5.75462 7.88647 6.56511 6.47369C6.95921 5.74128 7.50202 4.95682 8.19354 4.12031C8.93712 3.35072 9.4855 2.88784 9.8387 2.7317C10.3741 2.3785 11.0284 2.2019 11.8017 2.2019ZM9.03564 11.8051C9.32191 12.0951 9.63607 12.24 9.97812 12.24H9.99485C10.7942 12.24 11.7106 11.4351 12.7442 9.82532C13.0156 9.39405 13.2963 8.79362 13.5863 8.02403C13.9246 6.97932 14.0938 6.15582 14.0938 5.55353V5.35834C14.0938 4.83413 13.9432 4.57202 13.6421 4.57202H13.603C12.7145 4.57202 11.3742 6.53318 9.58217 10.4555C9.31076 11.095 9.12858 11.5448 9.03564 11.8051Z" fill="#FEF8EB"/>
</g>
</g>
<defs>
<clipPath id="clip0_18_706">
<rect width="23.5754" height="23.5751" fill="white" transform="translate(0.717285)"/>
</clipPath>
<clipPath id="clip1_18_706">
<rect width="23.5754" height="23.5751" fill="white" transform="translate(0.71875)"/>
</clipPath>
<clipPath id="clip2_18_706">
<rect width="19.1746" height="19.1744" fill="white" transform="translate(2.91846 2.20032)"/>
</clipPath>
</defs>
</svg>
