<svg width="119" height="20" viewBox="0 0 119 20" fill="none" xmlns="http://www.w3.org/2000/svg">
<path d="M5.81044 4.07691C6.82205 4.07691 7.69039 4.27012 8.41545 4.65653C9.14486 5.04294 9.70928 5.60302 10.1087 6.33676C10.5081 7.07051 10.7079 7.97141 10.7079 9.03946V10.4787H3.66781C3.69386 11.321 3.94351 11.981 4.41676 12.4585C4.89 12.9405 5.54777 13.1814 6.39005 13.1814C7.09341 13.1814 7.73381 13.112 8.31125 12.973C8.88436 12.8298 9.477 12.6127 10.0892 12.3218V14.6207C9.55515 14.8856 8.99073 15.0831 8.39592 15.2133C7.80545 15.3393 7.08907 15.4022 6.24678 15.4022C5.15267 15.4022 4.18665 15.1982 3.3487 14.79C2.50641 14.3819 1.84647 13.7654 1.36889 12.9405C0.88696 12.1156 0.645996 11.0757 0.645996 9.82097C0.645996 8.54017 0.863081 7.47646 1.29725 6.62983C1.73142 5.7832 2.33491 5.14714 3.10774 4.72165C3.88056 4.29182 4.78146 4.07691 5.81044 4.07691ZM5.82998 6.2C5.25687 6.2 4.77929 6.38669 4.39722 6.76008C4.01949 7.13346 3.79589 7.71308 3.72643 8.49892H7.90748C7.89445 7.83465 7.72078 7.28542 7.38647 6.85125C7.05216 6.41708 6.53333 6.2 5.82998 6.2ZM17.6112 4.05737C19.0787 4.05737 20.201 4.37432 20.9781 5.0082C21.7596 5.64209 22.1504 6.61246 22.1504 7.91931V15.2003H20.0729L19.4868 13.722H19.4086C18.9441 14.3081 18.4513 14.7336 17.9303 14.9984C17.4093 15.2676 16.6951 15.4022 15.7876 15.4022C14.8151 15.4022 14.0097 15.1178 13.3715 14.5491C12.7289 13.9847 12.4076 13.1141 12.4076 11.9375C12.4076 10.7783 12.8158 9.923 13.632 9.3716C14.4439 8.81587 15.6639 8.51195 17.292 8.45985L19.1872 8.40124V7.91931C19.1872 7.3462 19.0374 6.92723 18.7378 6.66239C18.4383 6.3932 18.0214 6.25861 17.4874 6.25861C16.9534 6.25861 16.4346 6.33459 15.9309 6.48655C15.4229 6.64285 14.915 6.83388 14.407 7.05965L13.4301 5.04077C14.0162 4.73251 14.6653 4.49154 15.3774 4.31788C16.0937 4.14421 16.8383 4.05737 17.6112 4.05737ZM19.1872 10.1401L18.028 10.1792C17.0684 10.2052 16.402 10.3789 16.0286 10.7002C15.6552 11.0214 15.4685 11.4404 15.4685 11.9571C15.4685 12.413 15.6031 12.7364 15.8723 12.9274C16.1372 13.1228 16.4823 13.2205 16.9078 13.2205C17.5504 13.2205 18.0909 13.0295 18.5294 12.6474C18.9679 12.2697 19.1872 11.7335 19.1872 11.0388V10.1401ZM32.831 11.9571C32.831 13.0642 32.4402 13.9152 31.6587 14.51C30.8815 15.1048 29.718 15.4022 28.168 15.4022C27.4082 15.4022 26.7548 15.3523 26.2077 15.2524C25.6607 15.1526 25.1158 14.9876 24.5731 14.7575V12.3022C25.1592 12.5671 25.7909 12.7863 26.4682 12.96C27.1499 13.1337 27.7512 13.2205 28.2722 13.2205C28.8583 13.2205 29.2751 13.1337 29.5226 12.96C29.7701 12.7863 29.8938 12.5606 29.8938 12.2827C29.8938 12.096 29.8439 11.9289 29.744 11.7812C29.6398 11.6336 29.4227 11.4665 29.0928 11.2798C28.7585 11.0931 28.2374 10.8521 27.5298 10.5569C26.8481 10.266 26.288 9.97727 25.8495 9.69072C25.411 9.40417 25.0854 9.05683 24.8726 8.64871C24.6556 8.24059 24.547 7.73044 24.547 7.11827C24.547 6.10665 24.9421 5.34686 25.7323 4.83888C26.5181 4.3309 27.5645 4.07691 28.8713 4.07691C29.553 4.07691 30.1999 4.14421 30.8121 4.2788C31.4243 4.41339 32.0581 4.63265 32.7137 4.93657L31.8085 7.07919C31.2788 6.85342 30.773 6.66239 30.2911 6.50609C29.8091 6.35413 29.3229 6.27815 28.8323 6.27815C28.3894 6.27815 28.0594 6.33893 27.8424 6.4605C27.6209 6.57773 27.5102 6.75791 27.5102 7.00104C27.5102 7.17471 27.5667 7.33101 27.6795 7.46994C27.7924 7.60888 28.0139 7.75867 28.3438 7.91931C28.6694 8.07995 29.1514 8.29269 29.7896 8.55754C30.4191 8.8137 30.9597 9.07854 31.4112 9.35207C31.8628 9.62559 32.2123 9.96424 32.4597 10.368C32.7072 10.7761 32.831 11.3058 32.831 11.9571ZM37.9303 15.1222L33.5929 4.2788H36.8492L38.9137 10.4201C39.0179 10.7154 39.0982 11.0193 39.1546 11.3319C39.2067 11.6445 39.2458 11.9744 39.2719 12.3218H39.3305C39.3695 11.9744 39.426 11.6445 39.4998 11.3319C39.5736 11.0193 39.6583 10.7154 39.7538 10.4201L41.7727 4.2788H44.9703L40.3529 16.6005C39.9405 17.7337 39.337 18.5847 38.5425 19.1534C37.7479 19.7179 36.8318 20.0001 35.7942 20.0001C35.4599 20.0001 35.169 19.9827 34.9215 19.948C34.674 19.9176 34.4569 19.8828 34.2702 19.8438V17.4797C34.4178 17.5058 34.5959 17.5318 34.8043 17.5579C35.0083 17.5883 35.2232 17.6035 35.449 17.6035C36.0785 17.6035 36.5757 17.4124 36.9404 17.0303C37.3094 16.6483 37.5808 16.1924 37.7544 15.6627L37.9303 15.1222Z" fill="#EAA509"/>
<path d="M51.8213 15.4022C50.8748 15.4022 50.0325 15.2089 49.2944 14.8225C48.552 14.4361 47.9723 13.8348 47.5555 13.0186C47.1344 12.2067 46.9238 11.1668 46.9238 9.89906C46.9238 8.57918 47.1431 7.50678 47.5816 6.68186C48.0244 5.8526 48.6214 5.24476 49.3725 4.85835C50.128 4.47194 50.9855 4.27874 51.945 4.27874C52.492 4.27874 53.0174 4.33518 53.521 4.44806C54.029 4.56095 54.4436 4.69771 54.7649 4.85835L54.2244 6.31716C53.9031 6.19993 53.5297 6.08705 53.1042 5.97851C52.6787 5.87431 52.2793 5.82221 51.9059 5.82221C49.7959 5.82221 48.7408 7.17464 48.7408 9.87952C48.7408 11.1733 48.9992 12.1632 49.5158 12.8492C50.0281 13.5352 50.7901 13.8782 51.8017 13.8782C52.3878 13.8782 52.9045 13.8196 53.3517 13.7024C53.7989 13.5808 54.2092 13.4332 54.5826 13.2595V14.8225C54.2222 15.0092 53.8271 15.1525 53.3973 15.2524C52.9631 15.3522 52.4378 15.4022 51.8213 15.4022ZM58.8874 0V4.46109C58.8874 4.71291 58.8765 4.97124 58.8548 5.23608C58.8331 5.50526 58.8092 5.74623 58.7832 5.95897H58.9069C59.2542 5.41192 59.7231 4.99946 60.3136 4.72159C60.9084 4.43938 61.5532 4.29827 62.2478 4.29827C63.5547 4.29827 64.5337 4.60871 65.185 5.22957C65.8406 5.85043 66.1684 6.84685 66.1684 8.21882V15.2003H64.423V8.34256C64.423 6.61891 63.6241 5.75708 62.0264 5.75708C60.8238 5.75708 59.9988 6.09356 59.5516 6.76653C59.1088 7.44383 58.8874 8.40769 58.8874 9.65809V15.2003H57.1225V0L58.8874 0ZM73.5471 4.29827C74.8539 4.29827 75.82 4.58483 76.4452 5.15793C77.0747 5.73103 77.3895 6.64496 77.3895 7.89971V15.2003H76.1065L75.7679 13.6828H75.6897C75.2208 14.269 74.7302 14.701 74.2179 14.9788C73.7056 15.261 72.9957 15.4022 72.0883 15.4022C71.1114 15.4022 70.3038 15.1438 69.6656 14.6272C69.0274 14.1148 68.7083 13.3116 68.7083 12.2175C68.7083 11.1538 69.1272 10.3311 69.9652 9.74927C70.8075 9.16748 72.1013 8.85054 73.8467 8.79844L75.6637 8.73982V8.1016C75.6637 7.20721 75.4705 6.58635 75.084 6.23901C74.6976 5.89167 74.1527 5.71801 73.4494 5.71801C72.8893 5.71801 72.3553 5.80267 71.8473 5.972C71.3393 6.13698 70.8661 6.32584 70.4276 6.53859L69.887 5.21654C70.3516 4.96472 70.9052 4.74981 71.5477 4.5718C72.186 4.38945 72.8524 4.29827 73.5471 4.29827ZM75.6441 9.95767L74.0681 10.0228C72.7352 10.0749 71.8104 10.2876 71.2937 10.661C70.7814 11.0344 70.5253 11.5598 70.5253 12.2371C70.5253 12.8406 70.7098 13.2812 71.0788 13.5591C71.4435 13.8413 71.9124 13.9824 72.4855 13.9824C73.393 13.9824 74.1462 13.7306 74.7454 13.227C75.3445 12.7277 75.6441 11.9592 75.6441 10.9215V9.95767ZM85.8688 4.27874C87.1496 4.27874 88.1156 4.58917 88.7669 5.21003C89.4225 5.83089 89.7503 6.83382 89.7503 8.21882V15.2003H88.0114V8.34256C88.0114 7.47422 87.8161 6.82731 87.4253 6.40182C87.0389 5.972 86.4332 5.75708 85.6083 5.75708C84.423 5.75708 83.6024 6.09139 83.1466 6.76001C82.695 7.42429 82.4693 8.38381 82.4693 9.63855V15.2003H80.7044V4.48063H82.1306L82.3846 5.93943H82.4888C82.8361 5.37936 83.3159 4.96255 83.9281 4.68903C84.5402 4.4155 85.1872 4.27874 85.8688 4.27874ZM98.2296 4.27874C99.5104 4.27874 100.476 4.58917 101.128 5.21003C101.783 5.83089 102.111 6.83382 102.111 8.21882V15.2003H100.372V8.34256C100.372 7.47422 100.179 6.82731 99.7926 6.40182C99.4019 5.972 98.794 5.75708 97.9691 5.75708C96.7838 5.75708 95.9632 6.09139 95.5074 6.76001C95.0558 7.42429 94.8301 8.38381 94.8301 9.63855V15.2003H93.0717V4.48063H94.4914L94.7519 5.93943H94.8496C95.1969 5.37936 95.6767 4.96255 96.2889 4.68903C96.901 4.4155 97.548 4.27874 98.2296 4.27874ZM109.568 4.27874C110.488 4.27874 111.279 4.47845 111.938 4.87789C112.598 5.27733 113.106 5.84175 113.462 6.57115C113.814 7.29621 113.99 8.14501 113.99 9.11755V10.1791H106.65C106.676 11.3948 106.987 12.3174 107.582 12.9469C108.176 13.5808 109.006 13.8978 110.069 13.8978C110.751 13.8978 111.355 13.8348 111.88 13.7089C112.405 13.583 112.948 13.4006 113.508 13.1618V14.6988C112.965 14.9419 112.427 15.1199 111.893 15.2328C111.359 15.3457 110.725 15.4022 109.991 15.4022C108.98 15.4022 108.083 15.1959 107.302 14.7835C106.52 14.3667 105.912 13.748 105.478 12.9274C105.048 12.1111 104.833 11.1082 104.833 9.91859C104.833 8.74634 105.029 7.73906 105.419 6.89678C105.815 6.05883 106.368 5.41192 107.08 4.95604C107.792 4.50451 108.621 4.27874 109.568 4.27874ZM109.548 5.71801C108.71 5.71801 108.048 5.98936 107.562 6.53207C107.076 7.07044 106.785 7.81939 106.689 8.7789H112.153C112.14 7.87149 111.925 7.13557 111.509 6.57115C111.096 6.00239 110.443 5.71801 109.548 5.71801ZM118.471 0V15.2003H116.712V0L118.471 0Z" fill="#EAA509"/>
</svg>
