<svg width="143" height="24" viewBox="0 0 143 24" fill="none" xmlns="http://www.w3.org/2000/svg">
<path d="M7.08995 4.89228C8.3039 4.89228 9.34591 5.12413 10.216 5.58782C11.0913 6.05151 11.7686 6.7236 12.2479 7.60409C12.7272 8.48458 12.9669 9.56566 12.9669 10.8473V12.5744H4.51878C4.55004 13.5852 4.84962 14.3771 5.41752 14.9502C5.98542 15.5285 6.77474 15.8177 7.7855 15.8177C8.62953 15.8177 9.39801 15.7343 10.091 15.5676C10.7787 15.3957 11.4899 15.1352 12.2245 14.7861V17.5448C11.5836 17.8626 10.9063 18.0997 10.1925 18.256C9.48398 18.407 8.62432 18.4826 7.61356 18.4826C6.30063 18.4826 5.14139 18.2377 4.13584 17.748C3.12509 17.2582 2.33316 16.5184 1.76005 15.5285C1.18174 14.5386 0.892578 13.2908 0.892578 11.7851C0.892578 10.2482 1.15308 8.97172 1.67409 7.95577C2.19509 6.93982 2.91929 6.17655 3.84669 5.66597C4.77408 5.15018 5.85517 4.89228 7.08995 4.89228ZM7.1134 7.43998C6.42567 7.43998 5.85256 7.66401 5.39408 8.11207C4.9408 8.56013 4.67248 9.25566 4.58912 10.1987H9.60641C9.59078 9.40154 9.38238 8.74248 8.98121 8.22148C8.58003 7.70048 7.95743 7.43998 7.1134 7.43998ZM21.2509 4.86884C23.0119 4.86884 24.3587 5.24917 25.2913 6.00983C26.2291 6.77049 26.698 7.93493 26.698 9.50314V18.2403H24.205L23.5017 16.4663H23.4079C22.8504 17.1697 22.2591 17.6803 21.6339 17.9981C21.0086 18.3211 20.1516 18.4826 19.0627 18.4826C17.8956 18.4826 16.9292 18.1413 16.1633 17.4588C15.3922 16.7815 15.0066 15.7369 15.0066 14.325C15.0066 12.9339 15.4964 11.9076 16.4759 11.2459C17.4502 10.579 18.9142 10.2143 20.868 10.1518L23.1422 10.0815V9.50314C23.1422 8.81542 22.9624 8.31265 22.6029 7.99484C22.2434 7.67182 21.7433 7.51031 21.1024 7.51031C20.4616 7.51031 19.839 7.60149 19.2346 7.78384C18.625 7.9714 18.0155 8.20064 17.4059 8.47156L16.2336 6.0489C16.937 5.67899 17.7159 5.38984 18.5703 5.18144C19.43 4.97304 20.3235 4.86884 21.2509 4.86884ZM23.1422 12.1681L21.7511 12.2149C20.5997 12.2462 19.7999 12.4546 19.3518 12.8402C18.9038 13.2257 18.6797 13.7285 18.6797 14.3484C18.6797 14.8955 18.8413 15.2836 19.1643 15.5129C19.4821 15.7473 19.8963 15.8646 20.4069 15.8646C21.178 15.8646 21.8266 15.6353 22.3528 15.1768C22.8791 14.7236 23.1422 14.0801 23.1422 13.2465V12.1681ZM39.5148 14.3484C39.5148 15.677 39.0459 16.6982 38.1081 17.4119C37.1755 18.1257 35.7792 18.4826 33.9192 18.4826C33.0074 18.4826 32.2233 18.4227 31.5668 18.3028C30.9104 18.183 30.2565 17.985 29.6053 17.7089V14.7626C30.3086 15.0805 31.0667 15.3436 31.8794 15.552C32.6974 15.7604 33.419 15.8646 34.0442 15.8646C34.7476 15.8646 35.2478 15.7604 35.5447 15.552C35.8417 15.3436 35.9902 15.0726 35.9902 14.7392C35.9902 14.5152 35.9303 14.3146 35.8104 14.1374C35.6854 13.9603 35.4249 13.7597 35.0289 13.5357C34.6278 13.3117 34.0025 13.0225 33.1533 12.6682C32.3353 12.3191 31.6632 11.9727 31.137 11.6288C30.6108 11.285 30.22 10.8682 29.9647 10.3784C29.7042 9.88868 29.574 9.2765 29.574 8.54189C29.574 7.32796 30.0481 6.41621 30.9963 5.80664C31.9394 5.19707 33.195 4.89228 34.7632 4.89228C35.5812 4.89228 36.3575 4.97304 37.0921 5.13455C37.8267 5.29606 38.5874 5.55916 39.3741 5.92386L38.2878 8.495C37.6522 8.22408 37.0452 7.99484 36.4669 7.80728C35.8886 7.62493 35.3051 7.53376 34.7163 7.53376C34.1849 7.53376 33.7889 7.6067 33.5284 7.75258C33.2627 7.89325 33.1299 8.10946 33.1299 8.40122C33.1299 8.60962 33.1976 8.79718 33.3331 8.9639C33.4685 9.13062 33.7342 9.31037 34.1302 9.50314C34.521 9.69591 35.0993 9.9512 35.8651 10.269C36.6206 10.5764 37.2693 10.8942 37.8111 11.2224C38.353 11.5507 38.7724 11.9571 39.0693 12.4416C39.3663 12.9313 39.5148 13.5669 39.5148 14.3484ZM45.634 18.1465L40.4292 5.13455H44.3367L46.8141 12.5041C46.9391 12.8584 47.0355 13.2231 47.1033 13.5982C47.1658 13.9733 47.2127 14.3693 47.2439 14.7861H47.3143C47.3612 14.3693 47.4289 13.9733 47.5175 13.5982C47.606 13.2231 47.7076 12.8584 47.8223 12.5041L50.2449 5.13455H54.0821L48.5412 19.9206C48.0463 21.2804 47.3221 22.3015 46.3686 22.984C45.4152 23.6613 44.3159 24 43.0707 24C42.6695 24 42.3204 23.9792 42.0234 23.9375C41.7265 23.901 41.466 23.8593 41.2419 23.8124V20.9756C41.4191 21.0068 41.6327 21.0381 41.8828 21.0694C42.1276 21.1058 42.3855 21.1241 42.6565 21.1241C43.4119 21.1241 44.0085 20.8948 44.4461 20.4363C44.889 19.9779 45.2146 19.4308 45.423 18.7952L45.634 18.1465Z" fill="#EAA509"/>
<path d="M62.3022 18.4825C61.1665 18.4825 60.1557 18.2507 59.27 17.787C58.3791 17.3233 57.6835 16.6017 57.1834 15.6222C56.678 14.6479 56.4253 13.4001 56.4253 11.8788C56.4253 10.295 56.6884 9.00811 57.2146 8.0182C57.746 7.02309 58.4624 6.29369 59.3638 5.83C60.2703 5.36631 61.2993 5.13446 62.4507 5.13446C63.1072 5.13446 63.7376 5.20219 64.342 5.33765C64.9516 5.47311 65.4491 5.63723 65.8347 5.83L65.186 7.58056C64.8005 7.43989 64.3524 7.30443 63.8418 7.17418C63.3312 7.04914 62.8519 6.98662 62.4038 6.98662C59.8718 6.98662 58.6057 8.60954 58.6057 11.8554C58.6057 13.408 58.9157 14.5958 59.5357 15.419C60.1505 16.2422 61.0649 16.6538 62.2788 16.6538C62.9822 16.6538 63.6022 16.5835 64.1388 16.4428C64.6754 16.2969 65.1678 16.1198 65.6158 15.9114V17.787C65.1834 18.011 64.7093 18.1829 64.1935 18.3028C63.6725 18.4226 63.0421 18.4825 62.3022 18.4825ZM70.7816 0V5.35328C70.7816 5.65547 70.7686 5.96546 70.7426 6.28327C70.7165 6.60629 70.6878 6.89545 70.6566 7.15074H70.8051C71.2219 6.49428 71.7846 5.99933 72.4931 5.66589C73.2069 5.32723 73.9806 5.15791 74.8142 5.15791C76.3825 5.15791 77.5573 5.53042 78.3388 6.27546C79.1255 7.02049 79.5189 8.21618 79.5189 9.86255V18.2402H77.4245V10.011C77.4245 7.94266 76.4658 6.90847 74.5485 6.90847C73.1053 6.90847 72.1154 7.31225 71.5788 8.1198C71.0473 8.93256 70.7816 10.0892 70.7816 11.5897V18.2402H68.6637V0H70.7816ZM88.3734 5.15791C89.9416 5.15791 91.1009 5.50177 91.8511 6.18949C92.6066 6.87721 92.9843 7.97392 92.9843 9.47961V18.2402H91.4448L91.0384 16.4193H90.9446C90.3819 17.1227 89.7932 17.6411 89.1784 17.9745C88.5636 18.3132 87.7117 18.4825 86.6228 18.4825C85.4506 18.4825 84.4815 18.1725 83.7156 17.5525C82.9497 16.9377 82.5668 15.9739 82.5668 14.661C82.5668 13.3845 83.0696 12.3972 84.0751 11.6991C85.0859 11.0009 86.6385 10.6206 88.7329 10.5581L90.9133 10.4877V9.72188C90.9133 8.64862 90.6815 7.90358 90.2178 7.48678C89.7541 7.06998 89.1002 6.86158 88.2562 6.86158C87.5841 6.86158 86.9433 6.96318 86.3337 7.16637C85.7241 7.36435 85.1562 7.59098 84.63 7.84627L83.9813 6.25983C84.5388 5.95765 85.2031 5.69975 85.9742 5.48614C86.7401 5.26732 87.5398 5.15791 88.3734 5.15791ZM90.8899 11.9492L88.9986 12.0273C87.3991 12.0898 86.2894 12.3451 85.6694 12.7932C85.0546 13.2412 84.7472 13.8717 84.7472 14.6844C84.7472 15.4086 84.9686 15.9374 85.4115 16.2709C85.8491 16.6095 86.4118 16.7788 87.0996 16.7788C88.1885 16.7788 89.0924 16.4767 89.8114 15.8723C90.5304 15.2731 90.8899 14.351 90.8899 13.1058V11.9492ZM103.16 5.13446C104.697 5.13446 105.856 5.50698 106.637 6.25201C107.424 6.99704 107.817 8.20055 107.817 9.86255V18.2402H105.731V10.011C105.731 8.96903 105.496 8.19274 105.027 7.68216C104.564 7.16637 103.837 6.90847 102.847 6.90847C101.425 6.90847 100.44 7.30964 99.8929 8.11199C99.351 8.90912 99.0801 10.0605 99.0801 11.5662V18.2402H96.9622V5.37673H98.6737L98.9785 7.12729H99.1035C99.5204 6.4552 100.096 5.95504 100.831 5.62681C101.565 5.29858 102.342 5.13446 103.16 5.13446ZM117.993 5.13446C119.53 5.13446 120.689 5.50698 121.47 6.25201C122.257 6.99704 122.65 8.20055 122.65 9.86255V18.2402H120.564V10.011C120.564 8.96903 120.332 8.19274 119.868 7.68216C119.399 7.16637 118.67 6.90847 117.68 6.90847C116.258 6.90847 115.273 7.30964 114.726 8.11199C114.184 8.90912 113.913 10.0605 113.913 11.5662V18.2402H111.803V5.37673H113.507L113.819 7.12729H113.937C114.353 6.4552 114.929 5.95504 115.664 5.62681C116.398 5.29858 117.175 5.13446 117.993 5.13446ZM131.599 5.13446C132.703 5.13446 133.651 5.37412 134.443 5.85345C135.235 6.33277 135.845 7.01007 136.272 7.88535C136.694 8.75542 136.905 9.77398 136.905 10.941V12.2149H128.098C128.129 13.6737 128.501 14.7808 129.215 15.5362C129.929 16.2969 130.924 16.6772 132.2 16.6772C133.018 16.6772 133.743 16.6017 134.373 16.4506C135.004 16.2995 135.655 16.0807 136.327 15.7941V17.6385C135.676 17.9302 135.03 18.1439 134.389 18.2793C133.748 18.4148 132.987 18.4825 132.107 18.4825C130.893 18.4825 129.817 18.235 128.879 17.7401C127.941 17.2399 127.212 16.4975 126.691 15.5128C126.175 14.5333 125.917 13.3298 125.917 11.9023C125.917 10.4956 126.152 9.28684 126.621 8.2761C127.095 7.27057 127.759 6.49428 128.613 5.94723C129.468 5.40539 130.463 5.13446 131.599 5.13446ZM131.575 6.86158C130.57 6.86158 129.775 7.18721 129.192 7.83846C128.608 8.4845 128.259 9.38323 128.144 10.5346H134.701C134.686 9.44575 134.428 8.56265 133.928 7.88535C133.433 7.20284 132.649 6.86158 131.575 6.86158ZM142.282 0V18.2402H140.172V0H142.282Z" fill="#EAA509"/>
</svg>
