<svg width="167" height="60" viewBox="0 0 167 60" fill="none" xmlns="http://www.w3.org/2000/svg">
<path d="M142.391 22.548L137.454 15.9536C137.454 15.9536 133.839 20.8661 133.825 20.8661V33.905L142.391 22.548Z" fill="#FF8C3E"/>
<path d="M133.825 20.8661C133.714 21.0326 127.763 29.1923 127.749 29.209C126.956 30.3414 126.817 31.6736 126.831 33.0224V43.1971L133.825 33.905V32.8059V20.8661Z" fill="#FF4E17"/>
<path d="M126.831 43.1971C126.831 43.9132 126.831 49.4418 126.831 50.3411H133.825V33.905L126.831 43.1971Z" fill="#FF703E"/>
<path d="M142.391 22.548L147.327 15.9536C147.327 15.9536 150.942 20.8661 150.956 20.8661V33.905L142.391 22.548Z" fill="#5FD7FC"/>
<path d="M150.942 20.8661C151.054 21.0326 157.005 29.1923 157.019 29.209C157.811 30.3414 157.95 31.6736 157.937 33.0224V43.1971L150.942 33.905V32.8059V20.8661Z" fill="#15B8EA"/>
<path d="M157.937 43.1971C157.937 43.9132 157.937 49.4418 157.937 50.3411H150.942V33.905L157.937 43.1971Z" fill="#3C8BCA"/>
<path d="M147.327 15.9536C147.327 15.9536 144.017 11.4907 144.003 11.474C143.252 10.5082 142.794 10.0586 142.376 10.0419C141.959 10.0586 141.5 10.5248 140.75 11.474C140.736 11.4907 137.454 15.9536 137.454 15.9536L142.39 22.548L147.327 15.9536Z" fill="#FC611E"/>
<path d="M51.3612 48.2186H51.3345L49.1171 41.8381H47.7412L50.6667 49.7976L49.2507 53.4551H50.5597L54.9011 41.8381H53.6053L51.3612 48.2186Z" fill="#222222"/>
<path d="M62.1148 41.8541C59.9908 41.8541 58.4814 43.6103 58.4814 46.0917C58.4814 48.6375 60.0711 50.3293 62.5289 50.3293C63.6242 50.3293 64.5726 49.9909 65.2004 49.3947V47.8963H65.147C64.5059 48.6214 63.5975 49.0081 62.5689 49.0081C60.9927 49.0081 59.9374 48.0897 59.7638 46.5751L65.6412 46.5913V45.7695C65.6414 43.401 64.2521 41.8541 62.1148 41.8541ZM59.7638 45.3345C59.9908 44.0294 60.9393 43.1594 62.1281 43.1594C63.3971 43.1594 64.2922 44.0133 64.4658 45.3345H59.7638Z" fill="#222222"/>
<path d="M71.2787 44.6577H67.1377V46.1561H71.2787V44.6577Z" fill="#222222"/>
<path d="M85.1037 41.8381C82.9531 41.8381 81.417 43.5943 81.417 46.0757C81.417 48.5571 82.9532 50.3133 85.1037 50.3133C87.2544 50.3133 88.7905 48.5571 88.7905 46.0757C88.7905 43.5943 87.2677 41.8381 85.1037 41.8381ZM85.1037 48.9919C83.6744 48.9919 82.6993 47.7996 82.6993 46.0755C82.6993 44.3515 83.6878 43.1592 85.1037 43.1592C86.5197 43.1592 87.5082 44.3677 87.5082 46.0755C87.5082 47.7834 86.5197 48.9919 85.1037 48.9919Z" fill="#222222"/>
<path d="M103.084 40.4363C103.541 40.4363 103.912 39.9963 103.912 39.4535C103.912 38.9107 103.541 38.4706 103.084 38.4706C102.627 38.4706 102.256 38.9107 102.256 39.4535C102.256 39.9963 102.627 40.4363 103.084 40.4363Z" fill="#222222"/>
<path d="M103.738 41.8703H102.469V50.281H103.738V41.8703Z" fill="#222222"/>
<path d="M111.593 43.0949V41.8541H105.835V43.1915H109.896L105.608 49.0564V50.281H111.66V48.9436H107.318L111.593 43.0949Z" fill="#222222"/>
<path d="M113.903 38.4705C113.409 38.4705 113.075 38.8733 113.075 39.4533C113.075 40.0333 113.409 40.4362 113.903 40.4362C114.398 40.4362 114.732 40.0333 114.732 39.4533C114.732 38.8733 114.384 38.4866 113.903 38.4705Z" fill="#222222"/>
<path d="M114.532 41.8541H113.263V50.297H114.532V41.8541Z" fill="#222222"/>
<path d="M117.75 37.9711H116.481V50.2648H117.75V37.9711Z" fill="#222222"/>
<path d="M98.3947 41.7897C97.1124 41.7897 96.3109 42.3375 95.87 43.4493H95.8433C95.4292 42.3537 94.6277 41.7897 93.5992 41.7897C92.4904 41.7897 91.7425 42.3052 91.315 43.2398H91.2883L91.2349 41.8703H90.1797V50.2971L91.4353 50.281L91.4486 46.0434C91.4486 44.2066 92.0898 43.1915 93.292 43.1915C94.4141 43.1915 94.9886 44.0616 94.9886 45.705V50.281H96.2575V46.1402C96.2575 44.2228 96.8987 43.1917 98.0875 43.1917C99.1963 43.1917 99.7841 44.0617 99.7841 45.7052V50.2811H101.053V45.5442C101.053 43.1432 100.091 41.7897 98.3947 41.7897Z" fill="#222222"/>
<path d="M44.1081 41.8703C42.9727 41.8703 42.1178 42.3214 41.5567 43.1109H41.53V38.0355H40.3145V50.3293H41.4099L41.3832 48.9113H41.4099C41.9309 49.8135 42.8926 50.3776 44.1083 50.3776C46.1253 50.3776 47.5946 48.6052 47.5946 46.14C47.5945 43.6426 46.1385 41.8703 44.1081 41.8703ZM43.9078 49.0404C42.4918 49.0404 41.5033 47.8319 41.5033 46.124C41.5033 44.4 42.5052 43.2076 43.9078 43.2076C45.337 43.2076 46.3122 44.4161 46.3122 46.124C46.3122 47.8319 45.337 49.0404 43.9078 49.0404Z" fill="#222222"/>
<path d="M78.8252 43.0464H78.7985C78.2508 42.2569 77.3826 41.8058 76.2471 41.8058C74.2167 41.8381 72.7607 43.6105 72.7607 46.0755C72.7607 48.5408 74.2167 50.3131 76.2471 50.3131C77.476 50.3131 78.4245 49.7493 78.9455 48.8469H78.9722L78.9455 50.2648H80.0409V37.9711H78.8254L78.8252 43.0464ZM76.4475 48.9919C75.0182 49.008 74.0431 47.7996 74.0431 46.0755C74.0431 44.3515 75.0316 43.1592 76.4475 43.1592C77.8634 43.1592 78.8519 44.3676 78.8519 46.0755C78.8653 47.7996 77.8634 48.9919 76.4475 48.9919Z" fill="#222222"/>
<path d="M80.8474 15.5706L75.8138 29.9917L70.7942 15.5706H68.333L74.5902 32.8393H76.954L83.2112 15.5706H80.8474Z" fill="#222222"/>
<path d="M22.8922 15.5206V18.568C21.7242 16.6863 19.7219 15.5206 17.1495 15.5206C17.1217 15.5206 17.08 15.5206 17.0522 15.5206C17.0104 15.5206 16.9687 15.5206 16.9131 15.5206C12.686 15.5206 9.62695 19.1509 9.62695 24.2132C9.62695 29.259 12.686 32.8559 16.9131 32.8559C16.9409 32.8559 16.9687 32.8559 17.0104 32.8559C17.0661 32.8559 17.1078 32.8559 17.1634 32.8559C19.7358 32.8559 21.752 31.7069 22.9061 29.8251L22.92 32.8393H23.1564H24.9918V15.5206H22.8922ZM11.963 24.2299C11.963 20.4165 14.2017 17.7187 17.3581 17.6688C20.5284 17.752 22.7393 20.4331 22.7393 24.2299C22.7393 28.0433 20.5006 30.7077 17.3164 30.7577C14.1738 30.6744 11.963 28.01 11.963 24.2299Z" fill="#222222"/>
<path d="M63.4948 15.504V18.5514C62.3267 16.6696 60.3244 15.504 57.752 15.504C57.7103 15.504 57.6825 15.504 57.6547 15.504C57.613 15.504 57.5713 15.504 57.5156 15.504C53.2886 15.504 50.2295 19.1342 50.2295 24.1966C50.2295 29.2423 53.2886 32.8393 57.5156 32.8393C57.5435 32.8393 57.5713 32.8393 57.613 32.8393C57.6686 32.8393 57.7103 32.8393 57.7659 32.8393C60.3383 32.8393 62.3546 31.6903 63.5087 29.8085L63.5226 32.8226H65.5944V15.504H65.358H63.4948ZM52.5794 24.2133C52.5794 20.3998 54.8181 17.7021 57.9745 17.6521C61.1448 17.7354 63.3557 20.4165 63.3557 24.2133C63.3557 28.0267 61.1309 30.6911 57.9467 30.7411C54.7903 30.6578 52.5794 28.01 52.5794 24.2133Z" fill="#222222"/>
<path d="M110.16 15.5206C110.132 15.5206 110.09 15.5206 110.062 15.5206C110.02 15.5206 109.965 15.5206 109.923 15.5206C105.474 15.5206 102.331 19.1176 102.331 24.1966C102.331 29.2423 105.487 32.8393 109.923 32.8393C109.951 32.8393 109.993 32.8393 110.02 32.8393C110.062 32.8393 110.118 32.8393 110.16 32.8393C114.595 32.8393 117.779 29.2423 117.779 24.1966C117.779 19.1176 114.609 15.5206 110.16 15.5206ZM104.667 24.1966C104.667 20.3998 106.906 17.7021 110.062 17.6521C113.219 17.7354 115.443 20.3998 115.443 24.1966C115.443 28.01 113.205 30.6578 110.02 30.7077C106.878 30.6245 104.667 27.9767 104.667 24.1966Z" fill="#222222"/>
<path d="M37.3255 29.7086C36.8111 30.3414 36.088 30.6078 35.351 30.6411C33.7659 30.5912 32.7786 29.3089 32.7786 27.1274V17.6188H37.5897V15.5206H37.3533H32.7786V10.1252H32.5423H30.4982L30.4843 15.5206H27.6895V17.6355H27.9258H30.4565L30.4704 27.2107C30.4704 30.791 32.0695 32.8226 34.9478 32.8226C34.9756 32.8226 35.0034 32.8226 35.0312 32.8226C35.0869 32.8226 35.1286 32.8226 35.1842 32.8226C36.0185 32.8226 36.7554 32.6727 37.3255 32.373V29.7086Z" fill="#222222"/>
<path d="M48.9782 15.887C48.4915 15.6205 47.5043 15.4373 46.9898 15.4207C44.8762 15.3541 43.2772 16.4032 42.3873 18.3016L42.3734 15.5039H40.3154V32.8226H42.5958V24.8793C42.5958 20.2832 44.0141 17.8353 46.809 17.7687C47.6155 17.7853 48.3664 18.0185 48.9782 18.5014V15.887Z" fill="#222222"/>
<path d="M98.354 28.3264H98.3401C96.9357 29.9084 95.1558 30.6911 93.0006 30.7077C89.5105 30.6411 87.2022 28.4097 86.9241 24.9127L99.6193 24.9293V23.5471C99.6193 18.7179 96.741 15.5539 92.3053 15.5539C92.2775 15.5539 92.2497 15.5539 92.2219 15.5539C92.1663 15.5539 92.1246 15.5539 92.069 15.5539C87.6611 15.5539 84.5742 19.1342 84.5742 24.2133C84.5742 29.4255 87.8141 32.8393 92.8476 32.8393C92.8754 32.8393 92.9032 32.8393 92.945 32.8393C93.0006 32.8393 93.0423 32.8393 93.084 32.8393C95.1976 32.8393 97.0608 32.2065 98.354 31.0741V28.3264ZM92.2636 17.6688C95.1976 17.7354 97.1999 19.7337 97.478 22.8477H86.9241C87.383 19.7837 89.4826 17.7021 92.2636 17.6688Z" fill="#222222"/>
</svg>
