<svg width="166" height="62" viewBox="0 0 166 62" fill="none" xmlns="http://www.w3.org/2000/svg">
<path d="M87.4277 15.5776C87.4277 17.8118 85.9249 19.6116 84.0593 19.6116C82.1937 19.6116 80.6909 17.8118 80.6909 15.5776C80.6909 13.3433 82.1419 11.5435 84.0593 11.5435C85.9767 11.6056 87.4277 13.4054 87.4277 15.5776ZM73.5395 23.7077C73.5395 24.0801 73.5395 24.7007 73.5395 24.7007C73.5395 24.7007 71.933 22.2182 68.5128 22.2182C62.8642 22.2182 58.4593 27.3694 58.4593 34.5065C58.4593 41.5816 62.8124 46.7948 68.5128 46.7948C71.9848 46.7948 73.5395 44.2503 73.5395 44.2503V45.3053C73.5395 45.8018 73.8504 46.1742 74.265 46.1742H78.4626V22.8388C78.4626 22.8388 74.6277 22.8388 74.265 22.8388C73.8504 22.8388 73.5395 23.2733 73.5395 23.7077ZM73.5395 38.6647C72.7622 40.03 71.2075 41.2092 69.3419 41.2092C66.0253 41.2092 63.486 38.7267 63.486 34.5065C63.486 30.2863 66.0253 27.8038 69.3419 27.8038C71.1557 27.8038 72.814 29.045 73.5395 30.3483V38.6647ZM81.5719 22.8388H86.5468V46.1742H81.5719V22.8388ZM155.884 22.2182C152.464 22.2182 150.858 24.7007 150.858 24.7007V11.6056H145.883V46.1742C145.883 46.1742 149.718 46.1742 150.08 46.1742C150.495 46.1742 150.806 45.7397 150.806 45.3053V44.2503C150.806 44.2503 152.412 46.7948 155.833 46.7948C161.481 46.7948 165.886 41.5816 165.886 34.5065C165.886 27.4314 161.481 22.2182 155.884 22.2182ZM155.055 41.1471C153.138 41.1471 151.635 39.968 150.858 38.6026V30.2863C151.635 29.045 153.293 27.7417 155.055 27.7417C158.372 27.7417 160.911 30.2242 160.911 34.4444C160.911 38.6647 158.372 41.1471 155.055 41.1471ZM143.292 32.3343V46.2362H138.317V33.017C138.317 29.1692 137.28 27.6176 134.482 27.6176C132.979 27.6176 131.424 28.5485 130.44 29.9139V46.1742H125.465V22.8388H129.403C129.818 22.8388 130.129 23.2733 130.129 23.7077V24.7007C131.58 22.9009 133.497 22.2182 135.415 22.2182C137.591 22.2182 139.405 22.963 140.856 24.4525C142.618 26.1902 143.292 28.4244 143.292 32.3343ZM113.39 22.2182C109.97 22.2182 108.364 24.7007 108.364 24.7007V11.6056H103.389V46.1742C103.389 46.1742 107.224 46.1742 107.586 46.1742C108.001 46.1742 108.312 45.7397 108.312 45.3053V44.2503C108.312 44.2503 109.918 46.7948 113.339 46.7948C118.987 46.7948 123.392 41.5816 123.392 34.5065C123.444 27.4314 119.039 22.2182 113.39 22.2182ZM112.561 41.1471C110.644 41.1471 109.141 39.968 108.364 38.6026V30.2863C109.141 29.045 110.799 27.7417 112.561 27.7417C115.878 27.7417 118.417 30.2242 118.417 34.4444C118.417 38.6647 115.878 41.1471 112.561 41.1471ZM99.0876 22.2182C100.59 22.2182 101.368 22.5285 101.368 22.5285V28.0521C101.368 28.0521 97.2221 26.3764 94.631 29.9139V46.2362H89.6561V22.8388C89.6561 22.8388 93.4909 22.8388 93.8536 22.8388C94.2682 22.8388 94.5791 23.2733 94.5791 23.7077V24.7007C95.5119 23.3974 97.533 22.2182 99.0876 22.2182ZM47.4213 44.0641C47.1622 43.3193 46.9031 42.5125 46.644 41.8298C46.2294 40.7127 45.8148 39.6577 45.4521 38.6647L45.4002 38.6026C41.8245 29.2933 37.9897 19.8599 33.9476 10.5506L33.7921 10.1782C33.3776 9.24725 32.963 8.25425 32.5484 7.26126C32.0302 6.14414 31.512 4.96496 30.6828 3.84785C29.0245 1.36537 26.6407 0 24.1015 0C21.5104 0 19.1784 1.36537 17.4683 3.72372C16.6909 4.84084 16.1209 6.02002 15.6027 7.13714C15.1881 8.13013 14.7735 9.12312 14.359 10.0541L14.2035 10.4264C10.2132 19.7357 6.32658 29.1692 2.75087 38.4785L2.69905 38.6026C2.3363 39.5956 1.92173 40.6507 1.50715 41.7678C1.24804 42.4505 0.988933 43.1952 0.729824 44.002C0.0561403 46.2983 -0.151147 48.4705 0.107962 50.7047C0.678002 55.3594 3.26909 59.2693 6.8448 61.007C8.19217 61.6897 9.59136 62 11.0424 62C11.4569 62 11.9752 61.9379 12.3897 61.8759C14.0999 61.6276 15.8618 60.9449 17.5719 59.7658C19.6966 58.3383 21.7177 56.2903 23.9978 53.3113C26.278 56.2903 28.3509 58.3383 30.4237 59.7658C32.1339 60.9449 33.8958 61.6276 35.6059 61.8759C36.0205 61.9379 36.5387 62 36.9533 62C38.4043 62 39.8553 61.6897 41.1508 61.007C44.7784 59.2693 47.3176 55.2973 47.8877 50.7047C48.3023 48.5325 48.095 46.3604 47.4213 44.0641ZM24.0496 47.2913C21.2513 43.0711 19.4375 39.0991 18.8156 35.7477C18.5565 34.3203 18.5047 33.0791 18.6602 31.962C18.7638 30.969 19.0747 30.1001 19.4893 29.3554C20.4739 27.6797 22.1322 26.6246 24.0496 26.6246C25.9671 26.6246 27.6772 27.6176 28.61 29.3554C29.0245 30.1001 29.3355 30.969 29.4391 31.962C29.5946 33.0791 29.5428 34.3824 29.2836 35.7477C28.6618 39.037 26.848 43.009 24.0496 47.2913ZM44.7266 50.2082C44.3638 53.4354 42.55 56.2282 40.0108 57.4695C38.767 58.0901 37.4197 58.2763 36.0723 58.0901C34.7768 57.9039 33.4812 57.4074 32.1339 56.4765C30.2683 55.2352 28.4027 53.3113 26.2262 50.4565C29.6464 45.4294 31.7193 40.8368 32.4966 36.7407C32.8594 34.8168 32.9112 33.0791 32.7557 31.4655C32.5484 29.9139 32.082 28.4865 31.3565 27.2452C29.75 24.4525 27.0553 22.8388 24.0496 22.8388C21.044 22.8388 18.3492 24.5145 16.7428 27.2452C16.0173 28.4865 15.5509 29.9139 15.3436 31.4655C15.1363 33.0791 15.1881 34.8789 15.6027 36.7407C16.38 40.8368 18.5047 45.4915 21.8731 50.5185C19.7484 53.3734 17.831 55.2973 15.9654 56.5385C14.6181 57.4695 13.3225 57.966 12.027 58.1521C10.6278 58.3383 9.28043 58.0901 8.08852 57.5315C5.54925 56.2903 3.73549 53.4975 3.37274 50.2703C3.21727 48.7187 3.32091 47.1672 3.83913 45.4294C3.9946 44.8088 4.25371 44.1882 4.51282 43.4434C4.87557 42.4505 5.29014 41.3954 5.70472 40.3403L5.75654 40.2162C9.33225 30.969 13.1671 21.5355 17.1573 12.3503L17.3128 11.978C17.7274 11.047 18.142 10.0541 18.5565 9.12312C18.9711 8.13013 19.4375 7.1992 20.0075 6.39239C21.0958 4.9029 22.5468 4.0961 24.1533 4.0961C25.7598 4.0961 27.2108 4.9029 28.299 6.39239C28.8691 7.1992 29.3355 8.13013 29.75 9.12312C30.1646 10.0541 30.5792 11.047 30.9938 11.978L31.1492 12.3503C35.0877 21.5976 38.9225 31.031 42.4982 40.2783V40.3403C42.9128 41.3333 43.2755 42.4505 43.6901 43.4434C43.9492 44.1882 44.2083 44.8088 44.3638 45.4294C44.7784 47.043 44.9338 48.5946 44.7266 50.2082Z" fill="#FF5A5F"/>
</svg>
